<?xml version="1.0" encoding="utf-8"?>
<!-- Generator: Adobe Illustrator 18.0.0, SVG Export Plug-In . SVG Version: 6.00 Build 0)  -->
<!DOCTYPE svg PUBLIC "-//W3C//DTD SVG 1.1//EN" "http://www.w3.org/Graphics/SVG/1.1/DTD/svg11.dtd">
<svg version="1.1" xmlns="http://www.w3.org/2000/svg" xmlns:xlink="http://www.w3.org/1999/xlink" x="0px" y="0px"
	 viewBox="0 0 174 117.7" enable-background="new 0 0 174 117.7" xml:space="preserve">
<g id="Intro_section">
	<g>
		<g>
			<defs>
				<rect id="SVGID_23_" x="0" y="0" width="174" height="117.7"/>
			</defs>
			<clipPath id="SVGID_2_">
				<use xlink:href="#SVGID_23_"  overflow="visible"/>
			</clipPath>
			<g clip-path="url(#SVGID_2_)">
				<defs>
					<rect id="SVGID_25_" x="0" y="0.5" width="173.7" height="117.2"/>
				</defs>
				<clipPath id="SVGID_4_">
					<use xlink:href="#SVGID_25_"  overflow="visible"/>
				</clipPath>
				<path clip-path="url(#SVGID_4_)" fill="#FFFFFF" d="M164.4,64.2l-0.2-0.1l0.2-0.2l0-0.2l0.3,0.3l-0.1,0.3L164.4,64.2z
					 M161.6,62.4c-0.1-0.2-0.2-0.3-0.1-0.3c0-0.1,0.1-0.1,0.2-0.1l0.1,0.3l0.4,0.3l-0.1,0.2C161.8,62.6,161.7,62.5,161.6,62.4
					 M160.6,61l-0.3,0.1l0.4,0.5l-0.2,0.1l-0.2,0.1l-0.6,0.1l0.1-0.4l0.1-0.3l-0.2-0.3c0-0.2,0.1-0.3,0.3-0.2l0.3,0.1l0.3-0.1
					L160.6,61z M164.1,63.6l-0.7-0.4l-0.1-0.2l0.7,0.1L164.1,63.6z M163.9,62.8l-0.3-0.3l-0.3,0l-0.3-0.5c0.5,0.1,0.8,0.2,0.9,0.4
					L163.9,62.8z M161.9,61.6l-0.3,0.1l-0.1-0.4l0.2-0.1l0.7,0.2l0.2,0.4l0,0.2L161.9,61.6z M166.9,63.7c0,0.1,0,0.1-0.1,0.2l-0.5,0
					l-0.4-0.2l0.1-0.1l0.1-0.1l0-0.2c0.1,0,0.1,0,0.2,0c0.1,0,0.2,0.1,0.2,0.2l0.3-0.1C166.8,63.5,166.9,63.6,166.9,63.7
					 M168.2,64.3c0,0-0.1,0.1-0.3,0.1l-0.5-0.1l-0.2-0.2c0,0,0.1-0.1,0.2-0.2c0.3,0,0.5,0,0.6,0C168.1,64.1,168.1,64.2,168.2,64.3
					 M159.8,60.6l-0.2-0.1l-0.4-0.3l-0.1-0.4c0-0.1-0.1-0.2-0.2-0.4l-0.4,0.1l-0.3,0.2c-0.2,0-0.3-0.1-0.4-0.2l-0.1-0.2l0.2-0.1
					c0.1,0,0.3,0,0.5,0l-0.5-0.5l-0.8-0.5l-0.3,0l0-0.3l-0.4,0l-0.1-0.5l-0.3,0.1l-0.2,0.1l-0.3-0.2l-0.1-0.4l0.1-0.1l0-0.2
					l-0.2-0.2l0-0.2l0.1-0.1c0.1,0.1,0.1,0.2,0.1,0.3l0.2,0l0.2,0.1l0.1,0.2l0.2,0.2l0.3,0l0.4,0.3c0.1-0.1,0.2-0.2,0.2-0.3l0.3-0.3
					l0.2,0.7l0.3-0.1l-0.1,0.2c-0.1,0.2-0.1,0.4,0,0.7l-0.3,0l0.3,0.5l0.5-0.1l0.1,0.4l0.3,0c0.1,0.1,0.2,0.3,0.3,0.4l0.2,0.5
					l0.3,0.3l0.2,0.3C160,60.4,159.9,60.5,159.8,60.6 M153.6,53.5l0.2,0.2L154,54c0,0.2-0.1,0.3-0.2,0.3c-0.2,0-0.4,0-0.4-0.2
					l-0.2-0.7l0-0.3l0.2-0.1l0.4,0.2L153.6,53.5z M151,49.3l-0.1-0.4c0.4,0.1,0.6,0.3,0.5,0.7L151,49.3z M146.2,44.4l0.1,0l0-0.1
					L146.2,44.4z M170.3,66.5l-0.1-0.1l0,0.2L170.3,66.5z M147.2,46.4c0,0.1,0,0.1,0.1,0.2l0.2-0.1l0-0.2L147.2,46.4z M162.4,46.8
					l0.1,0.2c0.1,0,0.1-0.1,0.2-0.1l-0.1-0.2C162.5,46.7,162.5,46.7,162.4,46.8 M166.1,64.9c0,0,0,0.1,0,0.3l0.2-0.4
					C166.2,64.8,166.1,64.9,166.1,64.9 M169.4,68.3l0.1,0.3l0.1-0.1l-0.1-0.2L169.4,68.3z M165.5,64.8l0.2,0.1l0.2-0.1
					c0-0.1,0-0.1-0.1-0.2L165.5,64.8z M161.9,46.3l0,0.2c0.1,0,0.1,0,0.2-0.1l0-0.2C162,46.2,161.9,46.2,161.9,46.3 M156.2,54.8
					c0-0.1,0-0.2,0-0.3C156.2,54.5,156.2,54.6,156.2,54.8 M162.3,63.3c0,0.1,0.1,0.1,0.2,0.2l0.1-0.2l-0.2-0.2L162.3,63.3z
					 M167.3,65c0,0.1,0,0.1,0,0.2l0.3-0.1c0-0.1,0-0.1,0-0.2C167.5,64.8,167.4,64.9,167.3,65 M168.2,65.2l0.2,0.1
					c0.1,0,0.1-0.1,0.1-0.2l-0.2-0.1C168.2,65,168.2,65,168.2,65.2 M155.1,54.9c-0.1,0.1-0.1,0.1-0.2,0.2c0,0,0.1,0,0.1-0.1
					c0,0,0.1-0.1,0.2-0.3C155.3,54.8,155.2,54.8,155.1,54.9 M146.2,45c0,0.1-0.1,0.1,0,0.2c0,0.1,0.1,0.1,0.2,0.2
					c0.1,0,0.1-0.1,0.2-0.3c0-0.1-0.1-0.2-0.2-0.3C146.3,44.9,146.2,44.9,146.2,45 M165,63.4C165,63.4,165,63.4,165,63.4
					c0.1,0.1,0.2,0.2,0.3,0.2c0.1,0,0.2-0.1,0.3-0.1c0-0.1-0.1-0.2-0.3-0.2L165,63.4z M164.6,62.9c-0.2-0.2-0.4-0.2-0.5-0.1l0.2,0.3
					l0.4,0L164.6,62.9z M150.7,49.8c0,0.2,0,0.3,0.1,0.4c0.2,0,0.3,0,0.4-0.2c0-0.2,0-0.3-0.1-0.4C150.9,49.5,150.8,49.6,150.7,49.8
					 M173.5,59.5l-0.2-0.7l-0.5-1l-0.6-1.9l-0.8-1.9l-0.1-0.8l-0.4-0.5l0-0.4l-0.4-0.3l-0.1-1l-0.5-1l-0.5-1.2l-0.3-0.8l-0.2-0.8
					l-0.4-0.5l-0.3-0.8l-0.1-0.5l0.1-0.4l-0.5-1.2l-0.1-0.4l0-0.6c-0.1-0.2-0.2-0.4-0.4-0.6l-0.1-0.9l-0.1-0.8
					c-0.1-0.4-0.3-0.7-0.7-1l-1-0.6l-0.7-0.7l-0.3,0l-0.2-0.1L164,38c0,0-0.1,0-0.1-0.1c-0.2-0.1-0.4-0.1-0.6-0.2
					c-0.2,0-0.3,0-0.3,0c0,0,0,0.1,0,0.2l0.1,0.4c0,0.1-0.3,0.2-0.6,0.3c-0.1,0.2-0.2,0.5-0.1,0.9l0.1,1.2l0.3,0.3l-0.1,0.4l0.3,0.2
					l0.1,0.2l-0.4,0.2l0.5,0.5c0.2,0.2,0.2,0.3,0.2,0.5c-0.1,0.2-0.2,0.3-0.4,0.4l-0.5,0.1l0.2,0.7c0.1,0.3,0,0.4-0.3,0.5
					c0,0-0.1,0-0.2-0.1c-0.1,0-0.2-0.1-0.3-0.2l-0.3,0l0.4,0.6l-0.2,0.5l-0.1,1.1l0.4,0.4l0.1,0.5l0.1,0.5l0.2,0.1
					c0.1,0,0.2,0.1,0.3,0.2l-0.2,0.9c0.1,0.2,0.2,0.4,0.3,0.7l0,0.8l0.3,0.7l0.4,1.6l0.2,0.7l0.6,0.8l0.2,1l0.2,1l0.4-0.3l0.4,0.2
					l0,0.4l0.1,0.2l-0.1,0.7c0.2,0.6,0.3,1,0.6,1.3l0.3,0.2l0.2,0.6l0.1,0.7l-0.1,0.4c-0.2,0.2-0.4,0.3-0.8,0.1l-0.7-0.4l-0.6-0.2
					c-0.2-0.3-0.3-0.4-0.5-0.5l-0.6-0.3l-0.7-0.7l-0.5-0.1l-0.8-0.7l-1.3-1.1c-0.1-0.1-0.3-0.1-0.4,0l-0.4-0.5
					c-0.2-0.1-0.4-0.2-0.8-0.3l-0.3-0.3c0-0.1-0.2-0.1-0.3-0.2l-0.3,0.1l-0.1-0.1l-0.3-0.3l-1-1.2c-0.5-0.7-0.8-1-1-1.1l-0.2,0
					l0.1,0.4c0-0.1-0.1-0.1-0.1-0.1c-0.3-0.1-0.5-0.2-0.7-0.3c-0.2-0.1-0.2-0.3-0.2-0.6c0-0.3,0-0.4-0.2-0.4c-0.3,0-0.5,0.1-0.6,0.3
					l0.1,0.5c-0.2-0.2-0.4-0.4-0.4-0.5l-0.1-0.6l-0.3-0.3l-0.2-0.5l0-0.4l0-0.4c0,0-0.1-0.1-0.1-0.1c0-0.1-0.1-0.1-0.2-0.1l-0.3-0.3
					l0.1-0.1l0.1-0.2l-0.3-0.3l0-0.4l0-0.5c-0.2-0.2-0.4-0.3-0.5-0.1c0,0.1,0,0.3,0.1,0.6c-0.1,0-0.2,0-0.3-0.2l0-0.5l0.3-0.3
					l0.2-0.1c0-0.2,0-0.4-0.1-0.5l-0.2-0.4l-0.1-0.6c-0.2-0.4-0.4-0.8-0.6-1.1c-0.2-0.3-0.5-0.5-0.7-0.6c-0.1,0-0.2-0.1-0.5-0.1
					l-0.3-0.1l-0.2,0.3c0,0.1-0.1,0.1-0.2,0.2c-0.2-0.1-0.3-0.2-0.2-0.4l0.2-0.4l-0.5-0.1l-0.3-0.1l-0.5-0.5
					c-0.1-0.1-0.2-0.1-0.4-0.2c0,0,0,0.1-0.1,0.1c0,0.1,0,0.1,0,0.2c0,0.2-0.1,0.3-0.2,0.4c0,0.2,0.1,0.4,0.4,0.6l0.6,0.5
					c0,0.2-0.1,0.3-0.3,0.4l-0.4,0.2l0.5,0.4L147,46c-0.1,0-0.1,0.1-0.2,0.2c0,0.2,0.1,0.3,0.2,0.4l0.4,0.2l0,0.3l0.2,0.1l0.1,0.3
					l-1,0.9l-0.5,0l-0.6,0.5l-0.4-0.1c-0.1,0-0.2,0-0.4,0c-0.1,0.1-0.1,0.4,0,0.9l0.2,0.8l0.4,0.2l0,0.6l0.1,0.5l0.2,0.3l-0.1,0.2
					l-0.1,0.2c-0.1,0.6-0.1,1.1,0,1.6l0.3,0.8l0.4,0.7l0,0.6l0.1,0.6l0.5,0.5l0.1,2.4l0.8,1.3l0,0.9c0,0.2,0,0.5,0.1,0.8l0.4,1
					l0.7,1.6l0.5,1.2l0.1,0.5l0.3,0.9l0.7,1.4l0.7,1.5c0.2,0.4,0.4,0.8,0.5,1.3l0.4,1c0.3,0.1,0.5,0.1,0.7,0
					c0.2-0.1,0.3-0.2,0.4-0.3c0.1-0.1,0.2-0.2,0.3-0.3l0.3,0.1c0.2,0.1,0.3,0,0.4-0.1c0-0.1,0-0.2,0-0.3l-0.4-0.1l0.3-0.7
					c0.1-0.1,0.3-0.2,0.7-0.3l-0.3-0.3l0.1-0.9l0.2,0l0.1-0.2l0.2-0.5l0.2-0.6l-0.1-0.4l0.3,0l0.2-0.4c0.1-0.1,0.1-0.3,0.2-0.5
					c-0.1-0.2-0.3-0.6-0.4-1.2L155,65l-0.3-0.3c-0.1-0.1-0.2-0.2-0.3-0.2c0-0.1-0.1-0.1-0.2-0.2l0-0.6l-0.2-0.2l-0.1-0.2l0-0.3
					c-0.1-0.5-0.3-1.1-0.6-1.5l-0.3-0.2l-0.1-0.7l-0.2-0.4l-0.2-0.3l-0.2-0.4c0-0.1,0-0.2,0.1-0.4c0.2-0.1,0.4,0,0.6,0.2l0.6,0.5
					l0.9,1.2l0.6,0.5c0.3,0.2,0.5,0.4,0.6,0.5l0.4,0.5l0.4,0.3c0.2,0.1,0.4,0.3,0.7,0.6l0.6,0.5l1.8,1.1l0.2,0.3l0.9,0.7l2,1.2
					c0.7,0.4,1.4,0.7,2,0.9l1.1,0.3l0.6,0.4l0.6,0.3l0.6,0l0.5,0l0.5,0.2c0.1,0,0.3,0.1,0.5,0.1l0-0.2l0.3-0.1l0.2,0.2
					c0.3,0.1,0.5,0,0.7-0.2c0.2-0.3,0.3-0.6,0.3-0.9l0.1-0.7c0.1-0.1,0.2-0.2,0.5-0.4l0.2-0.5l0.2-0.1l-0.9-0.1
					c-0.2,0-0.3-0.1-0.2-0.3c0.1-0.2,0.2-0.3,0.3-0.2l0.3,0.1c0-0.1,0-0.3,0-0.5l0.4,0l0.2-0.3l0.6-0.2c0.2-0.1,0.4-0.2,0.5-0.3
					c0.1-0.2,0.2-0.3,0.2-0.6l0.1-1.2l0.3-0.7c0.1-0.3,0.2-0.6,0.1-0.8l0-0.8l0.1-0.4L173.5,59.5z M119.4,77.4l-0.1-0.2l0.3,0.1
					L119.4,77.4z M118.8,76.9l-0.2,0.1c-0.2-0.1-0.2-0.3-0.1-0.5l0.1-0.2C118.7,76.4,118.8,76.6,118.8,76.9 M119.2,76.1
					c0,0.1,0,0.2,0,0.2l-0.2,0.2c-0.1-0.1-0.1-0.2,0-0.3c0-0.1,0.1-0.2,0.2-0.3C119.2,75.9,119.2,76,119.2,76.1 M130.9,77.6
					l-0.1,0.1l0-0.3L130.9,77.6z M136.6,76.9l-0.1,0.4c-0.1,0-0.2-0.1-0.4-0.2c0-0.2,0.1-0.3,0.4-0.4l0.4,0L136.6,76.9z M119.3,54
					c-0.1,0.3-0.3,0.4-0.5,0.2l-0.1-0.4c0-0.1,0.1-0.2,0.1-0.3l0.2,0l0.1-0.2l0.2,0C119.4,53.4,119.4,53.6,119.3,54 M136.9,62.3
					l-0.4,0.1l-0.2-0.1c0.1-0.1,0.1-0.2,0.2-0.2l0.4-0.2l0.1,0.2C137.1,62.2,137,62.3,136.9,62.3 M121.9,52.6c0,0.1-0.1,0.1-0.2,0.2
					l0-0.2l0.2-0.1l0-0.3C121.8,52.3,121.8,52.4,121.9,52.6 M127,51.8c0,0.1,0,0.2-0.1,0.2l-0.1,0.5l0.1,0.4c0,0.1-0.1,0.1-0.2,0.1
					l-0.1-0.4l0.1-0.9l0-0.4l0.1,0.1l0.3,0.1C127,51.7,127,51.7,127,51.8 M133.5,49.8l-0.1,0.3l-0.5-0.4l0.3-0.3L133.5,49.8z
					 M135.4,49.8l0,0.7l0.2-0.3c0.1-0.1,0-0.2-0.1-0.3L135.4,49.8z M130.2,47.5l0.1,0l0-0.1L130.2,47.5z M121.6,50.4l0,0.2l0.1-0.2
					L121.6,50.4z M120.8,53.3c0,0.1,0,0.1,0.1,0.2C120.8,53.4,120.8,53.3,120.8,53.3 M129.9,49.6l0.1-0.1l-0.1-0.1L129.9,49.6z
					 M143.2,74.4c0,0,0-0.1-0.1-0.1c0,0.1,0,0.2,0.1,0.3C143.2,74.5,143.2,74.4,143.2,74.4 M148.3,69l0,0.2l0.2,0l-0.1-0.2L148.3,69
					z M111.9,61.5l0,0.2l0.1-0.3L111.9,61.5z M113.7,59l0.1,0.2l0.1-0.1l0-0.2L113.7,59z M119.8,53.8l0.2-0.1l-0.1-0.3L119.8,53.8z
					 M132.4,78.8l0,0.2l0.2,0l-0.1-0.2L132.4,78.8z M120.3,52.7l0,0.2l0.2-0.1c0-0.1,0-0.1-0.1-0.2
					C120.5,52.6,120.4,52.7,120.3,52.7 M113.9,72.4c0,0.1,0.1,0.1,0.1,0.3l0.2-0.1l-0.1-0.3L113.9,72.4z M131.7,49l0.2,0.2L132,49
					L131.7,49z M125.8,78.8c0,0.1,0.1,0.2,0.1,0.3c0.1,0.1,0.2,0,0.3-0.1c0-0.1-0.1-0.2-0.1-0.3C126,78.7,126,78.7,125.8,78.8
					 M110.9,70.7c0,0.1,0,0.1,0.1,0.2l0.2-0.1c0-0.1,0-0.1,0-0.2C111,70.6,110.9,70.7,110.9,70.7 M128.7,48.6c0,0.1,0,0.1,0.1,0.2
					c0.1,0,0.1,0,0.2,0c0,0,0-0.1,0-0.3C128.9,48.5,128.8,48.5,128.7,48.6 M111.2,66.1l0.2,0.3l0.2-0.1c0-0.2,0-0.2-0.2-0.2
					L111.2,66.1z M127.6,79.5l0.1,0.3l0.1-0.2l-0.1-0.3L127.6,79.5z M126.5,51c0,0.1,0.1,0.1,0.2,0.1c0.2-0.1,0.2-0.2,0.1-0.3
					l-0.2-0.1C126.5,50.7,126.5,50.8,126.5,51 M128.3,79.5l0.1,0.2l0.2-0.2l-0.1-0.2L128.3,79.5z M125.9,52.5l0.1,0.3l0-0.3
					l-0.2-0.4L125.9,52.5z M131.5,50.2l0.1,0.3l0.1-0.5L131.5,50.2z M124.6,79.2c0,0.2,0,0.3,0.1,0.4l0.2-0.2c0-0.1,0-0.2-0.1-0.4
					C124.7,79,124.6,79.1,124.6,79.2 M148.1,69c-0.1,0-0.2,0-0.4,0.1l-0.4,0.2l-0.4,0.2l-0.7,0.7l-1,0.6l-0.5,0.1l-0.5,0.5
					c-0.2,0.1-0.4,0.2-0.6,0.2l-0.6,0.2l-1.2,0.4l-1,0.4l-2.6,0.6l-2.5,0.6l-1.7,0.3l-2.7,0.1c-0.6,0-1.1,0-1.7,0
					c-0.6,0-1.1,0-1.7-0.1c-1.2-0.1-2.4-0.3-3.4-0.6l-0.6,0l-1.6-0.5c-0.8-0.3-1.4-0.5-1.6-0.6l-1.1-0.8c-0.8-0.6-1.4-1.3-1.8-2.1
					l-0.7-0.9c0-0.3,0-0.5,0.2-0.7c0,0,0.1-0.1,0.2-0.2l0.4-0.1l0.3-0.4l0.8-0.3l1.3-0.2L121,67c0,0,0-0.1,0.1-0.1
					c0-0.1,0-0.1,0-0.2c0-0.1,0.1-0.2,0.1-0.3l0.3,0.2l0.4-0.1l0.2-0.1l1-0.4l0.7,0l0.6,0l0.8-0.3l0.5,0l0.4,0.2l0.3-0.3l1-0.4
					l0.3,0l0.4,0.1l0.6-0.4l1.2-0.3l0.6,0.1l0.7-0.2l0.8,0.1c0.1,0,0.2,0,0.4,0c0.2,0,0.3-0.1,0.4-0.3l0.3-0.4l0.8,0l0.4-0.2
					l0.1,0.2l0.4-0.1l0.4,0.2l1.2-0.4l0.6,0l0.7-0.4l0.5-0.1l0.6-0.2c0.1-0.1,0.2-0.2,0.1-0.5l0-0.5l0.2,0l0.1-0.6l0.3-0.1l0.2-0.7
					c0,0,0.1,0,0.2,0s0.2,0,0.2,0c0-0.1-0.1-0.2-0.3-0.3c-0.2-0.1-0.2-0.3-0.2-0.4l0.3,0.1l0.2,0.1l1.7-0.5c0.1,0,0.1,0,0.2,0.1
					c0.1,0.1,0.2,0.2,0.4,0.2c0.1-0.1,0.1-0.1,0.2-0.2c0.1-0.1,0.1-0.2,0.2-0.3l0.1-0.2l-0.1-0.6l-0.4-0.4l-0.1-0.1l0.2-0.6
					c0,0,0-0.1,0-0.3l-0.2,0l-0.1-0.4l-0.2-0.3l-0.5-0.1c-0.4-0.1-0.8-0.1-1.4,0l-0.5,0.1l-0.3,0l-0.3,0.2l-0.3,0l-0.5,0l-0.1,0.1
					l-0.2,0.3c-0.2,0.1-0.6,0.2-1.1,0.1l-1-0.1l-0.2,0.2l-0.2-0.1l-0.6,0l-0.3,0l-0.2-0.1l-0.2,0.1l-0.2,0.3l-0.5,0l-0.5,0.1
					l-0.2,0.1l-2.4,0.3c-0.2,0-0.5,0-0.9,0.1c-0.4,0.1-0.8,0.2-1.1,0.3l-0.9,0.3l-0.5,0.1l-0.5-0.1l-0.1,0.2l-0.2,0l-0.9,0.1
					l-0.8,0.1l-0.9,0.2l-1,0.2l-0.8,0.4l-0.8,0.4l-0.5,0l-0.6,0.3c-0.3,0.2-0.5,0.2-0.7,0.2l-0.5,0.3l-0.8,0.1l-0.2,0l0.1-0.4
					l-0.1-0.3l0.5-0.7l-0.1-0.5l0-0.4l0.3-0.2l0.6-0.6l0.4-0.7l0.8-1.2l0.5-0.3L121,55l0.3-0.1l0.2,0l0.6-0.5l0.5-0.4l0.8-0.3
					l0.3,0.2c0.2-0.1,0.4-0.3,0.6-0.8c0.1-0.1,0.2-0.3,0.4-0.5c0,0,0.1-0.1,0.1-0.2c0.1,0,0.2,0.1,0.3,0.3l0.1,0.4l0.1,0.2
					c0.1-0.1,0.2-0.1,0.2-0.2l0.2-0.2l0.3,0.4c0.2,0.1,0.4,0.2,0.6,0.1l0.7-0.2l0.2-0.1l0.5,0.1l0.5,0.3l0.5-0.3l0.1,0.2
					c0,0.1,0.1,0.1,0.2,0.1l0.3-0.2l0.4,0.3l0.1-0.1c0.1,0.1,0.2,0.2,0.1,0.5l0.1,0c0,0,0.1,0,0.1-0.1c0-0.1,0.1-0.1,0.2-0.1
					l0.1,0.4c0.1,0.2,0.3,0.3,0.5,0.3l0.1-0.5c0-0.1,0.1-0.1,0.2-0.2c0.1,0,0.2,0.2,0.2,0.5c0,0.3,0.1,0.5,0.2,0.6
					c0.1,0.1,0.3,0.3,0.5,0.6l0.5,0.1l0.5,0.1l0.1,0.4l0.3,0.1c0,0,0.1,0.1,0.1,0.2l-0.1,0.2l0.1,0.1l0.8-0.3
					c0.3-0.3,0.5-0.5,0.4-0.7l-0.1-0.1l-0.1-0.2l0.4-0.8l-0.1-0.5c-0.1-0.2,0-0.4,0.1-0.5c0.1-0.1,0.3-0.3,0.6-0.4
					c0.1-0.1,0.2-0.2,0.3-0.3c0.1-0.1,0.2-0.3,0.3-0.4l0.5,0.2l0.2-0.2l0.4,0.1l0.2-0.2l0.3,0.2c0.2,0.1,0.3,0.1,0.3,0
					c0.1-0.1,0-0.3-0.1-0.4l-0.4-0.5l-0.2-0.7l-0.3-0.2l-0.4-0.3l-0.1-0.4l-0.5-0.3l-0.1-0.1l-0.3,0.1c-0.1,0-0.1-0.2-0.2-0.5
					c-0.1-0.3-0.2-0.4-0.3-0.5l-0.8-0.3c0,0-0.1-0.1-0.1-0.1c0-0.1-0.1-0.1-0.1-0.2l-1.1-0.1l-0.8-0.3l-0.4-0.2l-0.3,0.3
					c-0.1,0.1-0.2,0.1-0.3,0.2c0-0.1,0-0.3-0.1-0.6l-0.2,0.2l-0.4,0.6l-0.2,0.5c0,0-0.1-0.1-0.1-0.1c0,0,0-0.1-0.1-0.1
					c0-0.1-0.1-0.2-0.3-0.2l-0.1,0.3l0.2,0.2l-0.4,0.2c0,0.1,0,0.3,0,0.5c-0.1,0-0.2,0.1-0.3,0.2l0.1,0.2l0.3,0l0.1,0.4l0.2,0.1
					l0.1,0.2l0,0.2l-0.3,0.2l-0.2-0.2l-0.3,0.1l-0.2,0l-0.3-0.1l-0.3,0.4c-0.2,0.1-0.4,0.1-0.5,0l-0.5-0.3c-0.1,0-0.2-0.1-0.5-0.1
					l-0.1,0.2c0,0-0.1,0.1-0.2,0.1c-0.2-0.1-0.2-0.2-0.1-0.4l0.3-0.3l-0.3,0.1l-0.1-0.2l-1.1,0.3c0,0-0.1-0.1-0.1-0.1
					c0,0-0.1-0.1-0.1-0.2c0-0.1-0.1-0.1-0.3-0.2l-0.1,0.2l-0.1,0.2l-0.2-0.1c0,0-0.1,0.1-0.3,0.2l-0.3,0.1c-0.1,0-0.1,0-0.2-0.1
					l-0.1-0.3c-0.1-0.1-0.3-0.2-0.7-0.2c-0.3,0-0.5,0-0.6,0.1c0,0.1,0.1,0.1,0.1,0.2c0,0.1,0.1,0.1,0.1,0.2l0.4,0.2L124,51
					c0,0.1-0.1,0.2-0.2,0.3l-0.2-0.3l-0.2-0.2l-0.2,0.2l-0.4-0.1c0-0.1-0.1-0.1-0.1-0.2c0-0.1,0.2-0.1,0.4-0.2l-0.3,0l-0.1-0.3
					l-0.1-0.2c-0.1,0.1-0.2,0.2-0.1,0.4l0.3,0.7l0.3,0.7l-0.3,0.4l0.3,0.2l-0.3,0.1l-0.3,0.1c0,0-0.1,0-0.1-0.1
					c-0.1,0-0.1-0.1-0.1-0.1L122,52l0-0.5l-0.1-0.1l-0.2-0.2l-0.2-0.4l-0.3-0.2l-0.3,0.2l-0.5-0.1l-0.2,0.6l-0.4,0.1l-0.1,0.2
					c-0.2,0-0.4,0-0.4,0l-0.6,0.4l-0.2,0.3l-0.4,0.1c0,0.1,0,0.2,0,0.4c0,0.1-0.2,0.1-0.4,0.2l-0.3,0.2l-0.1,0.5
					c-0.1,0-0.2-0.1-0.3-0.1c-0.1,0.2-0.4,0.4-0.7,0.6l0,0.5c0,0.1-0.3,0.2-0.7,0.4l-0.1,0.6c-0.1,0.1-0.2,0.1-0.3,0.1
					c-0.1,0-0.2,0-0.3,0c-0.1,0.2-0.1,0.5-0.1,0.8l0.1,0.1l0,0.2c0,0.1-0.2,0.1-0.5,0.2c-0.1,0.1,0,0.3,0.1,0.5l0.3,0.3l-0.9,0.8
					l0.5,0.7l-0.2,0.3l-0.2,0.2c0,0.2,0,0.3,0.2,0.6c-0.1,0-0.1,0.1-0.3,0.1L114,60l-0.3,0c-0.1,0-0.2,0-0.3,0l0.2-0.4l-0.1-0.3
					l-0.2-0.1l-0.1,0.3l0,0.6l-0.1,0.4l0.2,0.1l0.1,0.2c0,0-0.1,0.1-0.1,0.1c-0.1,0-0.2,0.1-0.4,0.1c-0.1,0-0.3,0.2-0.4,0.4l0.1,0.2
					l0.2-0.1l-0.1,0.3l0.2,0.4c0,0.2-0.2,0.3-0.5,0.2l-0.5-0.1c-0.1,0-0.1,0.1-0.1,0.3l-0.1,0.4c-0.1,0.1-0.2,0.3-0.2,0.5l-0.2,0.5
					l-0.4,0.5L111,65l-0.3,0.1l0.1,0.4l-0.2,1l0.2,0.2l0.2,0.2l-0.7,0.5l-0.3,0l0.2,0.3l0.4,0.7c0.3,0.3,0.4,0.5,0.5,0.7l0.1,0.8
					l-0.1,0.3l0.4,0.8l0.1,0.4l-0.3,0.1l0.2,0.6l-0.3,0.3l0.1,0.4l0.3,0.2l0.3,0.4c0.1,0.1,0.2,0.1,0.4,0.2l0.1-0.2l0.2-0.1
					c0.1,0.1,0.2,0.2,0.2,0.5l0.2,0.6l0.3-0.2c0.1,0,0.1,0.2,0.2,0.5l0.2,0.7l0.5,0.1l0.4,0.6l0.7,0.1c0,0,0,0.1,0,0.1
					c0,0.1,0,0.1,0,0.2c0,0.1,0,0.2,0,0.3c0.1,0,0.3,0,0.6-0.1l0.1,0.3l0.4,0.4l0.3,0l0.1,0.3c0.1,0,0.1,0,0.2-0.1l0.1-0.3l0.2,0.2
					l0.2,0.2l0.5-0.1l0.2,0.2l0.7,0.1l0,0.2l-0.2,0.2l0.7-0.1c0.2,0,0.4,0.1,0.4,0.3l0.4,0.2l0.4,0.5c0.2,0,0.4,0.1,0.7,0
					c0.1,0.2,0.1,0.3,0.1,0.5c0.2,0,0.3-0.1,0.4-0.3c0.1-0.2,0.2-0.3,0.5-0.5c0.2,0,0.4,0.1,0.6,0.2l0.1,0.6l0.6-0.4l0.4,0.1
					l0.3-0.1l-0.1-0.3l0.2-0.2l0.3-0.2c0,0.1,0.1,0.1,0.3,0.2l0.3-0.1c0.2,0,0.3,0,0.3,0.1l0,0.4c0,0.2,0,0.3,0.2,0.4
					c0.1,0,0.2-0.1,0.2-0.1l0.2-0.3c0.1,0,0.2,0.1,0.3,0.3c0.1,0,0.3,0.1,0.7,0l0,0.3l0.5,0.2c0.3-0.1,0.4-0.2,0.5-0.5
					c0.1-0.3,0.2-0.6,0.3-0.9c0-0.1,0.1-0.2,0.1-0.3l0.2,0.1l0.1,0.3l0.4,0.1l0.2,0.2c0.1,0.2,0.3,0.2,0.6,0.2l0.6-0.1l0.1-0.5
					l0.3,0l0.1-0.3l0.2,0.8c0,0.1,0.1,0.2,0.3,0.3c0.2-0.1,0.3-0.2,0.3-0.3l0.1-0.3l0.1,0.3l0.7-0.2l0.6,0l0.1-0.3l0.7-0.3l0.6-0.1
					l0.3-0.3l0.3-0.3l0.6,0l0.4,0.1c0.1-0.1,0.2-0.2,0.3-0.4l0-0.3c0.1,0,0.2,0.1,0.3,0.1l0.4,0.2l0.7,0l0.2,0.3l0.4-0.2l0.5-0.3
					l0.8-0.2l0.4-0.2l0.2-0.4c0-0.1,0.1-0.2,0.2-0.3c0,0,0,0,0.1,0c0.1,0.1,0.1,0.2,0.1,0.3l0.2-0.1l0.2,0c0.1-0.1,0-0.3-0.2-0.5
					c-0.1-0.1-0.2-0.3-0.3-0.4c0.2-0.1,0.4-0.1,0.6,0.3l0.2,0.1c0-0.1,0-0.3-0.1-0.4c0-0.1,0-0.2,0-0.4c0.2-0.1,0.3-0.1,0.5,0.1
					c0.2,0.2,0.3,0.3,0.5,0.1l0.3-0.4l0.5-0.1l0.6-1.3l0.5,0l0-0.2l0.2,0l-0.1-0.4c0.1-0.1,0.3-0.2,0.7-0.2l0.2-0.4L146,72l0.4-0.2
					l0.2-0.2l0.2-0.5c0.1-0.1,0.3-0.2,0.6-0.4l0-0.3l0.3-0.2l0-0.2l0.4-0.4C148,69.4,148.1,69.3,148.1,69
					C148.1,69.1,148.1,69.1,148.1,69 M127,49.4c-0.1,0.1-0.2,0.1-0.3,0.2l0,0.3l0.2-0.2l0.4-0.3l-0.1-0.2
					C127.2,49.3,127.1,49.3,127,49.4 M127.7,49.5l-0.1,0.3c0.1,0.1,0.3,0,0.5-0.3l0-0.2C128,49.3,127.9,49.3,127.7,49.5 M128.2,49.1
					l0.1,0.5l0-0.4l0.1-0.3L128.2,49.1z M136.3,45.9c-0.1-0.1-0.3-0.2-0.3-0.3c-0.1-0.1-0.2-0.2-0.4-0.3l-0.3,0.4
					c0,0.1-0.2,0.1-0.4,0.2l0,1.1l0.4,0.2l0.1,0.2l0.2,0.2l0.7,0.1c0.2,0,0.3-0.1,0.3-0.4l0-0.8l0.2-0.1l0-0.3L136.3,45.9z
					 M97.5,78.1l-0.7,0.2l0.1-0.4c0.1-0.2,0.3-0.2,0.5-0.1L97.5,78.1z M95,76.6c0,0.1,0,0.1-0.2,0.2l-0.4,0.1l-0.3-0.3l0.3,0
					l0.2-0.2C94.7,76.4,94.8,76.5,95,76.6 M118.4,88.5c-0.1,0.1-0.2,0.1-0.4,0.2c-0.3,0-0.4-0.1-0.6-0.2l0.2-0.1l0.5-0.2l0.3,0.1
					C118.5,88.3,118.5,88.4,118.4,88.5 M117.2,88.1C117.2,88,117.2,88,117.2,88.1c-0.1-0.1-0.1-0.2-0.1-0.3c0-0.1,0.1-0.2,0.1-0.3
					c0.3-0.1,0.6-0.1,0.8,0.2L117.2,88.1z M120,87.3l-0.2,0.3c-0.1,0-0.3,0-0.5-0.1c-0.2-0.1-0.4-0.2-0.6-0.4l0.2-0.1
					c0.1-0.1,0.4-0.2,0.7-0.3c0.1,0,0.2-0.1,0.4-0.3l-0.2-0.1l-0.5-0.8l0.2-0.1l0.1-0.2l-0.4-0.2l-0.4-0.1l-0.3-0.8l-0.8-0.6
					l-1.1-1.2l-1-1.2l-1.1-1.4l-1.2-1.8l-0.5-0.4l-0.2-0.6l-0.9-1l-0.3-0.8l-0.4-0.4l-0.4-0.5l-0.2-0.6l-0.4-0.5l-0.5-0.5l-0.3-0.6
					l-0.3-0.9c-0.1-0.4-0.3-0.7-0.5-0.8l-0.5-0.1c-0.1,0-0.2-0.1-0.3-0.2l0.3-0.5l-0.4-0.5l0-0.3l-0.3-0.4c-0.1-0.1-0.2-0.3-0.5-0.4
					c-0.3-0.1-0.5-0.3-0.6-0.5l-0.5-1.1l-0.3-0.6l-0.4-0.6c-0.1-0.2-0.1-0.4-0.1-0.6l-0.4-0.7l-0.4-0.6c0,0-0.1,0-0.1-0.1
					c0,0-0.2,0-0.3,0c-0.2,0-0.4-0.1-0.6-0.2l0.5-0.8l-0.1-0.2l-0.7-0.9l-0.3-0.1l0.4-0.3c0,0-0.1-0.1-0.1-0.1
					c0-0.1-0.1-0.1-0.2-0.2c-0.1,0-0.2-0.1-0.3-0.3l0.1-0.3l0.2-0.4c0-0.2-0.1-0.2-0.3-0.2c-0.1,0-0.2,0-0.3,0
					c-0.1-0.1-0.1-0.3-0.1-0.5l-0.5-0.1l0.2-1.1l-0.2-0.2l-0.1-0.3l0.2-0.1c0,0,0-0.1,0-0.2c0,0-0.1,0-0.1-0.1c-0.1,0-0.1,0-0.2,0
					l-0.3,0l-0.5-0.4l-0.5,0.2l-0.4-0.1c0-0.1,0-0.2,0-0.2c0,0,0.1-0.1,0.2-0.1c0.1,0,0.1-0.1,0.2-0.2c-0.1-0.2-0.3-0.3-0.7-0.3
					l-0.7,0c-0.1,0-0.2-0.2-0.2-0.5c-0.2-0.2-0.4-0.2-0.7-0.1l0,0.3c0.1,0,0.2,0.2,0.2,0.4l-0.6,0.9l0.1,0.6l-0.3,0.1
					c-0.1,0-0.1,0.1-0.2,0.2l0.2,0.1l0.2,0.2c-0.3,0.2-0.4,0.3-0.3,0.5l0.3,0.6l-0.4,0.5c-0.2,0.2-0.3,0.4-0.3,0.6
					c0,0.3,0.1,0.5,0.2,0.6c0.2,0.1,0.4,0.1,0.7,0c0,0.2,0,0.3,0,0.3l-0.1,0.3l-0.5,0.1L96,61.9c-0.1,0.2-0.1,0.4,0.1,0.6
					c0.1,0.1,0.2,0.2,0.5,0.2l0.7-0.1l-0.1,0.2l-0.3,0.1c-0.1,0-0.2,0.1-0.4,0.3l0.3,0.6l-0.2,0.4l0.2,0.1l0,0.2l-0.1,0.1l0.1,0.2
					l-0.2,0.5l0.7,0.3l0.1,0.4l0,0.5l-0.6,0.2c-0.1,0.1-0.1,0.3-0.1,0.5l0,0.8l0.2,0.5c0,0.2,0,0.5,0.1,0.8l0.1,0.7l0.2,0.6l0.2,0.2
					l0.1,0.3l0.2,1.5l-0.1,0.4c0,0.1-0.1,0.2-0.1,0.5l0.4,0.1l0,0.2l0.2,0.1l0.1,0.5l0.3,0.7c0.1,0.2,0,0.6-0.2,1l0.1,0.3
					c0,0.1,0,0.2-0.1,0.3c-0.4,0.1-0.7,0.1-0.9-0.1c-0.2-0.2-0.4-0.4-0.7-0.5L96,76.2l-0.1-0.3c0-0.1-0.1-0.3-0.3-0.4l-0.7-0.3
					l0-0.3l-0.4,0c0,0-0.1-0.1-0.2-0.3l-0.4,0.1l-0.3-0.1c-0.1-0.1-0.3-0.1-0.4-0.1l-0.4-0.1l0.2-0.1L92.8,74l-0.2-0.2l-0.4-0.1
					c-0.1-0.1-0.2-0.1-0.4,0l-0.4,0.1L91,73.4c-0.1-0.1-0.2,0-0.4,0.1l-0.4-0.3l-0.5,0c0,0-0.1-0.1-0.2-0.2l-0.1-0.4l-0.2-0.2
					c0-0.1,0.2-0.1,0.4-0.2c0-0.1-0.1-0.2-0.2-0.4l0.1-0.3c-0.1-0.1-0.2-0.1-0.5,0l-0.1,0.1c-0.1,0-0.1-0.2-0.2-0.3
					c-0.1-0.1-0.3-0.2-0.6-0.1l-0.5-0.1l0.1-0.7l-0.8-0.2l-1.1-1.1l-0.7-0.3l0-0.3L85,68.2l-0.3,0l0.1,0.2c-0.1,0.2-0.2,0.2-0.4,0.2
					l-0.6-0.3l-0.4,0.1c-0.1-0.2-0.2-0.4-0.1-0.6l0.2-0.3L83,67.3l0.2-0.4L83,66.7c-0.2-0.1-0.4-0.1-0.5-0.1l-0.6,0.3l-0.4,0.1
					l-0.2,0c0-0.1,0-0.1,0.1-0.3l0.5,0l0.1-0.5l-0.3,0.1c-0.1,0-0.2-0.1-0.3-0.3l-0.1-0.6l-0.5-0.4l0-0.2l-0.5,0.1
					c-0.2,0-0.4-0.1-0.7-0.2l-0.5-0.6c-0.1-0.1-0.2-0.3-0.4-0.6l0-0.3l-0.1-0.2c-0.3,0-0.4,0.1-0.5,0.3L78,63.8l-0.4,0.6l0.2,0.4
					c-0.1,0.2-0.4,0.5-0.8,0.9c0,0.1,0,0.3,0.1,0.6l-0.2,0.4c0.1,0.4,0.3,0.5,0.7,0.6c0.1,0,0.1,0.1,0.1,0.2l-0.4,0.2l0.2,0.3
					l0.2,0.1l0.1,0.4l0.3,0l-0.3,0.3l-0.1,0.2l0.2,0.2l-0.1,0.3l0.3,0.2l0,0.5l0.4,0.5l0.1,0.2l-0.2,0.3l-0.1,0.2l0.2,0.1
					c0.1,0,0.1,0.1,0.1,0.2l-0.8,0.5L77.5,73l-0.3,0.2l0,0.4L77,73.9c-0.1,0.1-0.1,0.2,0,0.4l0.4-0.2c0.1-0.1,0.2-0.2,0.3-0.4l0.2,0
					c0,0,0,0.1,0,0.1c0,0.1,0,0.1,0,0.2l-0.1,0.3c0,0.1-0.2,0.1-0.5,0.2c-0.1,0-0.2,0.1-0.4,0.3l0.1,0.9l0.3,0.8l0,0.4l0.4,0.6
					c0.1,0.1,0.2,0.3,0.4,0.6l-0.1,0.3l0.3,0.8c0,0,0,0.1,0,0.1c0,0-0.1,0.1-0.1,0.3c0.1,0.1,0.2,0.2,0.4,0.3l0.3,0.9l0.1,0.8
					c0.1,0.2,0.3,0.4,0.5,0.5L79.4,82c0,0.1,0.2,0.4,0.5,0.7l0.6,0.5l0.1,0.3c0,0,0.1,0,0.2,0c0.1,0,0.2-0.1,0.3-0.1
					c0.1-0.1,0.2-0.1,0.4-0.2l0,0.2l-0.1,0.2l0.1,0.6l0.4,0.2l0,0.4l0,0.4c0,0.1,0.1,0.1,0.2,0.2l0.3,0l0.1,0.2l0.6,0.1l0.2,0.6
					l0.4,0.2l-0.7,0.2l0.4,0.1l0.3,0c0,0,0,0.1,0,0.1c0,0.1,0,0.1,0,0.2c0,0.1,0,0.2,0.1,0.4l0.7,0.4l0.5,1c0,0.1,0.2,0.1,0.4,0.1
					l0.5,0l0.6,0.4l0.3,0c0.1,0.1,0.2,0.1,0.1,0.3l0,0.2l0.5,0l0.2,0.2c0.1,0,0.3-0.2,0.3-0.6c0.1-0.3,0.1-0.6,0.1-0.7
					c0-0.1,0-0.2,0-0.3l-0.3,0l-0.2-0.1l0.3-0.1l0.2-0.5l-0.8-2.2L86.7,85l-0.3-0.6l0-0.3l-0.5-0.4l-0.2-0.8l-0.3-0.1
					c-0.1,0-0.2-0.1-0.3-0.2l0.1-0.5c-0.1,0-0.3-0.1-0.4-0.2l-0.3-1l-0.4-1c-0.1-0.2-0.3-0.4-0.6-0.7l-0.4-0.4l0.1-0.1L83,78.2
					l-0.2-0.4l-0.1,0l-0.1-0.3l0.2-0.1c0.1,0,0.2-0.1,0.3-0.3l-0.4-0.7L82.2,76l0.2-0.2l-0.1-0.2l-0.2-0.3l0-0.8l-0.4-0.3l0.3-0.5
					l-0.3-0.4l0-0.4l-0.1-0.9c0.1,0,0.4,0.1,0.6,0.4l0.5,0.6c0,0,0.1,0,0.1,0.1c0.1,0,0.1,0,0.2,0s0.2,0,0.3,0l0.2,0.3l0.5,0.2
					l0.1,0.3l0.2-0.1l0.3,0.1l0.3,0.2l0,0.1l-0.3,0.1l0.2,0.2l0,0.3l0.5,0.3l0.2,0.5l0.5,0.3l0.2,0l0,0.3l0.4,0.4l0.3,0l0.1,0.2
					l0.5,0.2l-0.1,0.1c0.1,0.1,0.3,0.1,0.6,0.1l0.1,0.5l0.5,0.1c0,0,0,0.1,0,0.1c0,0.1,0,0.1,0,0.2l0,0.2l0.3,0l0.4,0.5l0.6,0.5
					l0.2-0.2l0.2,0.1l0.2,0L90.6,79l-0.1-0.4l0.6-0.2l0,0.6l0.5,0.1L91.4,80c0.3,0.3,0.7,0.4,1.2,0.3c0.3-0.1,0.5,0,0.6,0l-0.1,0.4
					c0,0.1,0,0.2,0,0.3c0,0,0.1,0,0.1-0.1c0.1,0,0.1-0.1,0.2-0.2c0.2-0.3,0.3-0.4,0.4-0.3l0.1,0.2l-0.1,0.3c0.1,0.2,0.1,0.4,0,0.5
					l0.1,0.5l0.8,0.5l0.3,0.4l1.1,0.3c0.2,0.1,0.5,0.3,0.8,0.6l1.3,0.2l0.3-0.1l0.7,0.3c0,0,0.1,0,0.2-0.1c0.1-0.1,0.1-0.2,0.2-0.3
					l0.2-0.2l0.1,0.2c0,0.1,0.1,0.1,0.3,0.1c0.1-0.2,0.2-0.4,0.1-0.6c0-0.2,0-0.4-0.1-0.7l0.8-0.1l0.2-0.3l0.4-0.2l0.3,0.1l-0.2,0.3
					l0.3,0l0.3,0.1l0-0.5c0.1-0.1,0.2-0.2,0.4-0.2c0.1,0,0.2-0.1,0.4-0.2l-0.1-0.6l0.5-0.6l-0.1-0.5l0.1-0.5l-0.2,0
					c-0.1,0-0.1,0-0.2-0.1c0.1,0,0.2-0.1,0.4-0.3l0-0.2l-0.4,0.1c-0.1,0-0.2,0-0.3-0.2c0,0,0.1-0.1,0.1-0.1c0,0,0.1-0.1,0.2-0.1
					l0.3-0.1c0.1-0.2,0.2-0.4,0.2-0.7l0-0.8l-0.3-0.4l0.1-0.3l0.3-0.1l0.3,0.7l0.4,0.5l0.4,0.4l0.1,0.4l0.4,0.8
					c0.1,0.2,0.3,0.3,0.5,0.4l-0.1,0.4l0.4,0.1L106,80l0.4,0.7l0.3,0.4l0.6,0.8l0.6,0.7l0.1,0.6l0.5,0.6l0.6,0.6l0.1,0.4l0.4,0.6
					c0.2,0.2,0.3,0.4,0.4,0.6l0.6,0.5l0.4,0.7c0.2,0.4,0.6,0.8,1.2,1.1l0.1,0.3l0.2,0.3c0.2,0,0.4,0,0.5-0.1c0,0.1,0,0.3,0.1,0.6
					l0.1,0.3l0.4,0.4l0.8,0.5l0.2,0.3l0.8,0.5l0.4,0c0,0,0.1,0,0.2,0.1c0.1,0,0.1,0.1,0.2,0.1l0.4-0.2l0.3-0.2l0.5,0l-0.1-0.4
					c0.1-0.2,0.2-0.3,0.4-0.2l0.1,0.3L118,91c0,0.2-0.1,0.3-0.3,0.4l-0.4,0.3l0.4,0c0.4,0,0.7-0.2,1.1-0.5c0.4-0.3,0.5-0.6,0.4-0.9
					c-0.1-0.2-0.3-0.2-0.5-0.1l-0.7,0.2c0-0.1,0.1-0.3,0.3-0.4c0.2-0.1,0.4-0.2,0.5-0.3c0.1-0.1,0.2-0.1,0.2-0.2l-0.4-0.3
					c0,0,0.1,0,0.2-0.1c0.1,0,0.2,0,0.3,0l0.6,0l0.2,0c0,0-0.1,0-0.1-0.1c-0.1,0-0.2,0-0.4,0c-0.2,0-0.3-0.1-0.5-0.3
					c-0.2-0.2-0.2-0.4-0.1-0.5c0.1-0.1,0.2-0.2,0.4-0.2l1-0.3l0.2-0.1L120,87.3z M101,55.9c0-0.2,0-0.3,0.1-0.4l-0.4-0.2
					c0,0-0.1-0.1-0.2-0.2l-0.2-0.2l-0.2,0.2l-0.1,0.2l-0.1,0.1l0.5,0.4l0.5,0.3l-0.4,0.2l-0.1,0.4c0.2,0.1,0.4,0.1,0.6-0.1
					c0.1-0.2,0.2-0.4,0.2-0.7L101,55.9z M100.7,54l-0.3-0.5l0-0.4l-0.2-0.2l0,0.3l-0.3,0l-0.3,0.3l-0.5,0.1c-0.2,0-0.4,0.1-0.4,0.2
					l0.1,0.4l0.4,0.4c0.3,0.2,0.7,0.2,1.2,0.1c0.1,0,0.2-0.1,0.4-0.3L100.7,54z M71.6,83.5c-0.3,0.4-0.8,0.8-1.5,1.2
					c-0.7,0.4-1.4,0.7-2.1,0.9c-1.1,0.3-2.4,0.4-3.7,0.3c-1.3-0.1-2.7-0.3-4.1-0.6c-1.9-0.5-3.3-1-4.2-1.4c-1.5-0.7-2.7-1.5-3.6-2.4
					l-1-1.1c-0.2-0.2-0.3-0.4-0.3-0.6C51,79.4,51,79.2,51,79.1c-0.1-1.2,0.3-2.6,1.1-4c0.8-1.5,1.7-2.6,2.8-3.3l0.6-0.5
					c0.7-0.5,1.2-0.7,1.4-0.7l0.3,0.3L57,71.4c0,0.1,0,0.3,0,0.5l0.8,0.3l0.5,0.4l0.9,0.2l0.4,0l0.5,0.5l1,0.2l1.1,0.2l0.7,0.4
					l0.9,0.4l0.3-0.2c0.1-0.1,0.2-0.2,0.4-0.1l1.2,0.8c0,0.2-0.1,0.3-0.1,0.4l0.3,0.4l0.2,0l0.3,0.1l0.1,0.3l0.5,0.2
					c0.1,0.1,0.3,0.2,0.4,0.4l0.4,0.4l0.5,0.2c0.2,0.1,0.4,0.2,0.5,0.5l0.3,0.4l0.3,0.1l0.3,0.1l0.7,0.7l0.7,0.7l0.4,0.2l0.1,0.5
					l0.3,0.2c0.1,0.2,0.3,0.5,0.4,0.9C72.3,82.3,72.1,82.9,71.6,83.5 M63.9,71.4l0.2,0.4l-0.5-0.2L63.9,71.4l-0.1-0.3l0.1-0.2
					L63.9,71.4z M74.1,88.1l0.1,0.2l0.2,0l0-0.1c0,0,0-0.1-0.1-0.1L74.1,88.1z M67,91.5c0.1,0.1,0.1,0.2,0.2,0.2c0.1,0,0.2,0,0.3,0
					l-0.2-0.3C67.2,91.4,67.1,91.4,67,91.5 M64.6,71.5c-0.1,0-0.1,0.1-0.2,0.2c0.1-0.1,0.2-0.2,0.3-0.3
					C64.7,71.4,64.7,71.4,64.6,71.5 M65.3,91.8l-0.6-0.1l-0.1,0.1l0.4,0.2l0.7,0.1c0,0,0.1-0.1,0.2-0.2
					C65.8,91.9,65.6,91.8,65.3,91.8 M76.6,80.9l-0.4-0.4l0.1-0.6l-0.5-0.5l-0.5-1.1l-0.5-1l-0.7-0.6l-0.4-0.5
					c-0.1-0.2-0.3-0.3-0.5-0.3l-0.4-0.2c-0.1,0-0.1-0.2-0.2-0.3c0-0.1-0.1-0.2-0.2-0.3l-0.3,0.1L72,74.9l-0.9-0.5l-0.4,0.1
					c-0.1-0.1-0.3-0.3-0.5-0.6l-1.1-0.3c-0.1-0.1-0.4-0.2-0.7-0.5l-0.6-0.1l-0.2-0.2l-0.2-0.2c-0.1,0-0.3-0.1-0.5-0.1
					c-0.2,0-0.4,0-0.7,0.1l-0.6,0.1l-0.3,0c-0.1-0.1-0.2-0.3-0.1-0.5c0-0.3,0.1-0.5,0.2-0.5l-0.4-1l0.1-0.4l0-0.5l-0.4-0.1l-0.2,0
					l-0.5-0.2l-0.4-0.2l-0.6,0.2l-0.1-0.4l-0.4-0.3l-1,0.2l-0.6-0.1l-0.5,0.7L59.5,69c-0.2-0.2-0.5-0.4-0.9-0.5l-1-0.3l-0.7,0.4
					l-0.7,0.1L55.8,69l-0.3,0.1c-0.2-0.1-0.3-0.2-0.3-0.3l0-0.3l-0.3,0.1l0.1,0.5l-0.3,0.2l-0.3,0.2c-0.1,0.1-0.3,0.2-0.6,0.3
					l-0.6,0.2l-0.5,0.1l-0.3,0.4L52,70.8l-0.5,0.1l0,0.7L51,72.4c-0.1,0-0.2,0.1-0.4,0.2l-0.1,0.3l-0.3,0.3
					c-0.2,0.1-0.2,0.3-0.2,0.4L50,73.8L48.8,75c-0.1,0.1-0.1,0.3,0,0.6l-0.1,0.5l-0.4,0.5l0.2,0.7l-0.2,0.6l0.4,0.6l-0.2,1.1
					c-0.1,0.2-0.1,0.5,0,0.7l0.3,0.4l0.1,0.6l0.8,0.7c0.1,0.1,0.2,0.3,0.3,0.8l0.5,0.6l0.7,0.4l0.2-0.2l0.3-0.1l0.8,0.3l0.7,0.3
					c0.1,0,0.2,0.1,0.3,0.3l0.2,0.4l0.7,0.2l0.4,0l0.3,0.4l0.4,0.4l1.4,0.6l1.3,0.7l0.4,0l0.6,0.1c0.2,0,0.4,0.2,0.7,0.7l0.5,0.8
					l0.1,0.7L61,89l0.3-0.1l0.1,0.3l0.1,0.5l0.1,0.2l0.3,0.2l0.4,0.7c0.3,0.2,0.5,0.3,0.6,0.3l0.3-0.2c0.1-0.1,0.2-0.1,0.4-0.2
					l0.4,0.4l0.3,0.3l0.9-0.1l0.2-0.2l0.1,0l0,0.2c0.2,0.1,0.4,0.2,0.7,0.2l0.3,0.5l1.2,0.3l0.2,0l0.2-0.2l0.5-0.1
					c0.1,0,0.3-0.2,0.4-0.4L69,91.4l0.1-0.2l0.2,0.1l0-0.2l0.3-0.2c0,0,0,0,0.1,0c0,0.1,0.1,0.1,0.1,0.2l0.5-0.3
					c0.2-0.2,0.4-0.2,0.6-0.2c0.1,0.1,0.1,0.2,0.1,0.4c0,0.1,0.1,0.2,0.2,0.3l0.1-0.1c0-0.1,0.2-0.1,0.4-0.2l0.8-0.4l0.2-0.3
					l0.8-0.4l0.5-0.4l-0.1-0.4l0.3-0.2l0.3-0.1c0.2-0.1,0.3-0.3,0.4-0.6c0-0.2-0.1-0.4-0.3-0.8c-0.2-0.4-0.3-0.7-0.2-0.8
					c0.1,0,0.1,0,0.3,0.1l0.2,0.2l0.6,0c0.1-0.1,0.1-0.1,0.2-0.2c0.1-0.1,0.1-0.2,0.2-0.3l0.3-0.6l0.4-0.1l0.4-1.3l0.2-1L77,83.1
					l-0.1-0.3l0.2-0.6L77,81.4L76.6,80.9z M65.2,69.8l0,0.2l0.2,0C65.4,70,65.3,69.9,65.2,69.8 M27.9,99.7c0,0,0,0.1,0,0.3l0.3,0.1
					l0.1,0.2l-0.5-0.1l-0.1-0.8l-0.3,0.1l-0.1-0.2l0.3-0.4l0.1,0.2l0.3,0.2l0.3,0.2L27.9,99.7z M27.9,98.5c-0.2-0.1-0.3-0.3-0.3-0.4
					c0.1-0.2,0.2-0.2,0.4-0.1l0.2,0.2L27.9,98.5z M41.5,75.9l0,0.3c-0.1,0-0.2,0-0.3,0c-0.2-0.1-0.3-0.3-0.3-0.4l0.1-0.3l0.2,0
					C41.3,75.5,41.4,75.6,41.5,75.9 M24.4,89.8c0-0.1-0.1-0.1-0.1-0.2l-0.1-0.1c0,0,0,0.1-0.1,0.1c0,0.1-0.1,0.2-0.1,0.4
					c0,0.1,0.1,0.2,0.2,0.4l0.2-0.3l-0.1-0.2l0.2,0C24.5,89.9,24.4,89.9,24.4,89.8 M46.7,73.3l-0.5,0.1l-0.1-0.7l0-0.7l-1.3,0l0-0.3
					c-0.1-0.1-0.2-0.1-0.4-0.1l-0.3-0.1L44,71.2l-0.3,0.3L43,71.5c-0.1,0-0.1,0.1-0.1,0.2l0.3,0l0.2,0.1l-0.2,0.1L43,72.5
					c0,0.2-0.2,0.3-0.3,0.3l-0.1,0.7l-0.4,0.2l-0.4,0.1l0.3,0.2L42,74.2c-0.2,0.1-0.4,0.1-0.7,0L41,74.4l-0.1,0.1l-0.2-0.1l-0.1,0.2
					l-0.3-0.1c-0.1-0.1-0.2-0.1-0.2,0.1c-0.1,0.1-0.1,0.4,0,0.6l-0.2,0.2c-0.1,0-0.1,0.1-0.2,0.3l0.2,0.5l-0.4,0.1l-0.1,0.5
					l-0.2,1.5c0,0.4,0,0.7,0.2,1.1l0.6,0.8l-0.1,0.6c-0.1,0.3-0.1,0.5,0,0.7l0.3,0.4L40,82.4l0.2,0.8l0.1,1l0.4,1l0,1.2l0.2,0.6
					l0.2,0.7l0.3,0.9l0.3,0.8l0,0.8l0.1,0.6l0.2,0.7l0.3,1l-0.1,0.2l0.2,0.7l0.2,0.5l0.1,0.2l0,0.3l0.1,1l0.2,0.7
					c0.1,0.4,0,0.7-0.3,0.7l-0.2-0.3l0.3-0.3c-0.1-0.1-0.2-0.2-0.4-0.2l-0.4-0.2l0-0.7c-0.3-0.2-0.4-0.3-0.5-0.6l-0.2-0.5L41,94.2
					c-0.1-0.1-0.2-0.2-0.2-0.3c0-0.2-0.1-0.3-0.1-0.5l-0.2,0c-0.1,0-0.2-0.1-0.4-0.2l0.2-0.3c0-0.1,0.1-0.2,0.1-0.4
					c-0.1-0.2-0.3-0.2-0.4-0.2l-0.5-0.6l-0.4-0.6L39,90.6c0,0-0.1,0.1-0.2,0.2c0,0-0.1,0-0.1,0c-0.1,0-0.1-0.1-0.3-0.2l-0.2,0
					l-0.2-0.5l0-0.6l0.2-0.2l-0.2-1.1l-0.7-0.2c-0.1,0-0.2-0.1-0.4-0.3l-0.1-0.1l-0.1,0.3l-0.1,0.1c-0.4-0.3-0.6-0.5-0.7-0.6
					l0.1-0.3l0.1-0.2l-0.2,0l-0.7-0.5l-0.1-0.5l0.2,0l0.1-0.2l-0.3,0.1l-0.3-0.3l-0.2,0.1l0.2-0.6c0-0.1-0.1-0.2-0.3-0.3l-0.2,0
					c0-0.1,0-0.3,0.1-0.5l-0.3-0.1L33.8,84c-0.1,0-0.2-0.2-0.4-0.6l-0.2-0.7l0.1-0.4L32.9,82l-0.2-0.1l0.1-0.6l-0.4-0.6l-0.8-0.5
					l-0.5,0.1l-0.3-0.3c-0.1-0.1,0-0.2,0.1-0.4c-0.3-0.2-0.5-0.4-0.6-0.7l-0.1-0.7l-0.3-0.5l0.2-1.1L30,76l0.2-0.9l0-0.7
					c-0.2-0.4-0.4-0.6-0.8-0.6l-0.4,0c-0.2,0-0.3,0.2-0.4,0.5l0.1,0.4l-1.3,0.5l0.1,0.9l-0.2,0.1l0.2,0.4l-0.3-0.1l-0.3,0.2
					l-0.1-0.1l-0.2,0c-0.3,0.3-0.5,0.6-0.4,0.8l0.2,0.1l-0.2,0.4c0.1,0.1,0.2,0.3,0.2,0.5l-0.2,0.1l0.1,0.5L26,79.8l-0.2,0.2
					l0.4,0.4l0.5-0.1l-0.4,0.3L26,80.9l0.4,1L26.1,82l0.1,0.1l0.2,0c0,0.1,0,0.1,0,0.2l0.4,0.2l0.1,0.5l-0.1,0.7
					c0,0.1,0.1,0.2,0.1,0.3l0.3,0l-0.3,0.3l-0.1,0.2c0,0.1,0,0.3,0.1,0.5l0.3,0.2c0,0.3,0,0.6-0.1,0.9l0.2,0l0.2,0
					c0,0.2,0,0.3-0.1,0.4L27.1,87c0,0.2,0,0.5,0.1,0.8l0,0.8l-0.3,0.6l0.3,1.1l0.1,0.5l-0.2,0.2l0.2,0.2l-0.1,0.5l0.1,0.1l0.1,0.1
					c0,0-0.1,0.1-0.1,0.1c0,0-0.1,0.1-0.2,0.1c-0.1,0-0.2,0.1-0.3,0.3l0.4,0.2c0.1,0,0.2,0.1,0.3,0.1l-0.1,1l0.3,0.6l-0.2,0
					c-0.1-0.1-0.2-0.1-0.2,0.1l0.2,0.4L27.3,95l0.1,0.4l0.1,0.4l0.3-0.1c0.2,0.2,0.3,0.4,0.3,0.7l-0.4,0.3l0.4,0.6l-0.6-0.2
					c-0.1,0.1-0.2,0.2-0.3,0.4L27.2,98c-0.2,0-0.3-0.1-0.3-0.3l-0.2-0.6l-0.5-0.2c-0.1-0.1-0.3-0.3-0.3-0.5l-0.6-0.1
					c0-0.1,0-0.1,0.1-0.3l0.3-0.1c0-0.2-0.1-0.5-0.3-0.8c0,0,0-0.1,0-0.1c0,0,0.1-0.1,0.2-0.2l-0.3-0.4l-0.2-0.6l0.2-0.4l0.3-0.1
					l-0.4-0.6l-0.1-0.9l-0.3-0.8l-0.4-0.5l0,0.2L23.9,91c-0.2,0.1-0.3,0.3-0.2,0.4l0.4,0.7L24,92.6l0.2,0.4c0,0.3-0.1,0.7-0.2,1.1
					c-0.1,0.1-0.1,0.5,0.1,1.1l-0.1,0.2l-0.3-0.4l-0.8-1.5L22.4,93l0-0.4l-0.8-0.8c-0.2-0.2-0.5-0.5-0.6-0.8l-0.4-0.6l-0.5-0.8
					c-0.2-0.5-0.5-0.8-0.7-1l-0.7-0.9c-0.4-0.6-0.7-0.7-1-0.5l-0.3,0.1l0.3,0.3l0,0.2L17.6,88l0,0.7c0,0.2-0.1,0.4-0.2,0.7
					c-0.1,0.3-0.1,0.6-0.1,0.7l0.6,1l0.1,0.8c0.2,0.2,0.5,0.3,0.7,0.2l0.1,0c0,0.2,0,0.3-0.1,0.4l0,0.4l0.4,0.3
					c0.1,0.1,0.2,0.4,0.3,0.8l0.3,0.2l0.1,0.7l0.5,0.1c0.1,0,0.2,0.1,0.3,0.2c-0.1,0.1-0.1,0.2-0.2,0.2l-0.3,0.1l0.2,0.6l0.1,0.2
					l0,0.5l0.3,0.7l0.3,0.4l0.4,0.4l-0.1,0.4l0.3,0.7c0.1,0.2,0.2,0.4,0.3,0.7l-0.1,0.3c0,0.1-0.1,0.2-0.1,0.4c0,0,0.1,0,0.1,0.1
					c0,0,0.1,0,0.2,0.1l-0.2,0.3l0.4,0.3l0,0.4l0.1,0.2l0.2,0.1l0.4,0.5c0.1,0.1,0.1,0.3,0.2,0.5l-0.5,0.2c0-0.1,0-0.1,0.1-0.3
					c0.1,0,0.1-0.1,0.1-0.2l-0.2,0l-0.2-0.1l-0.4-0.3l0.1,0.6l-0.1,0.4l0.1,0.3l0.2,0c0.1,0,0.2,0,0.3,0.1l-0.2,0.3l0.1,0.3
					l-0.3,0.5l0.3,0.3l0.1,0.1l0.1,0.6l0.1,0.6l0.8,0.9l0.5,1l0.5,0.7l0.4,0.3l0.4,0.2l0.7-0.5c0.1,0,0.1,0.1,0.2,0.2
					c0.1,0.1,0.1,0.2,0.2,0.4l0.6,0.1c0.2,0,0.3,0.2,0.3,0.4l0.6,0.4l1.5,0.1l0.6-0.1l-0.1-0.4c0-0.1,0.1-0.2,0.2-0.3l0.4,0.1
					l0.2-0.2l0.9-0.4c0.3-0.2,0.6-0.4,0.7-0.5c0.1-0.2,0.2-0.4,0.2-0.6l0-0.6l0.2-1.6c0-0.3,0.1-0.5,0-0.7c0-0.2-0.1-0.5-0.1-0.9
					c-0.1-0.1-0.2-0.2-0.3-0.2l0.1-0.1l0.2-0.3c0.1-0.6,0.1-1.1,0-1.7l-0.2-1.1l-0.2-1.6c0-0.3-0.1-0.7-0.3-1.3l-0.3-1.6l-0.3-2.2
					l-0.2-2.5L31,89.9l-0.3-2.4c0-0.1,0-0.3-0.1-0.6l0-0.6c0.1,0,0.1,0,0.2,0l0.1,0.3l0.1,0.5l0.6,0.8l-0.2,0.5l0.5,0.8l0,0.5
					l0.3,0.6c0,0,0,0.1,0.1,0.1c0.1,0,0.1,0.1,0.2,0.1l0.2,0.4l0.1,0.5l0.7,0.8l0,0.4l0.1,0.4l0.4,0.7l0.4,0.5l0.4,0.8l0.4,0.4
					c0.2,0.2,0.3,0.5,0.4,0.8l0.3,0.7l0.4,0.3l0.3,0.2L37,98l0.4,0.7l0.7,0.8l0.8,0.6c0.1,0,0.2,0.2,0.3,0.5l0.3,0.5l0.3,0.2
					l0.1,0.5l2,1.7l1.1,0.8c0.9,0.5,1.5,0.8,1.9,0.8l0.3,0.2c0.1,0,0.2,0.1,0.4,0.1l0.2-0.2l0.8-0.3l0.2-0.5l0.2-0.1l-0.1-0.4
					l-0.1-0.5c0.1,0.1,0.2,0.3,0.3,0.6c0.1,0.1,0.3,0.1,0.4,0l0.4-0.2l0.5,0l0.2-0.1l0.9,0.1c0.2-0.2,0.3-0.3,0.2-0.5l-0.1-0.3
					l0.4-0.2c0.1,0,0.2-0.1,0.4-0.3l-0.7-0.2l0.1-0.3c0-0.1,0.1-0.2,0.1-0.4l-0.3-0.1l-0.2-0.1l-0.2-0.3l-0.7-0.3l0-0.2l0.1-0.2
					c0,0-0.1,0-0.1-0.1c-0.1,0-0.1,0-0.2,0l-0.1-0.2l-0.4-0.3l0.1-0.6c0,0-0.1-0.1-0.1-0.1c0-0.1-0.1-0.1-0.2-0.1
					c-0.1,0-0.2-0.1-0.3-0.3l0.2-0.3l0.3-0.3l-0.5-0.7l0.1-0.1l0.1-0.2l-0.2,0L47,96.9c0,0-0.1-0.1-0.2-0.2l0.4-0.1
					c0-0.1,0-0.2-0.1-0.3l-0.3-0.2c0.1,0,0.1-0.1,0.1-0.2l-0.1-0.3l0-0.3l0.3-0.1L47,95.1L46.7,95c-0.1-0.2,0-0.4,0.1-0.6l-0.5-1.1
					l0.1-0.1l0-0.2l-0.2,0l0-0.4L46,92.3C46,92,46,91.8,46.1,91.6l-0.2,0l-0.2,0l0.1-0.3l0.3-0.4c0-0.2-0.2-0.4-0.4-0.6l0-0.4
					l-0.2-0.2l0.3-0.2l0.1-0.4l-0.3-0.6l0.2-1.5l-0.1-0.3l-0.2-0.3l0.1-0.5L45,85.5l0.2-0.4l-0.1-0.3l0.2-0.2c0.1,0,0.1-0.2,0.2-0.3
					l-0.3,0c-0.1,0-0.2,0-0.3-0.1c0-0.2,0.1-0.3,0.3-0.4l0.3-0.3l-0.2-0.1l-0.1-0.2l0.4-1c0-0.2-0.1-0.2-0.2-0.2l-0.3-0.1l0.1-0.2
					l0.1-0.2L45,81c-0.1-0.1-0.2-0.2-0.3-0.4l0.3-0.3l0.4-0.6l0.1-0.2c-0.1-0.2-0.3-0.2-0.7-0.2c-0.3,0.1-0.5,0-0.6-0.1l0.5-0.3
					l-0.1-0.2l0.1-0.2l0.2,0.1l0.1,0.1c0.3-0.4,0.3-0.9,0.2-1.3l-0.2-0.1C45,77.1,45,77,45,76.9c0.1-0.1,0.2-0.2,0.4-0.2l0.5-0.2
					l-0.1-0.3l0.2-0.2c0-0.2-0.1-0.3-0.3-0.2l-0.4-0.1c0-0.1,0.2-0.2,0.4-0.3c0.2-0.1,0.3-0.2,0.3-0.3c0-0.1,0.1-0.2,0.1-0.3
					l0.1-0.1L46,74.5c0-0.4,0.1-0.7,0.2-0.8c0.1-0.1,0.3-0.2,0.7-0.2C46.8,73.5,46.8,73.4,46.7,73.3"/>
				<path clip-path="url(#SVGID_4_)" fill="#FFFFFF" d="M161.1,20.3l-0.1,0.2l-0.3-0.2l0.2-0.3l0.2,0L161.1,20.3z M145.6,0.6
					c0,0.1-0.1,0.1-0.1,0.2c0-0.1,0.1-0.2,0.1-0.3C145.7,0.5,145.7,0.6,145.6,0.6 M152.7,24.4c0.1,0.2,0.1,0.3,0.2,0.3
					c0.1,0,0.1-0.1,0.2-0.1c-0.1-0.2-0.1-0.3-0.2-0.3C152.9,24.3,152.8,24.3,152.7,24.4 M151.9,15.3c0,0,0,0.1,0,0.3
					c0.1,0.1,0.2,0,0.3-0.1c0.1-0.1,0.1-0.2,0-0.3S152,15.2,151.9,15.3 M167.4,11c-0.1-0.1-0.2-0.2-0.3-0.3
					c-0.1-0.1-0.2-0.1-0.2-0.2l-0.3,0.2l-0.3-0.1l-0.8,0.4l-0.6,0.4l-0.1,0.2l-0.2,0.3l-0.4-0.3l0.1,0.4c0,0.1-0.1,0.3-0.3,0.4
					c-0.2,0.1-0.4,0.3-0.6,0.4l-0.4-0.1l-0.5,0.2l-0.4,0.3l-0.7,0.7l-1.7,1.2l-1,1c-0.2,0.2-0.5,0.4-1.1,0.7l-0.3,0.4
					c-0.1,0.1-0.2,0.2-0.4,0.3l-0.5,0.3l-1.7,1.2l-0.7,0l-0.4,0.1l-0.1-0.2c-0.3-0.2-0.4-0.4-0.5-0.6L153,18l-0.4-0.3
					c-0.1-0.1-0.2-0.3-0.2-0.5l-0.2,0l0.2-0.5l-0.2-0.5l-0.3-0.1l-0.2,0l-0.3-0.7l-0.2-0.7l0-0.5l-0.3-0.5l-0.2-0.6l0.2-0.7
					c-0.1-0.1-0.1-0.2-0.2-0.3c-0.1-0.1-0.1-0.2-0.2-0.3l-0.3-0.7l-0.4-0.4l0-0.2c0,0,0.1-0.1,0.2-0.2l0-0.7l-0.3-0.5l0-0.6L149.3,8
					l-0.2-0.6L149,6.6l-0.3-0.4l0-0.8l-0.2-0.2L148.3,5L148,4.2L147.6,4l0.1-0.2l0.1-0.2l0.1,0.1l0.1-0.4l-0.1-0.2l-0.1,0.2
					l-0.1,0.2c-0.1,0-0.2,0-0.3-0.2l-0.2,0.3l-0.2-0.1l-0.1-0.4c0-0.1,0.1-0.2,0.1-0.4l0.4,0.1c0.3,0.2,0.5,0.2,0.6,0.1L147.6,2
					l-0.2,0.1l-0.1-1.2L146.8,1l-0.2-0.2L146,1.1l-0.1,0.3l-0.2,0.2l-0.3-0.5l-0.2-0.3l-0.3,0.7c-0.2,0.3-0.4,0.5-0.5,0.9l0,0.3
					l-0.3,0.4l0.1,0.1l-0.3,0.2l0.2,0.6l-0.2,0.2l-0.1,0.6l-0.1,0.3l-0.6,0c-0.2,0-0.3,0.1-0.2,0.2l0.5,0.1l0.2,1.4l0.4,0.3l0.8,1.2
					L145,9l0.3,1l2.8,5.9l0.2,0.8c0,0.2,0,0.5,0.1,0.8l0.3,0.9l0.6,1.1l0.1,0.6l0.1,0.7l0.3,0.4l0.3,0l0,0.8l0.7,2.1
					c0.4,0.7,0.7,1.1,0.9,1.3l0.9,0.4c0.3,0.1,0.5,0.3,0.6,0.4l0.2-0.8c0.1-0.3,0.2-0.3,0.3-0.3l-0.1,0.4l0.3,0.8
					c0.1,0.1,0.3,0,0.5-0.3c0.1-0.1,0.3-0.2,0.6-0.4l0.2,0.1l0.2-0.4l0.4-0.1l0-0.3l0.6,0.1l0.3-0.6l0.6-0.3l0.7-0.5l0.4-0.7
					l0.3-0.1l0.3-0.4l0-0.3l0.2-0.2l0.3-0.3l0.8-0.2l0.1,0.2l0.3-0.1c0.1-0.1,0-0.3-0.1-0.4c-0.1-0.2-0.2-0.3-0.1-0.4l0.3-0.1
					L161,21c0.1,0,0.2-0.1,0.3-0.3l0.1-0.6c0.1-0.1,0.4-0.1,0.7-0.1c0-0.1,0-0.2,0-0.5c0-0.2,0-0.3,0.1-0.4c0.1-0.1,0.2-0.1,0.3,0
					l0.3,0.2l0.1-0.2l0.1-0.2l0.3,0.1l0.4-0.7l0-0.3c0-0.1,0.1-0.2,0.2-0.3l0.4,0.3c0.1,0.1,0.3,0.2,0.5,0.2l0-0.3l0-0.7
					c0-0.1,0.1-0.2,0.2-0.3l0.5-0.3l0.4-0.3l-0.1-0.4c0-0.2,0.1-0.3,0.2-0.3l-0.2-0.5l0.2-0.2c0-0.1,0-0.2,0-0.4l0.2,0l0.2,0.1
					l0.3-0.7c0.1-0.3,0.3-0.6,0.7-0.8l-0.1-0.3l0.2-0.1l0-0.3l-0.1-0.4l0.2-0.5L167.4,11z M120.7,33.3l-0.1-0.2l0.3,0.1L120.7,33.3z
					 M120.1,32.8l-0.2,0.1c-0.2-0.1-0.2-0.3-0.1-0.5l0.1-0.2C120,32.2,120.1,32.5,120.1,32.8 M120.5,32c0,0.1,0,0.2,0,0.2l-0.2,0.2
					c-0.1-0.1-0.1-0.2,0-0.3c0-0.1,0.1-0.2,0.2-0.3C120.5,31.8,120.5,31.9,120.5,32 M132.2,33.5l-0.1,0.1l0-0.3L132.2,33.5z
					 M137.8,32.8l-0.1,0.4c-0.1,0-0.2-0.1-0.4-0.2c0-0.2,0.1-0.3,0.4-0.4l0.4,0L137.8,32.8z M120.6,9.8c-0.1,0.3-0.3,0.4-0.5,0.2
					L120,9.7c0-0.1,0.1-0.2,0.1-0.3l0.2,0l0.1-0.2l0.2,0C120.7,9.3,120.7,9.5,120.6,9.8 M138.1,18.2l-0.4,0.1l-0.2-0.1
					c0.1-0.1,0.1-0.2,0.2-0.2l0.4-0.2l0.1,0.2C138.3,18.1,138.3,18.2,138.1,18.2 M123.1,8.4c0,0.1-0.1,0.1-0.2,0.2l0-0.2l0.2-0.1
					l0-0.3C123.1,8.1,123.1,8.3,123.1,8.4 M128.2,7.7c0,0.1,0,0.2-0.1,0.2L128,8.4l0.1,0.4c0,0.1-0.1,0.1-0.2,0.1l-0.1-0.4l0.1-0.9
					l0-0.4l0.1,0.1l0.3,0.1C128.2,7.5,128.2,7.6,128.2,7.7 M134.8,5.6l-0.1,0.3l-0.5-0.4l0.3-0.3L134.8,5.6z M136.7,5.7l0,0.7
					l0.2-0.3c0.1-0.1,0-0.2-0.1-0.3L136.7,5.7z M131.4,3.4l0.1,0l0-0.1L131.4,3.4z M122.9,6.3l0,0.2l0.1-0.2L122.9,6.3z M122,9.2
					c0,0.1,0,0.1,0.1,0.2C122.1,9.3,122.1,9.2,122,9.2 M131.2,5.5l0.1-0.1l-0.1-0.1L131.2,5.5z M144.5,30.3c0,0,0-0.1-0.1-0.1
					c0,0.1,0,0.2,0.1,0.3C144.5,30.4,144.5,30.3,144.5,30.3 M149.6,24.9l0,0.2l0.2,0l-0.1-0.2L149.6,24.9z M113.1,17.4l0,0.2
					l0.1-0.3L113.1,17.4z M115,14.9l0.1,0.2l0.1-0.1l0-0.2L115,14.9z M121.1,9.7l0.2-0.1l-0.1-0.3L121.1,9.7z M133.7,34.7l0,0.2
					l0.2,0l-0.1-0.2L133.7,34.7z M121.6,8.6l0,0.2l0.2-0.1c0-0.1,0-0.1-0.1-0.2C121.8,8.5,121.7,8.6,121.6,8.6 M115.2,28.3
					c0,0.1,0.1,0.1,0.1,0.3l0.2-0.1l-0.1-0.3L115.2,28.3z M132.9,4.9l0.2,0.2l0.2-0.1L132.9,4.9z M127.1,34.6c0,0.1,0.1,0.2,0.1,0.3
					c0.1,0.1,0.2,0,0.3-0.1c0-0.1-0.1-0.2-0.1-0.3C127.3,34.6,127.2,34.6,127.1,34.6 M112.2,26.6c0,0.1,0,0.1,0.1,0.2l0.2-0.1
					c0-0.1,0-0.1,0-0.2C112.3,26.5,112.2,26.6,112.2,26.6 M130,4.5c0,0.1,0,0.1,0.1,0.2c0.1,0,0.1,0,0.2,0c0,0,0-0.1,0-0.3
					C130.1,4.4,130,4.4,130,4.5 M112.5,22l0.2,0.3l0.2-0.1c0-0.2,0-0.2-0.2-0.2L112.5,22z M128.8,35.4l0.1,0.3l0.1-0.2l-0.1-0.3
					L128.8,35.4z M127.7,6.9c0,0.1,0.1,0.1,0.2,0.1c0.2-0.1,0.2-0.2,0.1-0.3l-0.2-0.1C127.8,6.6,127.8,6.7,127.7,6.9 M129.6,35.4
					l0.1,0.2l0.2-0.2l-0.1-0.2L129.6,35.4z M127.2,8.4l0.1,0.3l0-0.3l-0.2-0.4L127.2,8.4z M132.8,6l0.1,0.3l0.1-0.5L132.8,6z
					 M125.9,35.1c0,0.2,0,0.3,0.1,0.4l0.2-0.2c0-0.1,0-0.2-0.1-0.4C126,34.9,125.9,35,125.9,35.1 M149.3,24.9c-0.1,0-0.2,0-0.4,0.1
					l-0.4,0.2l-0.4,0.2l-0.7,0.7l-1,0.6l-0.5,0.1l-0.5,0.5c-0.2,0.1-0.4,0.2-0.6,0.2l-0.6,0.2l-1.2,0.4l-1,0.4l-2.6,0.6l-2.5,0.6
					l-1.7,0.3l-2.7,0.1c-0.6,0-1.1,0-1.7,0c-0.6,0-1.1,0-1.7-0.1c-1.2-0.1-2.4-0.3-3.4-0.6l-0.6,0l-1.6-0.5
					c-0.8-0.3-1.4-0.5-1.6-0.6l-1.1-0.8c-0.8-0.6-1.4-1.3-1.8-2.1l-0.7-0.9c0-0.3,0-0.5,0.2-0.7c0,0,0.1-0.1,0.2-0.2l0.4-0.1
					l0.3-0.4l0.8-0.3l1.3-0.2l0.6,0.1c0,0,0-0.1,0.1-0.1c0-0.1,0-0.1,0-0.2c0-0.1,0.1-0.2,0.1-0.3l0.3,0.2l0.4-0.1l0.2-0.1l1-0.4
					l0.7,0l0.6,0l0.8-0.3l0.5,0l0.4,0.2l0.3-0.3l1-0.4l0.3,0l0.4,0.1l0.6-0.4l1.2-0.3l0.6,0.1l0.7-0.2l0.8,0.1c0.1,0,0.2,0,0.4,0
					c0.2,0,0.3-0.1,0.4-0.3l0.3-0.4l0.8,0l0.4-0.2l0.1,0.2l0.4-0.1l0.4,0.2l1.2-0.4l0.6,0l0.7-0.4l0.5-0.1l0.6-0.2
					c0.1-0.1,0.2-0.2,0.1-0.5l0-0.5l0.2,0l0.1-0.6l0.3-0.1l0.2-0.7c0,0,0.1,0,0.2,0c0.1,0,0.2,0,0.2,0c0-0.1-0.1-0.2-0.3-0.3
					c-0.2-0.1-0.2-0.3-0.2-0.4l0.3,0.1l0.2,0.1l1.7-0.5c0.1,0,0.1,0,0.2,0.1c0.1,0.1,0.2,0.2,0.4,0.2c0.1-0.1,0.1-0.1,0.2-0.2
					c0.1-0.1,0.1-0.2,0.2-0.3l0.1-0.2l-0.1-0.6l-0.4-0.4l-0.1-0.1l0.2-0.6c0,0,0-0.1,0-0.3l-0.2,0l-0.1-0.4l-0.2-0.3l-0.5-0.1
					c-0.4-0.1-0.8-0.1-1.4,0l-0.5,0.1l-0.3,0l-0.3,0.2l-0.3,0l-0.5,0l-0.1,0.1l-0.2,0.3c-0.2,0.1-0.6,0.2-1.1,0.1l-1-0.1l-0.2,0.2
					l-0.2-0.1l-0.6,0l-0.3,0l-0.2-0.1l-0.2,0.1l-0.2,0.3l-0.5,0l-0.5,0.1l-0.2,0.1l-2.4,0.3c-0.2,0-0.5,0-0.9,0.1
					c-0.4,0.1-0.7,0.2-1.1,0.3l-0.9,0.3l-0.5,0.1l-0.5-0.1l-0.1,0.2l-0.2,0l-0.9,0.1l-0.8,0.1l-0.9,0.2l-1,0.2l-0.8,0.4l-0.8,0.4
					l-0.5,0l-0.6,0.3c-0.3,0.2-0.5,0.2-0.7,0.2l-0.5,0.3l-0.8,0.1l-0.2,0l0.1-0.4l-0.1-0.3l0.5-0.7l-0.1-0.5l0-0.4l0.3-0.2l0.6-0.6
					l0.4-0.7l0.8-1.2l0.5-0.3l0.5-0.8l0.3-0.1l0.2,0l0.6-0.5l0.5-0.4l0.8-0.3l0.3,0.2c0.2-0.1,0.4-0.3,0.6-0.8
					c0.1-0.1,0.2-0.3,0.4-0.5c0,0,0.1-0.1,0.1-0.2c0.1,0,0.2,0.1,0.3,0.3l0.1,0.4l0.1,0.2c0.1-0.1,0.2-0.1,0.2-0.2l0.2-0.2l0.3,0.4
					c0.2,0.1,0.4,0.2,0.6,0.1l0.7-0.2l0.2-0.1l0.5,0.1l0.5,0.3l0.5-0.3l0.1,0.2c0,0.1,0.1,0.1,0.2,0.1l0.3-0.2l0.4,0.3l0.1-0.1
					c0.1,0.1,0.2,0.2,0.1,0.5l0.1,0c0,0,0.1,0,0.1-0.1c0-0.1,0.1-0.1,0.2-0.1l0.1,0.4c0.1,0.2,0.3,0.3,0.5,0.3l0.1-0.5
					c0-0.1,0.1-0.1,0.2-0.2c0.1,0,0.2,0.2,0.2,0.5c0,0.3,0.1,0.5,0.2,0.6c0.1,0.1,0.3,0.3,0.5,0.6l0.5,0.1l0.5,0.1l0.1,0.4l0.3,0.1
					c0,0,0.1,0.1,0.1,0.2l-0.1,0.2l0.1,0.1l0.8-0.3c0.3-0.3,0.5-0.5,0.4-0.7l-0.1-0.1l-0.1-0.2l0.4-0.8l-0.1-0.5
					c-0.1-0.2,0-0.4,0.1-0.5c0.1-0.1,0.3-0.3,0.6-0.4c0.1-0.1,0.2-0.2,0.3-0.3c0.1-0.1,0.2-0.3,0.3-0.4l0.5,0.2l0.2-0.2l0.4,0.1
					l0.2-0.2l0.3,0.2c0.2,0.1,0.3,0.1,0.3,0c0.1-0.1,0-0.3-0.1-0.4l-0.4-0.5l-0.2-0.7L139,6.5l-0.4-0.3l-0.1-0.4l-0.5-0.3l-0.1-0.1
					l-0.3,0.1c-0.1,0-0.1-0.2-0.2-0.5c-0.1-0.3-0.2-0.4-0.3-0.5l-0.8-0.3c0,0-0.1-0.1-0.1-0.1c0-0.1-0.1-0.1-0.1-0.2L135,3.8
					l-0.8-0.3l-0.4-0.2l-0.3,0.3c-0.1,0.1-0.2,0.1-0.3,0.2c0-0.1,0-0.3-0.1-0.6L133,3.5l-0.4,0.6l-0.2,0.5c0,0-0.1-0.1-0.1-0.1
					c0,0,0-0.1-0.1-0.1c0-0.1-0.1-0.2-0.3-0.2l-0.1,0.3l0.2,0.2l-0.4,0.2c0,0.1,0,0.3,0,0.5c-0.1,0-0.2,0.1-0.3,0.2l0.1,0.2l0.3,0
					l0.1,0.4l0.2,0.1l0.1,0.2l0,0.2L132,6.8l-0.2-0.2l-0.3,0.1l-0.2,0L131,6.5l-0.3,0.4c-0.2,0.1-0.4,0.1-0.5,0l-0.5-0.3
					c-0.1,0-0.2-0.1-0.5-0.1l-0.1,0.2c0,0-0.1,0.1-0.2,0.1c-0.2-0.1-0.2-0.2-0.1-0.4l0.3-0.3l-0.3,0.1l-0.1-0.2l-1.1,0.3
					c0,0-0.1-0.1-0.1-0.1c0,0-0.1-0.1-0.1-0.2c0-0.1-0.1-0.1-0.3-0.2L127,6l-0.1,0.2l-0.2-0.1c0,0-0.1,0.1-0.3,0.2l-0.3,0.1
					c-0.1,0-0.1,0-0.2-0.1l-0.1-0.3c-0.1-0.1-0.3-0.2-0.7-0.2c-0.3,0-0.5,0-0.6,0.1c0,0.1,0.1,0.1,0.1,0.2c0,0.1,0.1,0.1,0.1,0.2
					l0.4,0.2l0.1,0.5c0,0.1-0.1,0.2-0.2,0.3l-0.2-0.3l-0.2-0.2l-0.2,0.2l-0.4-0.1c0-0.1-0.1-0.1-0.1-0.2c0-0.1,0.2-0.1,0.4-0.2
					l-0.3,0l-0.1-0.3l-0.1-0.2c-0.1,0.1-0.2,0.2-0.1,0.4l0.3,0.7l0.3,0.7l-0.3,0.4l0.3,0.2l-0.3,0.1l-0.3,0.1c0,0-0.1,0-0.1-0.1
					c-0.1,0-0.1-0.1-0.1-0.1l-0.1-0.5l0-0.5l-0.1-0.1L123,7l-0.2-0.4l-0.3-0.2l-0.3,0.2l-0.5-0.1L121.5,7l-0.4,0.1L121,7.4
					c-0.2,0-0.4,0-0.4,0L120,7.7L119.8,8l-0.4,0.1c0,0.1,0,0.2,0,0.4c0,0.1-0.2,0.1-0.4,0.2l-0.3,0.2l-0.1,0.5
					c-0.1,0-0.2-0.1-0.3-0.1c-0.1,0.2-0.4,0.4-0.7,0.6l0,0.5c0,0.1-0.3,0.2-0.7,0.4l-0.1,0.6c-0.1,0.1-0.2,0.1-0.3,0.1
					c-0.1,0-0.2,0-0.3,0c-0.1,0.2-0.1,0.5-0.1,0.8l0.1,0.1l0,0.2c0,0.1-0.2,0.1-0.5,0.2c-0.1,0.1,0,0.3,0.1,0.5l0.3,0.3l-0.9,0.8
					l0.5,0.7l-0.2,0.3l-0.2,0.2c0,0.2,0,0.4,0.2,0.6c-0.1,0-0.1,0.1-0.3,0.1l-0.2-0.5l-0.3,0c-0.1,0-0.2,0-0.3,0l0.2-0.4l-0.1-0.3
					l-0.2-0.1l-0.1,0.3l0,0.6l-0.1,0.4l0.2,0.1l0.1,0.2c0,0-0.1,0.1-0.1,0.1c-0.1,0-0.2,0.1-0.4,0.1c-0.1,0-0.3,0.2-0.4,0.4l0.1,0.2
					l0.2-0.1l-0.1,0.3l0.2,0.4c0,0.2-0.2,0.3-0.5,0.2l-0.5-0.1c-0.1,0-0.1,0.1-0.1,0.3l-0.1,0.4c-0.1,0.1-0.2,0.3-0.2,0.5l-0.2,0.5
					l-0.4,0.5l0.5,0.4L112,21l0.1,0.4l-0.2,1l0.2,0.2l0.2,0.2l-0.7,0.5l-0.3,0l0.2,0.3l0.4,0.7c0.3,0.3,0.4,0.5,0.5,0.7l0.1,0.8
					l-0.1,0.3l0.4,0.8l0.1,0.4l-0.3,0.1l0.2,0.6l-0.3,0.3l0.1,0.4l0.3,0.2l0.3,0.4c0.1,0.1,0.2,0.1,0.4,0.2l0.1-0.2l0.2-0.1
					c0.1,0.1,0.2,0.2,0.2,0.5l0.2,0.6l0.3-0.2c0.1,0,0.1,0.2,0.2,0.5l0.2,0.7l0.5,0.1l0.4,0.6l0.7,0.1c0,0,0,0.1,0,0.1
					c0,0.1,0,0.1,0,0.2c0,0.1,0,0.2,0,0.3c0.1,0,0.3,0,0.6-0.1l0.1,0.3l0.4,0.4l0.3,0l0.1,0.3c0.1,0,0.1-0.1,0.2-0.1l0.1-0.3
					l0.2,0.2l0.2,0.2l0.5-0.1l0.2,0.2l0.7,0.1l0,0.2l-0.2,0.2l0.7-0.1c0.2,0,0.4,0.1,0.4,0.3l0.4,0.2l0.4,0.5c0.2,0,0.4,0.1,0.7,0
					c0.1,0.2,0.1,0.3,0.1,0.5c0.2,0,0.3-0.1,0.4-0.3c0.1-0.2,0.2-0.3,0.5-0.5c0.2,0,0.4,0.1,0.6,0.2l0.1,0.6l0.6-0.4l0.4,0.1
					l0.3-0.1l-0.1-0.3l0.2-0.2l0.3-0.2c0,0.1,0.1,0.1,0.3,0.2l0.3-0.1c0.2,0,0.3,0,0.3,0.1l0,0.4c0,0.2,0,0.3,0.2,0.4
					c0.1,0,0.2-0.1,0.2-0.1l0.2-0.3c0.1,0,0.2,0.1,0.3,0.3c0.1,0,0.3,0.1,0.7,0l0,0.3l0.5,0.2c0.3-0.1,0.4-0.2,0.5-0.5
					c0.1-0.3,0.2-0.6,0.3-0.9c0-0.1,0.1-0.2,0.1-0.3l0.2,0.1l0.1,0.3l0.4,0.1l0.2,0.2c0.1,0.2,0.3,0.2,0.6,0.2L132,35l0.1-0.5l0.3,0
					l0.1-0.3l0.2,0.8c0,0.1,0.1,0.2,0.3,0.3c0.2-0.1,0.3-0.2,0.3-0.3l0.1-0.3l0.1,0.3l0.7-0.2l0.6,0l0.1-0.3l0.7-0.3l0.6-0.1
					l0.3-0.3l0.3-0.3l0.6,0l0.4,0.1c0.1-0.1,0.2-0.2,0.3-0.4l0-0.3c0.1,0,0.2,0.1,0.3,0.1l0.4,0.2l0.7,0l0.2,0.3l0.4-0.2l0.5-0.3
					l0.8-0.2l0.4-0.2l0.2-0.4c0-0.1,0.1-0.2,0.2-0.3c0,0,0,0,0.1,0c0.1,0.1,0.1,0.2,0.1,0.3l0.2-0.1l0.2,0c0.1-0.1,0-0.3-0.2-0.5
					c-0.1-0.1-0.2-0.3-0.3-0.4c0.2-0.1,0.4-0.1,0.6,0.3l0.2,0.1c0-0.1,0-0.3-0.1-0.4c0-0.1,0-0.2,0-0.4c0.2-0.1,0.3-0.1,0.5,0.1
					c0.2,0.2,0.3,0.3,0.5,0.1l0.3-0.4l0.5-0.1l0.6-1.3l0.5,0l0-0.2l0.2,0l-0.1-0.4c0.1-0.1,0.3-0.2,0.7-0.2l0.2-0.4l0.3-0.4l0.4-0.2
					l0.2-0.2L148,27c0.1-0.1,0.3-0.2,0.6-0.4l0-0.3l0.3-0.2l0-0.2l0.4-0.4C149.3,25.3,149.4,25.2,149.3,24.9
					C149.4,25,149.3,24.9,149.3,24.9 M128.3,5.3c-0.1,0.1-0.2,0.1-0.3,0.2l0,0.3l0.2-0.2l0.4-0.3l-0.1-0.2
					C128.5,5.2,128.4,5.2,128.3,5.3 M129,5.4l-0.1,0.3c0.1,0.1,0.3,0,0.5-0.3l0-0.2C129.3,5.2,129.1,5.2,129,5.4 M129.5,5l0.1,0.5
					l0-0.4l0.1-0.3L129.5,5z M137.5,1.7c-0.1-0.1-0.3-0.2-0.3-0.3c-0.1-0.1-0.2-0.2-0.4-0.3l-0.3,0.4c0,0.1-0.2,0.1-0.4,0.2l0,1.1
					l0.4,0.2l0.1,0.2l0.2,0.2l0.7,0.1c0.2,0,0.3-0.1,0.3-0.4l0-0.8l0.2-0.1l0-0.3L137.5,1.7z M101.8,41.1l0,0.1l0.2-0.2L101.8,41.1z
					 M95.9,21.1c0-0.1-0.1-0.1-0.1-0.2L95.6,21l0.1,0.2C95.8,21.2,95.9,21.2,95.9,21.1 M88.6,51.1l0,0.1c0.2,0,0.3-0.1,0.3-0.2
					L88.6,51.1z M90,50.7l0.1,0.2l0.2-0.1c0,0,0-0.1,0-0.2L90,50.7z M85.3,24.7c0.1,0,0.1,0,0.2-0.1l0-0.2c-0.1,0-0.2,0-0.3,0.1
					l0,0.2C85.2,24.7,85.2,24.7,85.3,24.7 M107.5,33.5l0.2-0.1c0-0.1,0-0.1-0.1-0.2l-0.3,0.2l-0.1,0.1L107.5,33.5z M87.7,24.7
					c0-0.1,0-0.2,0-0.3c-0.1-0.1-0.2,0-0.3,0.1c0,0,0,0.1,0,0.3C87.5,24.8,87.6,24.7,87.7,24.7 M107.8,33.3l0,0.2
					c0.2,0.1,0.3,0.1,0.4,0c0-0.1,0.1-0.2,0-0.2C108.2,33.1,108,33.2,107.8,33.3 M106.7,35.6L107,35c0,0-0.1,0-0.1-0.1
					c-0.1,0-0.1,0-0.2,0c-0.1,0-0.1,0.1-0.1,0.2l0.2,0.2L106.7,35.6z M85.1,26.2c-0.2,0-0.3,0-0.4,0.2c-0.1,0.2-0.1,0.3,0,0.4
					c0.2,0,0.3-0.1,0.4-0.2C85.2,26.4,85.2,26.3,85.1,26.2 M86.9,24.6c0-0.3,0-0.5-0.2-0.6l-0.2,0.2l-0.2,0.1l0.2,0.4l0,0.3
					L86.9,24.6z M86,24.7l-0.2-0.4l-0.2,0.2l0.2,0.1l-0.1,0.4l0.1,0.3l0.3,0.4l0,0.3l0.2-0.2l0.2-0.3c-0.1-0.1-0.2-0.3-0.4-0.5
					L86,24.7z M84.7,19.4l0.6,0l0.6-0.3l1.2-0.1c0.5,0,0.8,0,1.1-0.1l0.7-0.3l1.2,0.1c0.1,0,0.2,0,0.4,0l0.3,0l-0.1,0.2
					c-0.1,0.2-0.3,0.4-0.6,0.5L90,19.9c-0.1,0.2-0.3,0.3-0.6,0.4l-0.5,0.2l-0.5,0.4l0.1,0.2l-0.2,0L88,21.4l-0.2,0.3
					c0,0.1-0.3,0.2-0.6,0.3L87,22.4l-0.8,0.5c0,0.1,0,0.2,0,0.4l-0.6,0.3c-0.3,0.1-0.5,0.2-0.6,0.3l-0.4,0.6c0,0.1,0,0.3,0,0.5
					l-0.2,0.3l0.2,0.1c0,0.3-0.1,0.4-0.4,0.4l-0.2-0.4l-0.4-0.2c-0.1,0-0.3-0.5-0.7-1.5l-0.9-1.8l-0.5-0.6l-0.3-0.5
					c0-0.3,0-0.5,0.3-0.5l0.7-0.2l0.3-0.2c0.7,0.1,1.3,0.1,1.9-0.2L84.7,19.4z M83,13.9L81.9,14L81,14.3l-1.5,0.5l-0.6,0l-1.2,0.4
					l-1,0.4l-0.1,0.4l-0.5,0.6l-0.3,0l-0.4-0.4l-0.1,0.2l-0.3-0.1l-0.9,0.2L73.5,17c-0.3,0.2-0.4,0.4-0.5,0.6l-0.1,0.9l0.1,0.3
					l-0.7,0.6l0.1,0.4L72.2,20l0.2,0.4l0.1,1l0.2,0.5c0.2,0.2,0.4,0.2,0.6,0.2l0.8-0.3l0.4,0.1c0.2-0.1,0.4-0.2,0.7-0.3l0.8-0.2
					l1.3-0.4l0.4-0.1c0.4-0.1,0.7-0.1,0.8,0c0,0,0,0.1,0,0.2c0,0.1,0,0.2-0.1,0.2l0.1,0.4c-0.2,0.4-0.4,0.9-0.5,1.6
					c-0.1,0.3-0.1,0.6-0.1,0.8c0,0.2,0,0.4,0.1,0.5l1.4,1.3l0.4,0.4l0.1,0.4l0.4,0l0.4,0.1l-0.1,0.7l-0.2,0.7l-0.3,0.3l-0.2,0.2
					l0.6,0c0.1,0,0.2,0.1,0.3,0.2l-0.4,0.4c-0.1,0.2-0.1,0.5,0,1l0.3,1l0.1,0l0.1-0.2l-0.1-0.3c0.2,0,0.3,0,0.4,0.1l0.2,0.2
					l-0.3,0.4L80.6,32l0.1,0.3l0,0.5c0.1,0.2,0.3,0.4,0.7,0.6c0.2,0.1,0.4,0.2,0.8,0.2c0.4,0,0.6,0.1,0.8,0.2
					c0.2,0.1,0.3,0.3,0.4,0.5l0.1,0.8l0.3,0.6c0.1,0.3,0.1,0.6,0.1,0.8l0.3,1.1l0.4,1l0.2,1.1c0.3,0.5,0.6,0.8,0.9,1.1l0.8,1
					l0.1,0.5c0.2,0.3,0.6,0.7,1,0.9c0.4,0.3,0.7,0.4,1,0.3l0.3-0.4c0.1-0.1,0.3-0.2,0.5-0.3l0.5-0.1c0.3,0,0.6,0.1,1,0.3l0.7,0.2
					c0.1,0,0.2-0.1,0.3-0.2l0.1-0.5l0.4-0.4c0.1-0.3,0.1-0.6,0.1-0.7c-0.1-0.2-0.2-0.5-0.5-0.9L90.9,39c-0.1-0.2-0.2-0.5-0.3-0.8
					l-0.4-0.7c-0.2-0.2-0.4-0.4-0.8-0.6l-0.1-0.7l-0.4-0.9l-0.5-0.9l-0.2-0.2L87.9,34l-0.2-0.3c0-0.3,0-0.5,0.1-0.6l-0.2-0.4l0-0.2
					l0.6-0.4c0.3-0.3,0.6-0.5,1-0.6l1.2-0.5l0.4,0c0.1-0.1,0.1-0.2,0-0.3c0-0.1-0.1-0.1-0.1-0.3c0.2-0.1,0.3-0.1,0.5,0l0.5,0.2
					l0.6-0.4l0.8-0.2l0.3,0.3l0.6,0.2l0.5-0.2l0.8,0.2l1.4-0.4l0.4,0.2c0.1,0,0.2,0.1,0.4,0.1l0.8-0.3l0.8-0.4
					c0.1,0,0.2,0.1,0.3,0.2l0.1,0.2c0,0,0.1,0,0.3,0l0.7-0.3l0.3,0.1l0.3,0.1l0.3-0.2l0.3,0.3c0,0.1,0.1,0.1,0.3,0.1l0.7-0.1
					l0.7-0.1l0.1-0.4l0.1-0.2c0.3-0.1,0.5,0,0.6,0.2l0.2,0.4l0.6,0c0.3,0.1,0.5,0.2,0.6,0.4c0.2,0.2,0.3,0.4,0.3,0.6l-0.6,0.9
					c-0.2,0.5-0.6,1.1-1,1.6l-1.1,1.4l-3.9,4.7c-0.1,0.1-0.3,0.2-0.5,0.4L98,41l-1.1,0.7l-3,2.8L93.1,45l-0.8,0.5l-0.5,0.1l-0.7,1
					L90.9,47l-1.1,0.7c-0.4,0.3-0.6,0.5-0.6,0.7l0.2,0.4L89,49.2l-0.3,0.4c0.2,0.1,0.3,0.2,0.4,0.2l0.5,0l0.3-0.2l0.2,0l0,0.1
					c0,0,0,0.1,0,0.1l0.3-0.1c0.3,0,0.5,0,0.6,0.1c0.1,0.1,0.2,0.1,0.4,0c0.1,0,0.3,0.1,0.5,0.2c0,0.1,0,0.3-0.1,0.4l-0.5,0.3
					c-0.1,0.1-0.2,0.2-0.4,0.2l-0.3,0L90,51.3l-0.5-0.1c-0.4,0.1-0.7,0.2-0.9,0.4c-0.1,0.1,0,0.3,0.2,0.6l0.4,0.4
					c0,0.2,0,0.4,0.1,0.7c0.1,0.3,0.3,0.5,0.3,0.5l0.3-0.1l0.2,0.1l0.2,0.1c0.3-0.1,0.5-0.3,0.8-0.7l0.6-0.6l0.4-0.3l-0.2-0.1
					l-0.2-0.3l0.5-0.7l1-0.3l0.2,0.3l0.3,0.1l0-0.2c0.4-0.2,0.7-0.6,0.9-0.9l0.7-0.3c0.3-0.1,0.4-0.2,0.5-0.3l0.5-0.5
					c0.2-0.2,0.3-0.6,0.2-1.1l0.2-0.2l-0.1-0.4l0.2-0.6l0.4-0.4c0.1-0.1,0.2-0.2,0.4-0.3l0.1-0.3l0.7-0.8l0.3,0l0.2,0l0.5-0.4l0-0.3
					l0.6-0.3l-0.1-0.3l0.2-0.4l0.4-0.2l0.5-0.1l0.2-0.3l0.1-0.2l-0.1,0l0-0.2l0.6-0.2l0.2-0.3c0.1-0.1,0.2-0.2,0.4-0.2l-0.2-0.1
					l0-0.2l0.4-0.2L102,41l0.4-0.2l1-1L104,39l0-0.4l-0.1-0.4l0.4-0.6l0.4-0.4l0.4-0.3l0.1,0.3l0.2,0l0-0.4l0.3-0.1
					c0.1,0,0.2-0.1,0.3-0.2l-0.2-0.3c0.1,0,0.1-0.1,0.2,0l0.2,0.2l0.1-0.1l0.3-0.1l0-0.2l0.4,0l0.5-0.2l0.4-0.3
					c-0.1-0.1-0.2-0.2-0.3-0.2c-0.1,0-0.1-0.1-0.2-0.3c0.1-0.2,0.3-0.4,0.6-0.5c0.4-0.2,0.6-0.3,0.7-0.4l-0.1-0.4l0.2-0.4l0.3-0.5
					l0.7-0.5c0.2-0.2,0.4-0.5,0.6-1l-0.2-0.3l0.1-0.4c0-0.2-0.2-0.4-0.4-0.6l0-0.5l0.2-0.2l-0.2-0.9l0.1-0.7l-0.4-0.4l0.3-0.4
					l-0.3-0.4l-0.1-0.6l-0.3-0.4c-0.1,0-0.2-0.1-0.4-0.2l-0.4-0.1l-0.3-0.1l-0.2-0.2l-1.3-0.2c-0.1,0-0.3,0-0.5,0l-0.4,0.1
					c-0.8-0.2-1.5-0.2-2-0.2c-0.5,0-1.3,0.2-2.2,0.4l-0.9,0l-0.8,0L98.3,25l-2,0.4l-1.4,0.3l-1.1,0.2l-1,0.1l-0.3-0.4l-0.3,0
					c0-0.2,0.1-0.4,0.5-0.7l0.4-0.4l-0.3-0.3l0.7-0.3c0.4-0.2,0.8-0.5,1.1-0.7l0.3-0.1c0.1-0.1,0-0.2-0.2-0.4l0.1-0.3
					c0,0-0.1-0.1-0.2-0.2C94.9,22,95,22,95,22c0.1,0.1,0.2,0.2,0.4,0.2l0-0.2l0-0.3c0.1-0.2,0.3-0.3,0.4-0.3l0.6,0
					c0.1-0.1,0.2-0.1,0.4-0.3c0.2-0.1,0.3-0.2,0.4-0.4c0.1-0.1,0.1-0.4,0.1-0.7l0.2-0.3l0.1-0.3l-0.2-0.1l-0.2-0.1l-0.3-0.6l0.1-0.4
					L96.7,18l-0.2-0.2l0.1-0.3c0-0.1,0-0.2,0-0.4l-0.4,0.2l-0.3,0.2l-0.1-0.3l-0.2-0.3c0-0.1,0.1-0.1,0.2-0.2l0.4,0l0-0.2l-0.1-0.4
					l0.3,0.1c0.2,0,0.4,0,0.6-0.2L97,15.8c-0.3-0.2-0.4-0.3-0.3-0.4l0.7-0.4l0.3-0.4l-0.2-0.8l0-0.4l-0.3-0.1L96.9,13l-0.3,0
					l-0.5,0.1l-0.8-0.4c-0.3-0.1-0.5-0.1-0.8,0l-0.7,0.1l-2.3-0.3l-0.9,0.1l-0.8,0.2l-2.7,0.1l-0.6,0.2L86,13.2l-1,0l-0.3,0.2
					L83,13.9z M51.4,51.9l-0.1-0.2l0.3,0.1L51.4,51.9z M50.8,51.4l-0.2,0.1c-0.2-0.1-0.2-0.3-0.1-0.5l0.1-0.2
					C50.7,50.8,50.8,51,50.8,51.4 M51.2,50.5c0,0.1,0,0.2,0,0.2L51,51c-0.1-0.1-0.1-0.2,0-0.3c0-0.1,0.1-0.2,0.2-0.3
					C51.2,50.4,51.2,50.5,51.2,50.5 M62.9,52l-0.1,0.1l0-0.3L62.9,52z M68.5,51.3l-0.1,0.4c-0.1,0-0.2-0.1-0.4-0.2
					c0-0.2,0.1-0.3,0.4-0.4l0.4,0L68.5,51.3z M51.3,28.4c-0.1,0.3-0.3,0.4-0.5,0.2l-0.1-0.4c0-0.1,0.1-0.2,0.1-0.3l0.2,0l0.1-0.2
					l0.2,0C51.4,27.9,51.4,28.1,51.3,28.4 M68.8,36.8l-0.4,0.1l-0.2-0.1c0.1-0.1,0.1-0.2,0.2-0.2l0.4-0.2l0.1,0.2
					C69,36.7,69,36.8,68.8,36.8 M53.8,27c0,0.1-0.1,0.1-0.2,0.2l0-0.2l0.2-0.1l0-0.3C53.8,26.7,53.8,26.8,53.8,27 M58.9,26.3
					c0,0.1,0,0.2-0.1,0.2L58.7,27l0.1,0.4c0,0.1-0.1,0.1-0.2,0.1l-0.1-0.4l0.1-0.9l0-0.4l0.1,0.1L59,26
					C58.9,26.1,58.9,26.2,58.9,26.3 M65.5,24.2l-0.1,0.3L65,24.1l0.3-0.3L65.5,24.2z M67.4,24.2l0,0.7l0.2-0.3
					c0.1-0.1,0-0.2-0.1-0.3L67.4,24.2z M62.1,22l0.1,0l0-0.1L62.1,22z M53.6,24.9l0,0.2l0.1-0.2L53.6,24.9z M52.7,27.7
					c0,0.1,0,0.1,0.1,0.2C52.8,27.8,52.8,27.8,52.7,27.7 M61.9,24.1L62,24l-0.1-0.1L61.9,24.1z M75.2,48.8c0,0,0-0.1-0.1-0.1
					c0,0.1,0,0.2,0.1,0.3C75.2,48.9,75.2,48.9,75.2,48.8 M80.3,43.5l0,0.2l0.2,0l-0.1-0.2L80.3,43.5z M43.8,35.9l0,0.2l0.1-0.3
					L43.8,35.9z M45.7,33.5l0.1,0.2l0.1-0.1l0-0.2L45.7,33.5z M51.8,28.3l0.2-0.1l-0.1-0.3L51.8,28.3z M64.4,53.3l0,0.2l0.2,0
					l-0.1-0.2L64.4,53.3z M52.3,27.2l0,0.2l0.2-0.1c0-0.1,0-0.1-0.1-0.2C52.5,27.1,52.4,27.1,52.3,27.2 M45.9,46.9
					c0,0.1,0.1,0.1,0.1,0.3l0.2-0.1l-0.1-0.3L45.9,46.9z M63.6,23.4l0.2,0.2l0.2-0.1L63.6,23.4z M57.8,53.2c0,0.1,0.1,0.2,0.1,0.3
					c0.1,0.1,0.2,0,0.3-0.1c0-0.1-0.1-0.2-0.1-0.3C58,53.1,57.9,53.2,57.8,53.2 M42.9,45.2c0,0.1,0,0.1,0.1,0.2l0.2-0.1
					c0-0.1,0-0.1,0-0.2C43,45.1,42.9,45.1,42.9,45.2 M60.7,23.1c0,0.1,0,0.1,0.1,0.2c0.1,0,0.1,0,0.2,0c0,0,0-0.1,0-0.3
					C60.8,23,60.7,23,60.7,23.1 M43.2,40.6l0.2,0.3l0.2-0.1c0-0.2,0-0.2-0.2-0.2L43.2,40.6z M59.5,54l0.1,0.3l0.1-0.2l-0.1-0.3
					L59.5,54z M58.4,25.5c0,0.1,0.1,0.1,0.2,0.1c0.2-0.1,0.2-0.2,0.1-0.3l-0.2-0.1C58.5,25.2,58.5,25.3,58.4,25.5 M60.3,54l0.1,0.2
					l0.2-0.2l-0.1-0.2L60.3,54z M57.9,26.9l0.1,0.3l0-0.3l-0.2-0.4L57.9,26.9z M63.5,24.6l0.1,0.3l0.1-0.5L63.5,24.6z M56.6,53.6
					c0,0.2,0,0.3,0.1,0.4l0.2-0.2c0-0.1,0-0.2-0.1-0.4C56.7,53.5,56.6,53.6,56.6,53.6 M80,43.5c-0.1,0-0.2,0-0.4,0.1l-0.4,0.2
					l-0.4,0.2l-0.7,0.7l-1,0.6l-0.5,0.1l-0.5,0.5c-0.2,0.1-0.4,0.2-0.6,0.2l-0.6,0.2l-1.2,0.4l-1,0.4l-2.6,0.6l-2.5,0.6l-1.7,0.3
					l-2.7,0.1c-0.6,0-1.1,0-1.7,0c-0.6,0-1.1,0-1.7-0.1c-1.2-0.1-2.4-0.3-3.4-0.6L56,48l-1.6-0.5c-0.8-0.3-1.4-0.5-1.6-0.6L51.7,46
					c-0.8-0.6-1.4-1.3-1.8-2.1L49.2,43c0-0.3,0-0.5,0.2-0.7c0,0,0.1-0.1,0.2-0.2l0.4-0.1l0.3-0.4l0.8-0.3l1.3-0.2l0.6,0.1
					c0,0,0-0.1,0.1-0.1c0-0.1,0-0.1,0-0.2c0-0.1,0.1-0.2,0.1-0.3l0.3,0.2L54,41l0.2-0.1l1-0.4l0.7,0l0.6,0l0.8-0.3l0.5,0l0.4,0.2
					l0.3-0.3l1-0.4l0.3,0l0.4,0.1l0.6-0.4l1.2-0.3l0.6,0.1l0.7-0.2l0.8,0.1c0.1,0,0.2,0,0.4,0c0.2,0,0.3-0.1,0.4-0.3l0.3-0.4l0.8,0
					l0.4-0.2l0.1,0.2l0.4-0.1l0.4,0.2l1.2-0.4l0.6,0l0.7-0.4l0.5-0.1l0.6-0.2c0.1-0.1,0.2-0.2,0.1-0.5l0-0.5l0.2,0l0.1-0.6l0.3-0.1
					l0.2-0.7c0,0,0.1,0,0.2,0c0.1,0,0.2,0,0.2,0c0-0.1-0.1-0.2-0.3-0.3c-0.2-0.1-0.2-0.3-0.2-0.4l0.3,0.1l0.2,0.1l1.7-0.5
					c0.1,0,0.1,0,0.2,0.1c0.1,0.1,0.2,0.2,0.4,0.2c0.1-0.1,0.1-0.1,0.2-0.2c0.1-0.1,0.1-0.2,0.2-0.3l0.1-0.2l-0.1-0.6l-0.4-0.4
					l-0.1-0.1l0.2-0.6c0,0,0-0.1,0-0.3l-0.2,0l-0.1-0.4L74,30.9l-0.5-0.1c-0.4-0.1-0.8-0.1-1.4,0l-0.5,0.1l-0.3,0L71,31.1l-0.3,0
					l-0.5,0L70,31.2l-0.2,0.3c-0.2,0.1-0.6,0.2-1.1,0.1l-1-0.1l-0.2,0.2l-0.2-0.1l-0.6,0l-0.3,0l-0.2-0.1L66,31.5l-0.2,0.3l-0.5,0
					L64.8,32l-0.2,0.1l-2.4,0.3c-0.2,0-0.5,0-0.9,0.1c-0.4,0.1-0.7,0.2-1.1,0.3L59.3,33l-0.5,0.1L58.2,33l-0.1,0.2l-0.2,0L57,33.3
					l-0.8,0.1l-0.9,0.2l-1,0.2l-0.8,0.4l-0.8,0.4l-0.5,0l-0.6,0.3c-0.3,0.2-0.5,0.2-0.7,0.2l-0.5,0.3l-0.8,0.1l-0.2,0l0.1-0.4
					l-0.1-0.3l0.5-0.7l-0.1-0.5l0-0.4l0.3-0.2l0.6-0.6l0.4-0.7l0.8-1.2l0.5-0.3l0.5-0.8l0.3-0.1l0.2,0l0.6-0.5l0.5-0.4l0.8-0.3
					l0.3,0.2c0.2-0.1,0.4-0.3,0.6-0.8c0.1-0.1,0.2-0.3,0.4-0.5c0,0,0.1-0.1,0.1-0.2c0.1,0,0.2,0.1,0.3,0.3l0.1,0.4l0.1,0.2
					c0.1-0.1,0.2-0.1,0.2-0.2l0.2-0.2l0.3,0.4c0.2,0.1,0.4,0.2,0.6,0.1l0.7-0.2l0.2-0.1l0.5,0.1l0.5,0.3l0.5-0.3l0.1,0.2
					c0,0.1,0.1,0.1,0.2,0.1l0.3-0.2l0.4,0.3l0.1-0.1c0.1,0.1,0.2,0.2,0.1,0.5l0.1,0c0,0,0.1,0,0.1-0.1c0-0.1,0.1-0.1,0.2-0.1
					l0.1,0.4c0.1,0.2,0.3,0.3,0.5,0.3l0.1-0.5c0-0.1,0.1-0.1,0.2-0.2c0.1,0,0.2,0.2,0.2,0.5c0,0.3,0.1,0.5,0.2,0.6
					c0.1,0.1,0.3,0.3,0.5,0.6l0.5,0.1l0.5,0.1l0.1,0.4l0.3,0.1c0,0,0.1,0.1,0.1,0.2l-0.1,0.2L66,31l0.8-0.3c0.3-0.3,0.5-0.5,0.4-0.7
					l-0.1-0.1L67,29.8l0.4-0.8l-0.1-0.5c-0.1-0.2,0-0.4,0.1-0.5c0.1-0.1,0.3-0.3,0.6-0.4c0.1-0.1,0.2-0.2,0.3-0.3
					c0.1-0.1,0.2-0.3,0.3-0.4l0.5,0.2l0.2-0.2l0.4,0.1l0.2-0.2l0.3,0.2c0.2,0.1,0.3,0.1,0.3,0c0.1-0.1,0-0.3-0.1-0.4l-0.4-0.5
					l-0.2-0.7L69.7,25l-0.4-0.3l-0.1-0.4L68.6,24l-0.1-0.1l-0.3,0.1c-0.1,0-0.1-0.2-0.2-0.5c-0.1-0.3-0.2-0.4-0.3-0.5l-0.8-0.3
					c0,0-0.1-0.1-0.1-0.1c0-0.1-0.1-0.1-0.1-0.2l-1.1-0.1l-0.8-0.3l-0.4-0.2l-0.3,0.3c-0.1,0.1-0.2,0.1-0.3,0.2c0-0.1,0-0.3-0.1-0.6
					l-0.2,0.2l-0.4,0.6l-0.2,0.5c0,0-0.1-0.1-0.1-0.1c0,0,0-0.1-0.1-0.1c0-0.1-0.1-0.2-0.3-0.2L62.6,23l0.2,0.2l-0.4,0.2
					c0,0.1,0,0.3,0,0.5c-0.1,0-0.2,0.1-0.3,0.2l0.1,0.2l0.3,0l0.1,0.4l0.2,0.1l0.1,0.2l0,0.2l-0.3,0.2l-0.2-0.2l-0.3,0.1l-0.2,0
					l-0.3-0.1l-0.3,0.4c-0.2,0.1-0.4,0.1-0.5,0l-0.5-0.3c-0.1,0-0.2-0.1-0.5-0.1l-0.1,0.2c0,0-0.1,0.1-0.2,0.1
					c-0.2-0.1-0.2-0.2-0.1-0.4l0.3-0.3l-0.3,0.1l-0.1-0.2l-1.1,0.3c0,0-0.1-0.1-0.1-0.1c0,0-0.1-0.1-0.1-0.2c0-0.1-0.1-0.1-0.3-0.2
					l-0.1,0.2l-0.1,0.2l-0.2-0.1c0,0-0.1,0.1-0.3,0.2l-0.3,0.1c-0.1,0-0.1,0-0.2-0.1l-0.1-0.3c-0.1-0.1-0.3-0.2-0.7-0.2
					c-0.3,0-0.5,0-0.6,0.1c0,0.1,0.1,0.1,0.1,0.2c0,0.1,0.1,0.1,0.1,0.2l0.4,0.2l0.1,0.5c0,0.1-0.1,0.2-0.2,0.3l-0.2-0.3l-0.2-0.2
					l-0.2,0.2l-0.4-0.1c0-0.1-0.1-0.1-0.1-0.2c0-0.1,0.2-0.1,0.4-0.2l-0.3,0l-0.1-0.3l-0.1-0.2c-0.1,0.1-0.2,0.2-0.1,0.4l0.3,0.7
					l0.3,0.7l-0.3,0.4l0.3,0.2L54.6,27l-0.3,0.1c0,0-0.1,0-0.1-0.1c-0.1,0-0.1-0.1-0.1-0.1L54,26.4l0-0.5l-0.1-0.1l-0.2-0.2
					l-0.2-0.4L53.1,25l-0.3,0.2L52.4,25l-0.2,0.6l-0.4,0.1l-0.1,0.2c-0.2,0-0.4,0-0.4,0l-0.6,0.4l-0.2,0.3l-0.4,0.1
					c0,0.1,0,0.2,0,0.4c0,0.1-0.2,0.1-0.4,0.2l-0.3,0.2l-0.1,0.5c-0.1,0-0.2-0.1-0.3-0.1c-0.1,0.2-0.4,0.4-0.7,0.6l0,0.5
					c0,0.1-0.3,0.2-0.7,0.4l-0.1,0.6C47.4,30,47.3,30,47.2,30c-0.1,0-0.2,0-0.3,0c-0.1,0.2-0.1,0.5-0.1,0.8l0.1,0.1l0,0.2
					c0,0.1-0.2,0.1-0.5,0.2c-0.1,0.1,0,0.3,0.1,0.5l0.3,0.3L46,33.1l0.5,0.7L46.3,34l-0.2,0.2c0,0.2,0,0.4,0.2,0.6
					c-0.1,0-0.1,0.1-0.3,0.1l-0.2-0.5l-0.3,0c-0.1,0-0.2,0-0.3,0l0.2-0.4l-0.1-0.3l-0.2-0.1L45.1,34l0,0.6L45,35l0.2,0.1l0.1,0.2
					c0,0-0.1,0.1-0.1,0.1c-0.1,0-0.2,0.1-0.4,0.1c-0.1,0-0.3,0.2-0.4,0.4l0.1,0.2l0.2-0.1l-0.1,0.3l0.2,0.4c0,0.2-0.2,0.3-0.5,0.2
					l-0.5-0.1c-0.1,0-0.1,0.1-0.1,0.3l-0.1,0.4c-0.1,0.1-0.2,0.3-0.2,0.5L43,38.6L42.5,39l0.5,0.4l-0.3,0.1l0.1,0.4l-0.2,1l0.2,0.2
					l0.2,0.2l-0.7,0.5l-0.3,0l0.2,0.3l0.4,0.7c0.3,0.3,0.4,0.5,0.5,0.7l0.1,0.8L43,44.6l0.4,0.8l0.1,0.4L43.2,46l0.2,0.6l-0.3,0.3
					l0.1,0.4l0.3,0.2l0.3,0.4c0.1,0.1,0.2,0.1,0.4,0.2l0.1-0.2l0.2-0.1c0.1,0.1,0.2,0.2,0.2,0.5l0.2,0.6l0.3-0.2
					c0.1,0,0.1,0.2,0.2,0.5l0.2,0.7l0.5,0.1l0.4,0.6l0.7,0.1c0,0,0,0.1,0,0.1c0,0.1,0,0.1,0,0.2c0,0.1,0,0.2,0,0.3
					c0.1,0,0.3,0,0.6-0.1l0.1,0.3l0.4,0.4l0.3,0l0.1,0.3c0.1,0,0.1-0.1,0.2-0.1l0.1-0.3l0.2,0.2l0.2,0.2l0.5-0.1l0.2,0.2l0.7,0.1
					l0,0.2l-0.2,0.2l0.7-0.1c0.2,0,0.4,0.1,0.4,0.3l0.4,0.2l0.4,0.5c0.2,0,0.4,0.1,0.7,0c0.1,0.2,0.1,0.3,0.1,0.5
					c0.2,0,0.3-0.1,0.4-0.3c0.1-0.2,0.2-0.3,0.5-0.5c0.2,0,0.4,0.1,0.6,0.2l0.1,0.6l0.6-0.4l0.4,0.1l0.3-0.1l-0.1-0.3l0.2-0.2
					l0.3-0.2c0,0.1,0.1,0.1,0.3,0.2l0.3-0.1c0.2,0,0.3,0,0.3,0.1l0,0.4c0,0.2,0,0.3,0.2,0.4c0.1,0,0.2-0.1,0.2-0.1l0.2-0.3
					c0.1,0,0.2,0.1,0.3,0.3c0.1,0,0.3,0.1,0.7,0l0,0.3l0.5,0.2c0.3-0.1,0.4-0.2,0.5-0.5c0.1-0.3,0.2-0.6,0.3-0.9
					c0-0.1,0.1-0.2,0.1-0.3l0.2,0.1l0.1,0.3l0.4,0.1l0.2,0.2c0.1,0.2,0.3,0.2,0.6,0.2l0.6-0.1l0.1-0.5l0.3,0l0.1-0.3l0.2,0.8
					c0,0.1,0.1,0.2,0.3,0.3c0.2-0.1,0.3-0.2,0.3-0.3l0.1-0.3l0.1,0.3l0.7-0.2l0.6,0l0.1-0.3l0.7-0.3l0.6-0.1l0.3-0.3l0.3-0.3l0.6,0
					l0.4,0.1c0.1-0.1,0.2-0.2,0.3-0.4l0-0.3c0.1,0,0.2,0.1,0.3,0.1l0.4,0.2l0.7,0l0.2,0.3l0.4-0.2l0.5-0.3l0.8-0.2l0.4-0.2l0.2-0.4
					c0-0.1,0.1-0.2,0.2-0.3c0,0,0,0,0.1,0c0.1,0.1,0.1,0.2,0.1,0.3l0.2-0.1l0.2,0c0.1-0.1,0-0.3-0.2-0.5c-0.1-0.1-0.2-0.3-0.3-0.4
					c0.2-0.1,0.4-0.1,0.6,0.3l0.2,0.1c0-0.1,0-0.3-0.1-0.4c0-0.1,0-0.2,0-0.4c0.2-0.1,0.3-0.1,0.5,0.1c0.2,0.2,0.3,0.3,0.5,0.1
					l0.3-0.4l0.5-0.1l0.6-1.3l0.5,0l0-0.2l0.2,0l-0.1-0.4c0.1-0.1,0.3-0.2,0.7-0.2l0.2-0.4l0.3-0.4l0.4-0.2l0.2-0.2l0.2-0.5
					c0.1-0.1,0.3-0.2,0.6-0.4l0-0.3l0.3-0.2l0-0.2l0.4-0.4C80,43.9,80.1,43.7,80,43.5C80.1,43.5,80,43.5,80,43.5 M59,23.8
					c-0.1,0.1-0.2,0.1-0.3,0.2l0,0.3l0.2-0.2l0.4-0.3l-0.1-0.2C59.2,23.7,59.1,23.8,59,23.8 M59.7,23.9l-0.1,0.3
					c0.1,0.1,0.3,0,0.5-0.3l0-0.2C60,23.7,59.8,23.8,59.7,23.9 M60.2,23.6l0.1,0.5l0-0.4l0.1-0.3L60.2,23.6z M68.2,20.3
					c-0.1-0.1-0.3-0.2-0.3-0.3c-0.1-0.1-0.2-0.2-0.4-0.3l-0.3,0.4c0,0.1-0.2,0.1-0.4,0.2l0,1.1l0.4,0.2l0.1,0.2l0.2,0.2l0.7,0.1
					c0.2,0,0.3-0.1,0.3-0.4l0-0.8l0.2-0.1l0-0.3L68.2,20.3z M17.7,54.8l0.1,0.6l-0.1,0.2l-0.4-0.3c-0.2-0.2-0.2-0.4-0.1-0.5l0.1-0.3
					l0.2-0.1C17.6,54.3,17.7,54.5,17.7,54.8 M23.9,45.3l-0.2,0.1l-0.4-0.2l0-0.3l0.1-0.1l0.6,0.4L23.9,45.3z M41,50.4
					c0,0.1,0,0.2-0.1,0.4L40.7,51c-0.1,0-0.2-0.1-0.3-0.3l0-0.3c0.1-0.1,0.2-0.1,0.3-0.1L41,50.4z M18,54.6l0.1,0.2l0.2,0l-0.1-0.2
					L18,54.6z M0.6,41.9c0,0.1,0.1,0.1,0.1,0.2C0.8,42,0.7,42,0.6,41.9 M21.1,65.4l0.2-0.1l0-0.2L21.1,65.4z M22.9,45.1
					c-0.1,0-0.1,0.1-0.2,0.1c0,0.1,0,0.2,0,0.3c0.1-0.1,0.2-0.1,0.3-0.2c0-0.1,0-0.2,0-0.3C23,45.1,23,45.1,22.9,45.1 M49.9,49.9
					l0.1,0.3c0-0.1,0.1-0.2,0.1-0.4C50,49.8,50,49.8,49.9,49.9 M19,59.6l0.1,0.2l0.1-0.1c0-0.3-0.1-0.4-0.2-0.4L19,59.6z M10.8,47.5
					c0,0.1,0.1,0.2,0.3,0.3c0.1,0,0.2-0.1,0.2-0.2c0-0.2-0.1-0.3-0.2-0.3C10.9,47.3,10.8,47.4,10.8,47.5 M26.8,42.7
					c0,0.1,0,0.2,0.1,0.3c0.1-0.1,0.2-0.2,0.2-0.2c0-0.1,0-0.2-0.1-0.3C26.9,42.5,26.8,42.6,26.8,42.7 M0,40c0,0.2,0,0.3,0.2,0.4
					l-0.1-0.5L0,40z M0.7,39.4C0.7,39.4,0.6,39.4,0.7,39.4c-0.1,0.2-0.1,0.3-0.2,0.5c0,0.3,0,0.5,0.1,0.5l0.1-0.2l0-0.7L0.7,39.4z
					 M52.3,46.9c0,0.1-0.1,0.1-0.3,0.2l0.1-0.4l-0.3-0.2L51,46.2c-0.4-0.1-0.9-0.2-1.3-0.3c-0.5-0.1-0.9-0.1-1.4-0.1l-2.8-0.3
					l-2.9-0.3c-0.9-0.1-1.8-0.1-2.5-0.1c-0.7,0-1.4,0-2.1,0l-1.1,0.1l-1.3,0.1c-0.4-0.1-0.7-0.1-0.9-0.1c-0.3,0-0.5,0-0.8-0.1
					l-1,0.1l-0.9,0.1l-1.5-0.3l-0.7,0.2l-1.7,0l-2.2,0l-0.9,0c-0.4-0.1-0.6-0.1-0.8-0.2c-0.1-0.1-0.1-0.3-0.1-0.5
					c0.1-0.2,0.1-0.3,0.2-0.4c0.1-0.1,0.1-0.1,0.1-0.1l1.2-0.5l0.4-0.1c0.1-0.2,0.2-0.5,0.1-0.7l-0.2-0.8l0.4-0.3l0.5-0.2l0.1,0.1
					l0.2,0.1l0.3-0.5l0.7-0.4c0.5-0.1,0.9-0.3,1-0.5l0.4-0.5c0.1-0.2,0.2-0.4,0.2-0.7l0.2,0l0.2,0c0.1-0.1,0.1-0.3,0.1-0.5l-0.1-0.6
					l0.5-0.5c0.1-0.2,0.1-0.4,0.1-0.6l0-0.6l0.2-0.2l-0.2-0.3c-0.1-0.3-0.1-0.6-0.1-0.8l0.6-0.6l0.1-0.7l0.5-1.2l0.3-0.8l-0.3-0.3
					c-0.1,0-0.2-0.2-0.3-0.3l0.1-0.4l-0.4-0.3l-0.1-0.4l-0.5,0.1l-0.3-0.2l-0.2-0.2l-0.6,0.6c-0.3,0.2-0.5,0.3-0.6,0.2l-0.1-0.2
					c-0.1-0.1-0.2-0.1-0.5-0.1L28,30.2l-0.5,0.2l-1-0.3c-0.3-0.1-0.5-0.2-0.6-0.2c-0.1,0-0.2,0-0.3-0.1L25.1,30l-0.1-0.2l-0.1-0.2
					c-0.2,0.1-0.2,0.2-0.2,0.3l-0.2,0.3c-0.2,0-0.4,0-0.7-0.1l-0.5,0.2L22.7,30c-0.1,0-0.2,0.1-0.3,0.3l-0.3,0.3l-0.4-0.2
					c-0.1-0.2-0.3-0.3-0.4-0.2c-0.1,0.1-0.2,0.2-0.2,0.3l-0.6,0L20,30.6l-0.2,0L19,30.5l-0.6-0.1l-0.2-0.2l-0.5,0.2l-1.8,0l-1.7,0.3
					l-0.9-0.2l-0.6,0.1c-0.2,0-0.4,0.1-0.6,0l-2.6,0.7L9,31.9c-0.1,0.1-0.2,0.2-0.4,0.3l-0.2-0.4L7.8,32c0,0-0.1,0.1-0.1,0.2
					c-0.1,0.1-0.1,0.1-0.1,0.2l-0.3,0.5l-0.5-0.1l-0.5,0l-1,0.5l-0.5,0.4l-0.2,0.3c0,0.1-0.2,0.2-0.3,0.3l-0.5-0.1
					c-0.3,0.1-0.5,0.3-0.6,0.5L3,35.1c0,0.1-0.1,0.2-0.2,0.3l-0.2,0l-0.3-0.1c-0.1,0-0.1,0.1-0.1,0.3l0,0.3C2.2,36,2,36.1,1.7,36.2
					c-0.1,0.2-0.2,0.3-0.2,0.5l-0.2,0.8L1,37.8c-0.1,0-0.1,0.2-0.1,0.4l0,0.7l-0.1,0.4L1,39.5c0,0.2,0,0.3,0,0.4l0.4,0.4l0.2,0.3
					l-0.5,0.7l0.1,0.2l0.2,0l0.1,0.2l0.1,0.2l0.4-0.1l0.2,0.2l0.3,0.1c0.1-0.1,0.2-0.2,0.2-0.2c0-0.1,0-0.2,0.1-0.3
					c0.1,0,0.1,0,0.2,0.1c0.1,0.1,0.2,0.2,0.3,0.4l0.2-0.2l0.4,0l0.4-0.5l0.7-0.3l0.6-0.3l0.5-0.4l0.5-0.4l1.8-0.4l0.8-0.5l0.6-0.1
					l0.6-0.1l0.5-0.4c0.2,0,0.3,0,0.4,0l0.4,0.1l0.4-0.2l0.6,0l0.6-0.3l0.8-0.3l0.4,0l0.5,0l0.9-0.3l1,0.2l0.9-0.1l0.6-0.2l0.1,0.1
					l0.2,0l0.6-0.3l0.2,0.1l0.6-0.1c0.2-0.1,0.4-0.1,0.5-0.2l1.1,0l0.2,0.2c0.2,0,0.4-0.2,0.5-0.5c0.1,0.1,0.2,0.3,0.2,0.5l0.4,0.1
					l0.5-0.3l0.4,0.2l0.3,0.1l0.8-0.6l0.6,0.3l0.7-0.1c0.4,0,0.6,0.1,0.6,0.3c0.1,0.3,0,0.5-0.1,0.6l-0.4,0.4c0,0.1-0.1,0.2-0.3,0.3
					l-0.6,0.2L25.2,39l-1.3,0.8l-0.7,0.6c-0.4,0.3-0.7,0.5-0.7,0.6c-0.1,0.1-0.1,0.3-0.1,0.6L22,41.3c-0.3,0-0.7,0.2-1,0.4l-0.6,0.6
					l-0.7,0.3L19,43c-0.1,0.1-0.2,0.2-0.3,0.4c-0.1,0.2-0.2,0.4-0.2,0.4c-0.1,0-0.1,0.1-0.2,0.2l-0.5-0.2l-0.5,0.3l-0.2-0.1l-0.2,0
					l-0.5,0.5c-0.3,0.2-0.6,0.3-0.8,0.4l-0.5-0.7c-0.1,0-0.2,0.1-0.3,0.1c-0.2,0-0.3,0-0.3,0L14.5,44L14.4,44
					c-0.3-0.1-0.5-0.3-0.7-0.6l0.1,0.6c-0.1,0-0.1,0.1-0.2,0.1l-0.2-0.3l0.1,0.6c0,0.1-0.1,0.1-0.2,0.2l-0.1-0.3
					C13,44.1,12.9,44,12.8,44c-0.1-0.3-0.2-0.5-0.3-0.6c-0.1-0.1-0.3,0-0.5,0.2l-0.1,0.7l-0.2,0.3l-0.2-0.1L11.4,45
					c0,0.2,0.1,0.4,0.2,0.4l0.1-0.3c0-0.1,0.1-0.1,0.2-0.1l0.1,0.3c0.1,0.1,0.1,0.3,0.2,0.5c0.2,0.6,0.1,1.1-0.2,1.7l-0.3,0.1
					c-0.1,0-0.2,0-0.3-0.1l0.1-0.4L11,46.5l0-0.4c-0.1,0-0.2,0.1-0.1,0.3l0.1,0.4l-0.3,0.1l-0.5,0.9c0,0.2,0.2,0.4,0.6,0.6
					c0.3,0.2,0.5,0.4,0.4,0.5l-0.6,2.2l0,1c0.2,0.2,0.3,0.3,0.6,0.4l0.5,0.1l0.1,0.3l0.3,0.2l0.3,0l0.6,0.4l0.6,0.4l0.2,0.9l0.2,0.8
					l0.2,0.7l0.2,0.9l0,0.5l0.9,2.1l-0.2,1c0.1,0.3,0.3,0.7,0.4,1.2l0,0.5l0.2,0.1c0.1,0,0.1,0.1,0.2,0.2c0.1,0.4,0.1,0.7,0,1
					l0.2,0.6l0.2,0.7l0.1,0.7l-0.1,0.5c0,0.3,0.2,0.7,0.5,1.1l0.7,0.9l0.4,0.6l0.3,0.4l0.2-0.1l0.3,0.2l0.1-0.1l0-0.3l-0.2-0.5
					l0.6,0.2c0.1,0,0.2-0.1,0.2-0.3l0.1-0.5l0.2-0.2L19.5,67l0.1-0.5l0-0.5c0-0.4,0.1-0.6,0.3-0.7l0.1,0.2l0.3-0.1l0.3,0
					c0.1-0.1,0.2-0.3,0.3-0.4l0.4-0.1l0.1-0.4c0-0.1,0.1-0.1,0.2-0.2c0.2,0,0.3,0.1,0.3,0.1l0.1,0.2l0-0.3l-0.3-0.5l0.1-0.6l-0.4-1
					l-0.3-0.4L21,61.4l-0.3-0.1l0-0.4l-0.2-0.6l0-0.2l0.1-0.1l0-0.2l-0.3-0.2l0-0.7l-0.6-0.5L19.4,58l-0.5-0.3
					c0-0.2,0.1-0.4,0.3-0.4c0.2-0.2,0.3-0.3,0.3-0.4c-0.1-0.3-0.2-0.6-0.5-0.9l-0.1-0.6l-0.4-0.3l0.1-0.6l-0.2-0.7
					c0.1-0.2,0.3-0.3,0.6-0.4l1.2-0.1l0.8,0l1.4-0.4l0.8,0l1.3,0.1l0.6-0.2l1,0.1l0.5-0.3l0.5-0.1l0.3,0.1l0.6-0.2l0.2,0.1l0.2,0
					l0.6,0l0.4,0.2l0.2-0.3l0.3-0.1l0-0.3l0.4,0.1l0.3,0.1l0.8,0.1l1-0.1c0.1-0.1,0.2-0.2,0.2-0.4l0.3,0.1c0.1,0,0.2-0.1,0.3-0.2
					c0.1-0.1,0.1-0.3,0-0.6l0.2,0.1l0.3,0.2c0.2,0,0.3,0,0.4-0.1l0.3-0.2l1.5,0.2l1.6,0.1l1.7-0.2l0.3,0.2l0.7-0.2l0.2,0.4
					c0.1,0.1,0.3,0.2,0.5,0.2l0.6,0l-0.2-0.7l0-0.6c0.2,0,0.4,0.1,0.7,0.3l0.6,0.3c0.1,0,0.4,0,0.8-0.1c0.4-0.1,0.7-0.1,0.8,0
					l0.8,0.3l0.6,0.2l0.3,0.3l1.6,0.4l0.6-0.1l0.8,0.2l0.2-0.4c0.1-0.1,0.2-0.2,0.2-0.3c0.1,0,0.1-0.1,0.2-0.1l0.1,0.3l0.2,0.1
					c0.2,0,0.2-0.1,0.2-0.2c0-0.1-0.1-0.2-0.2-0.4c-0.1-0.1-0.3-0.3-0.4-0.5l0.1-0.3l0-0.8l0-0.1l0.2,0.1l0.2,0l0-0.3l0.4-0.4
					c0.1,0,0.1,0,0.2,0.1l0.2,0.1c0.2-0.1,0.2-0.4,0.3-0.7l0.4,0.1l0.4,0.1l0-0.2l0.4-0.3l0.1-0.9l0.3-0.3l0.1-0.2
					C52.5,46.8,52.4,46.8,52.3,46.9"/>
			</g>
		</g>
	</g>
</g>
<g id="Top_Nav">
</g>
</svg>
