<?xml version="1.0" encoding="utf-8"?>
<!-- Generator: Adobe Illustrator 18.0.0, SVG Export Plug-In . SVG Version: 6.00 Build 0)  -->
<!DOCTYPE svg PUBLIC "-//W3C//DTD SVG 1.1//EN" "http://www.w3.org/Graphics/SVG/1.1/DTD/svg11.dtd">
<svg version="1.1" id="Layer_1" xmlns="http://www.w3.org/2000/svg" xmlns:xlink="http://www.w3.org/1999/xlink" x="0px" y="0px"
	 viewBox="0 0 83.7 97.7" enable-background="new 0 0 83.7 97.7" xml:space="preserve">
<g>
	<path fill="#FFFFFF" d="M83.7,74c-1.1,6.3-2.6,13-4.6,20c-6.3,2.5-15.6,3.8-27.9,3.8c-7.7,0-14.7-1.1-21-3.4
		c-6.3-2.3-11.7-5.4-16.2-9.5C9.6,80.7,6.1,75.8,3.7,70C1.2,64.2,0,57.7,0,50.4c0-6.7,1.2-13.1,3.7-19.1S9.6,19.9,14,15.2
		c4.4-4.7,9.5-8.4,15.4-11.1C35.4,1.4,41.7,0,48.5,0c4.5,0,8.3,0.1,11.6,0.3c3.2,0.2,6,0.5,8.4,1c2.4,0.4,4.5,1.1,6.3,1.9
		c1.8,0.8,3.7,1.8,5.6,3c0.3,2.4,0.5,5,0.7,7.8c0.1,2.8,0.2,5.5,0.1,8.1h-3c-1.9-5.8-5.1-10.4-9.7-13.7c-4.6-3.3-10.3-5-17.3-5
		c-5.2,0-9.9,1.1-14.3,3.3c-4.4,2.2-8.2,5.4-11.3,9.5c-3.2,4.1-5.7,9-7.5,14.8c-1.8,5.8-2.7,12.1-2.7,19.1c0,14.5,3.1,25.5,9.3,32.9
		c6.2,7.4,15.2,11.1,27,11.1c7,0,12.9-1.7,17.8-5.1c4.9-3.4,9-8.4,12.2-15H83.7z"/>
</g>
</svg>
