<?xml version="1.0" encoding="utf-8"?>
<!-- Generator: Adobe Illustrator 18.0.0, SVG Export Plug-In . SVG Version: 6.00 Build 0)  -->
<!DOCTYPE svg PUBLIC "-//W3C//DTD SVG 1.1//EN" "http://www.w3.org/Graphics/SVG/1.1/DTD/svg11.dtd">
<svg version="1.1" xmlns="http://www.w3.org/2000/svg" xmlns:xlink="http://www.w3.org/1999/xlink" x="0px" y="0px"
	 viewBox="0 0 262.7 67.7" enable-background="new 0 0 262.7 67.7" xml:space="preserve">
<g id="Intro_section">
	<path opacity="0.7" fill="#FFFFFF" d="M0,1.6h12.1v24.2h27.7V1.6H52v64.5H39.8V37H12.1v29.1H0V1.6z"/>
	<path opacity="0.7" fill="#FFFFFF" d="M115.7,46.3c0,13.1-10.4,21.5-26,21.5c-15.6,0-26-8.3-26-21.5V1.6h12.1v41.5
		C75.9,51,79.2,56,89.7,56c10.5,0,13.9-5,13.9-12.9V1.6h12.1V46.3z"/>
	<path opacity="0.7" fill="#FFFFFF" d="M131.9,46.7c4.5,6.7,11.6,9.8,19.5,9.8c5.9,0,13.7-2,13.7-8.2c0-5.1-4.7-6.5-13.3-8.5
		l-7.2-1.6c-10.3-2.4-19.4-6.2-19.4-18c0-13.6,12.9-20.1,25-20.1c11.1,0,20.2,4.1,26.9,12.9l-10.1,7.6c-3.1-5.9-9.1-9.3-16.9-9.3
		c-7,0-12.2,2.6-12.2,7.2c0,5.3,6.1,6.6,13.3,8.2l7.9,1.7c9.6,2.1,18.7,6,18.7,18.2c0,15.8-14.8,21.2-28.2,21.2
		c-10.7,0-21.7-4.6-27.9-13.6L131.9,46.7z"/>
	<path opacity="0.7" fill="#FFFFFF" d="M186.2,1.6h12.1v24.2H226V1.6h12.1v64.5H226V37h-27.7v29.1h-12.1V1.6z"/>
	<path fill="#FFFFFF" d="M250.5,53.6h12.1v12.5h-12.1V53.6z"/>
	<rect x="0" y="25.2" fill="#FFFFFF" width="262.7" height="12.5"/>
</g>
<g id="Top_Nav">
</g>
</svg>
