<?xml version="1.0" encoding="utf-8"?>
<!-- Generator: Adobe Illustrator 18.0.0, SVG Export Plug-In . SVG Version: 6.00 Build 0)  -->
<!DOCTYPE svg PUBLIC "-//W3C//DTD SVG 1.1//EN" "http://www.w3.org/Graphics/SVG/1.1/DTD/svg11.dtd">
<svg version="1.1" xmlns="http://www.w3.org/2000/svg" xmlns:xlink="http://www.w3.org/1999/xlink" x="0px" y="0px"
	 viewBox="0 0 356.1 339.1" enable-background="new 0 0 356.1 339.1" xml:space="preserve">
<g id="Intro_section">
	<g>
		<path fill="#FFFFFF" d="M170.7,168.4C62,165.2,1,77.7,0,0l77,0c0,14.2,14.9,85.7,93.7,91.4L170.7,168.4L170.7,168.4z"/>
		<path fill="#FFFFFF" d="M116.3,114c79.1-74.6,184.2-55.9,239.8-1.7l-54.4,54.4c-10-10.1-71.1-50.1-130.9,1.6L116.3,114L116.3,114z
			"/>
		<path fill="#FFFFFF" d="M247.7,168.3C244.5,277,157,338.1,79.3,339.1l0-77c14.2,0,85.7-14.9,91.4-93.7L247.7,168.3L247.7,168.3z"
			/>
	</g>
</g>
<g id="Top_Nav">
</g>
</svg>
