<?xml version="1.0" encoding="utf-8"?>
<!-- Generator: Adobe Illustrator 18.0.0, SVG Export Plug-In . SVG Version: 6.00 Build 0)  -->
<!DOCTYPE svg PUBLIC "-//W3C//DTD SVG 1.1//EN" "http://www.w3.org/Graphics/SVG/1.1/DTD/svg11.dtd">
<svg version="1.1" xmlns="http://www.w3.org/2000/svg" xmlns:xlink="http://www.w3.org/1999/xlink" x="0px" y="0px"
	 viewBox="0 0 392.2 392.2" enable-background="new 0 0 392.2 392.2" xml:space="preserve">
<g id="Layer_1">
</g>
<g id="head_shape">
</g>
<g id="spots">
</g>
<g id="thick_strings">
</g>
<g id="thin_strings">
</g>
<g id="head__x28_geometric_x29_">
</g>
<g id="Triangles">
	<path fill="none" stroke="#FFFFFF" stroke-width="30" stroke-linecap="round" stroke-linejoin="round" stroke-miterlimit="10" d="
		M293.3,114.6"/>
	<path fill="none" stroke="#000000" stroke-width="30" stroke-linecap="round" stroke-linejoin="round" stroke-miterlimit="10" d="
		M149.9,261.8"/>
	<g>
		<g>
			<g>
				<path fill="#FFFFFF" d="M278.8,18.4C224.9-6.8,165.3-5.2,115,17.6c0.4,0.6,0.6,1.2,0.6,1.9v122.6l65.4,30.4V66.4
					c0-8.3,6.7-15,15-15s15,6.7,15,15v97.8l72.6-61.1c3-2.6,7-3.8,11-3.5c4,0.3,7.6,2.3,10.2,5.3c17.1,20.4,28.1,45.1,31.8,71.5
					c3.8,27.1-0.3,54.6-11.9,79.5c-11.6,25-30.1,45.8-53.3,60.4c-22.6,14.1-48.7,21.6-75.3,21.6c0,0,0,0,0,0c-8.3,0-15-6.7-15-15
					v-94.2l-70.6,59.5c-2.5,2.1-5.7,3.5-9.3,3.6c-0.4,0-0.8,0-1.2,0c-3.2-0.2-6.2-1.3-8.6-3.2c-0.7-0.6-1.4-1.2-2-1.9
					c-2.3-2.6-3.7-6-3.7-9.8c0,0,0,0,0,0c0,0,0,0,0,0c0,0,0,0,0,0c0,0,0,0,0,0c0,0,0,0,0,0c0,0,0,0,0,0c0,0,0,0,0,0V34.1
					c-28.2,19.2-51.8,46-67.2,79.2c-45.7,98.1-3.2,214.8,95,260.5c98.1,45.7,214.8,3.2,260.5-95C419.5,180.7,377,64.1,278.8,18.4z"
					/>
			</g>
			<g>
				<path fill="#FFFFFF" d="M297.4,243.3c16.1-34.6,13.2-75.1-6.8-106.9l-79.7,67v103.5C248.3,301.8,281.3,278,297.4,243.3z"/>
			</g>
			<g>
				<polygon fill="#FFFFFF" points="115.6,244.5 168.6,199.8 115.6,175.1 				"/>
			</g>
		</g>
	</g>
</g>
<g id="D-strokes">
</g>
<g id="D-fills">
</g>
</svg>
