<?xml version="1.0" encoding="utf-8"?>
<!-- Generator: Adobe Illustrator 18.0.0, SVG Export Plug-In . SVG Version: 6.00 Build 0)  -->
<!DOCTYPE svg PUBLIC "-//W3C//DTD SVG 1.1//EN" "http://www.w3.org/Graphics/SVG/1.1/DTD/svg11.dtd">
<svg version="1.1" xmlns="http://www.w3.org/2000/svg" xmlns:xlink="http://www.w3.org/1999/xlink" x="0px" y="0px"
	 viewBox="0 0 139.7 228.2" enable-background="new 0 0 139.7 228.2" xml:space="preserve">
<g id="Intro_section">
	<g>
		<path fill="#FFFFFF" d="M50,0c-1.1,4.3-2.1,8.4-3.1,12.4c-0.6,2.6-1.4,5.3-1.9,8c-0.7,3.9-1.1,7.8-2,11.6
			c-1.3,5.9-2.8,11.7-4.1,17.5c-0.7,2.9-1.1,6-1.6,8.9c-0.6,3.8-0.9,7.6-1.9,11.3c-0.8,3-2.4,5.8-3.6,8.7c-1.9,4.4-3.9,8.8-5.5,13.3
			c-1.7,5.1-3,10.4-4.4,15.6c-0.3,1.2-0.2,2.5-0.5,3.6c-0.8,3.4-1.8,6.8-2.7,10.2c-0.6,2.3-1.5,4.6-1.6,6.9c-0.1,5-2.5,9-4.5,13.3
			c-1.9,4.1-3.3,8.5-5,12.7c-1.4,3.5-3.1,7-4.3,10.6c-1.4,4.3-2.8,8.6-3.3,13c-0.6,4.6,1.6,7.2,5.3,8c2.1,0.4,5.5-2.2,6.9-5.3
			c2-4.7,3.7-9.6,6-14.2c2.6-5,5.6-9.8,8.5-14.7c0.7-1.1,1.5-2.2,2.5-3.1c1.5-1.5,3.1-1.2,3.2,0.8c0.1,3.3-0.1,6.6-0.4,9.8
			c-0.2,2.3-1.1,4.6-1.2,6.9c-0.6,12.5-1.1,25-1.3,37.5c-0.1,2.7,0.9,5.5,1.9,8.1c1,2.5,3.8,3,6.1,3.4c1.9,0.4,4.9-3.3,5.9-5.6
			c1.7-4.1,1.6-8.4,1.5-12.6c-0.2-7.3,1.2-14.3,2.8-21.3c0.6-2.6,0.4-5.4,0.6-8.1l1.1-0.1c0.5,2.9,1.3,5.8,1.4,8.8
			c0.3,6.9,0.2,13.8,0.4,20.6c0.1,1.9,0.2,21.3,1.8,27.3c0.7,2.8,3.2,4.3,6.6,3.9c3.4-0.5,6.4-2,7-4.8c0.7-3.4,1.5-6.8,1.6-10.2
			c0.3-11.4,0.1-22.8,0.4-34.2c0.2-6.9,1.1-13.7,1.6-20.7c0.5,0,1.3,0.1,2.1,0.1c0.1,0.4,0.2,0.7,0.3,1c1.4,4.6,2.8,9.3,4.3,13.9
			c1.2,4,2.5,7.9,3.7,11.9c0.5,1.7,1,3.4,1.5,5.1c1.6,6,3.1,11.9,4.8,17.9c1.5,5.3,7.3,7.6,11,4.2c1.3-1.2,2.4-3.2,2.6-5
			c0.9-7.4-0.1-14.7-2.5-21.9c-1-3.1-1.3-6.5-1.9-9.8c-0.7-3.9-1.1-7.8-2-11.7c-1.2-5.2-3.1-10.3-3.9-15.6
			c-0.6-3.7-0.5-7.8,0.4-11.4c1.2-4.6,3.5-8.9,5.2-13.5c0.9-2.5,2.5-3.2,4.6-1.5c3.7,2.9,7.1,6.2,11,9c6.2,4.5,12.6,8.9,21.1,7.2
			c3.5-0.7,6.7-3.2,7-6.2c0.2-2.1-0.3-3.8-2.2-5.2c-8.2-6.1-16.8-11.7-23.2-19.8c-4.8-6.1-9.2-12.5-13.6-18.9
			c-2.5-3.7-4.9-7.6-6.8-11.6c-0.7-1.5-0.4-3.6-0.1-5.4c0.5-2.7,1.5-5.2,2.1-7.9c1.2-5.1,2.1-10.2,3.4-15.3c1.2-5,2.8-9.9,4.1-14.9
			c0.8-3.1,1.2-6.3,2-9.4c0.8-3.4,2.1-6.7,2.8-10.1c0.9-4.2,1.6-8.6,2.4-13.1L50,0z"/>
	</g>
</g>
<g id="Top_Nav">
</g>
</svg>
