<svg xmlns="http://www.w3.org/2000/svg" xmlns:xlink="http://www.w3.org/1999/xlink" viewBox="0 0 174 117.7"><defs><path id="a" d="M0 0h174v117.7H0z"/></defs><clipPath id="b"><use xlink:href="#a" overflow="visible"/></clipPath><g clip-path="url(#b)"><defs><path id="c" d="M0 .5h173.7v117.2H0z"/></defs><clipPath id="d"><use xlink:href="#c" overflow="visible"/></clipPath><path clip-path="url(#d)" fill="#FFF" d="M164.4 64.2l-.2-.1.2-.2v-.2l.3.3-.1.3-.2-.1zm-2.8-1.8c-.1-.2-.2-.3-.1-.3 0-.1.1-.1.2-.1l.1.3.4.3-.1.2c-.3-.2-.4-.3-.5-.4m-1-1.4l-.3.1.4.5-.2.1-.2.1-.6.1.1-.4.1-.3-.2-.3c0-.2.1-.3.3-.2l.3.1.3-.1v.3zm3.5 2.6l-.7-.4-.1-.2.7.1.1.5zm-.2-.8l-.3-.3h-.3l-.3-.5c.5.1.8.2.9.4v.4zm-2-1.2l-.3.1-.1-.4.2-.1.7.2.2.4v.2l-.7-.4zm5 2.1c0 .1 0 .1-.1.2h-.5l-.4-.2.1-.1.1-.1v-.2h.2c.1 0 .2.1.2.2l.3-.1c0 .1.1.2.1.3m1.3.6s-.1.1-.3.1l-.5-.1-.2-.2.2-.2h.6c.1.2.1.3.2.4m-8.4-3.7l-.2-.1-.4-.3-.1-.4c0-.1-.1-.2-.2-.4l-.4.1-.3.2c-.2 0-.3-.1-.4-.2l-.1-.2.2-.1h.5l-.5-.5-.8-.5h-.3v-.3h-.4l-.1-.5-.3.1-.2.1-.3-.2-.1-.4.1-.1v-.2l-.2-.2v-.2l.1-.1c.1.1.1.2.1.3h.2l.2.1.1.2.2.2h.3l.4.3c.1-.1.2-.2.2-.3l.3-.3.2.7.3-.1-.1.2c-.1.2-.1.4 0 .7h-.3l.3.5.5-.1.1.4h.3c.1.1.2.3.3.4l.2.5.3.3.2.3c.3-.1.2 0 .1.1m-6.2-7.1l.2.2.2.3c0 .2-.1.3-.2.3-.2 0-.4 0-.4-.2l-.2-.7v-.3l.2-.1.4.2-.2.3zm-2.6-4.2l-.1-.4c.4.1.6.3.5.7l-.4-.3zm-4.8-4.9h.1v-.1l-.1.1zm24.1 22.1l-.1-.1v.2l.1-.1zm-23.1-20.1c0 .1 0 .1.1.2l.2-.1v-.2l-.3.1zm15.2.4l.1.2c.1 0 .1-.1.2-.1l-.1-.2c-.1 0-.1 0-.2.1m3.7 18.1v.3l.2-.4c-.1 0-.2.1-.2.1m3.3 3.4l.1.3.1-.1-.1-.2h-.1zm-3.9-3.5l.2.1.2-.1c0-.1 0-.1-.1-.2l-.3.2zm-3.6-18.5v.2c.1 0 .1 0 .2-.1v-.2c-.1 0-.2 0-.2.1m-5.7 8.5v-.3.3m6.1 8.5c0 .1.1.1.2.2l.1-.2-.2-.2-.1.2zm5 1.7v.2l.3-.1v-.2c-.1-.1-.2 0-.3.1m.9.2l.2.1c.1 0 .1-.1.1-.2l-.2-.1c-.1 0-.1 0-.1.2m-13.1-10.3l-.2.2s.1 0 .1-.1c0 0 .1-.1.2-.3.1.1 0 .1-.1.2m-8.9-9.9c0 .1-.1.1 0 .2 0 .1.1.1.2.2.1 0 .1-.1.2-.3 0-.1-.1-.2-.2-.3-.1.1-.2.1-.2.2M165 63.4c.1.1.2.2.3.2.1 0 .2-.1.3-.1 0-.1-.1-.2-.3-.2l-.3.1zm-.4-.5c-.2-.2-.4-.2-.5-.1l.2.3h.4l-.1-.2zm-13.9-13.1c0 .2 0 .3.1.4.2 0 .3 0 .4-.2 0-.2 0-.3-.1-.4-.2-.1-.3 0-.4.2m22.8 9.7l-.2-.7-.5-1-.6-1.9-.8-1.9-.1-.8-.4-.5v-.4l-.4-.3-.1-1-.5-1-.5-1.2-.3-.8-.2-.8-.4-.5-.3-.8-.1-.5.1-.4-.5-1.2-.1-.4v-.6c-.1-.2-.2-.4-.4-.6l-.1-.9-.1-.8c-.1-.4-.3-.7-.7-1l-1-.6-.7-.7h-.3l-.2-.1-.1-.1s-.1 0-.1-.1c-.2-.1-.4-.1-.6-.2h-.3v.2l.1.4c0 .1-.3.2-.6.3-.1.2-.2.5-.1.9l.1 1.2.3.3-.1.4.3.2.1.2-.4.2.5.5c.2.2.2.3.2.5-.1.2-.2.3-.4.4l-.5.1.2.7c.1.3 0 .4-.3.5 0 0-.1 0-.2-.1-.1 0-.2-.1-.3-.2h-.3l.4.6-.2.5-.1 1.1.4.4.1.5.1.5.2.1c.1 0 .2.1.3.2l-.2.9c.1.2.2.4.3.7v.8l.3.7.4 1.6.2.7.6.8.2 1 .2 1 .4-.3.4.2v.4l.1.2-.1.7c.2.6.3 1 .6 1.3l.3.2.2.6.1.7-.1.4c-.2.2-.4.3-.8.1l-.7-.4-.6-.2c-.2-.3-.3-.4-.5-.5l-.6-.3-.7-.7-.5-.1-.8-.7-1.3-1.1c-.1-.1-.3-.1-.4 0l-.4-.5c-.2-.1-.4-.2-.8-.3l-.3-.3c0-.1-.2-.1-.3-.2l-.3.1-.1-.1-.3-.3-1-1.2c-.5-.7-.8-1-1-1.1h-.2l.1.4c0-.1-.1-.1-.1-.1-.3-.1-.5-.2-.7-.3-.2-.1-.2-.3-.2-.6s0-.4-.2-.4c-.3 0-.5.1-.6.3l.1.5c-.2-.2-.4-.4-.4-.5l-.1-.6-.3-.3-.2-.5v-.8l-.1-.1c0-.1-.1-.1-.2-.1l-.3-.3.1-.1.1-.2-.3-.3v-.9c-.2-.2-.4-.3-.5-.1 0 .1 0 .3.1.6-.1 0-.2 0-.3-.2V48l.3-.3.2-.1c0-.2 0-.4-.1-.5l-.2-.4-.1-.6c-.2-.4-.4-.8-.6-1.1-.2-.3-.5-.5-.7-.6-.1 0-.2-.1-.5-.1l-.3-.1-.2.3c0 .1-.1.1-.2.2-.2-.1-.3-.2-.2-.4l.2-.4-.5-.1-.3-.1-.5-.5c-.1-.1-.2-.1-.4-.2 0 0 0 .1-.1.1v.2c0 .2-.1.3-.2.4 0 .2.1.4.4.6l.6.5c0 .2-.1.3-.3.4l-.4.2.5.4-.5.2c-.1 0-.1.1-.2.2 0 .2.1.3.2.4l.4.2v.3l.2.1.1.3-1 .9h-.5l-.6.5-.4-.1h-.4c-.1.1-.1.4 0 .9l.2.8.4.2v.6l.1.5.2.3-.1.2-.1.2c-.1.6-.1 1.1 0 1.6l.3.8.4.7v.6l.1.6.5.5.1 2.4.8 1.3v.9c0 .2 0 .5.1.8l.4 1 .7 1.6.5 1.2.1.5.3.9.7 1.4.7 1.5c.2.4.4.8.5 1.3l.4 1c.3.1.5.1.7 0 .2-.1.3-.2.4-.3l.3-.3.3.1c.2.1.3 0 .4-.1v-.3l-.4-.1.3-.7c.1-.1.3-.2.7-.3l-.3-.3.1-.9h.2l.1-.2.2-.5.2-.6-.1-.4h.3l.2-.4c.1-.1.1-.3.2-.5-.1-.2-.3-.6-.4-1.2L155 65l-.3-.3c-.1-.1-.2-.2-.3-.2 0-.1-.1-.1-.2-.2v-.6l-.2-.2-.1-.2V63c-.1-.5-.3-1.1-.6-1.5l-.3-.2-.1-.7-.2-.4-.2-.3-.2-.4c0-.1 0-.2.1-.4.2-.1.4 0 .6.2l.6.5.9 1.2.6.5c.3.2.5.4.6.5l.4.5.4.3c.2.1.4.3.7.6l.6.5 1.8 1.1.2.3.9.7 2 1.2c.7.4 1.4.7 2 .9l1.1.3.6.4.6.3h1.1l.5.2c.1 0 .3.1.5.1v-.2l.3-.1.2.2c.3.1.5 0 .7-.2.2-.3.3-.6.3-.9l.1-.7c.1-.1.2-.2.5-.4l.2-.5.2-.1-.9-.1c-.2 0-.3-.1-.2-.3.1-.2.2-.3.3-.2l.3.1v-.5h.4l.2-.3.6-.2c.2-.1.4-.2.5-.3.1-.2.2-.3.2-.6l.1-1.2.3-.7c.1-.3.2-.6.1-.8v-.8l.1-.4-.1-.7zm-54.1 17.9l-.1-.2.3.1-.2.1zm-.6-.5l-.2.1c-.2-.1-.2-.3-.1-.5l.1-.2c.1.1.2.3.2.6m.4-.8v.2l-.2.2c-.1-.1-.1-.2 0-.3 0-.1.1-.2.2-.3v.2m11.7 1.5l-.1.1v-.3l.1.2zm5.7-.7l-.1.4c-.1 0-.2-.1-.4-.2 0-.2.1-.3.4-.4h.4l-.3.2zM119.3 54c-.1.3-.3.4-.5.2l-.1-.4c0-.1.1-.2.1-.3h.2l.1-.2h.2c.1.1.1.3 0 .7m17.6 8.3l-.4.1-.2-.1c.1-.1.1-.2.2-.2l.4-.2.1.2c.1.1 0 .2-.1.2m-15-9.7c0 .1-.1.1-.2.2v-.2l.2-.1v-.3c-.1.1-.1.2 0 .4m5.1-.8c0 .1 0 .2-.1.2l-.1.5.1.4c0 .1-.1.1-.2.1l-.1-.4.1-.9v-.4l.1.1.3.1c-.1.2-.1.2-.1.3m6.5-2l-.1.3-.5-.4.3-.3.3.4zm1.9 0v.7l.2-.3c.1-.1 0-.2-.1-.3l-.1-.1zm-5.2-2.3h.1v-.1l-.1.1zm-8.6 2.9v.2l.1-.2h-.1zm-.8 2.9c0 .1 0 .1.1.2-.1-.1-.1-.2-.1-.2m9.1-3.7l.1-.1-.1-.1v.2zm13.3 24.8s0-.1-.1-.1c0 .1 0 .2.1.3v-.2m5.1-5.4v.2h.2l-.1-.2h-.1zm-36.4-7.5v.2l.1-.3-.1.1zm1.8-2.5l.1.2.1-.1v-.2l-.2.1zm6.1-5.2l.2-.1-.1-.3-.1.4zm12.6 25v.2h.2l-.1-.2h-.1zm-12.1-26.1v.2l.2-.1c0-.1 0-.1-.1-.2.1 0 0 .1-.1.1m-6.4 19.7c0 .1.1.1.1.3l.2-.1-.1-.3-.2.1zM131.7 49l.2.2.1-.2h-.3zm-5.9 29.8c0 .1.1.2.1.3.1.1.2 0 .3-.1 0-.1-.1-.2-.1-.3-.1 0-.1 0-.3.1m-14.9-8.1c0 .1 0 .1.1.2l.2-.1v-.2c-.2 0-.3.1-.3.1m17.8-22.1c0 .1 0 .1.1.2h.2v-.3c-.1 0-.2 0-.3.1m-17.5 17.5l.2.3.2-.1c0-.2 0-.2-.2-.2h-.2zm16.4 13.4l.1.3.1-.2-.1-.3-.1.2zM126.5 51c0 .1.1.1.2.1.2-.1.2-.2.1-.3l-.2-.1c-.1 0-.1.1-.1.3m1.8 28.5l.1.2.2-.2-.1-.2-.2.2zm-2.4-27l.1.3v-.3l-.2-.4.1.4zm5.6-2.3l.1.3.1-.5-.2.2zm-6.9 29c0 .2 0 .3.1.4l.2-.2c0-.1 0-.2-.1-.4-.1 0-.2.1-.2.2M148.1 69c-.1 0-.2 0-.4.1l-.4.2-.4.2-.7.7-1 .6-.5.1-.5.5c-.2.1-.4.2-.6.2l-.6.2-1.2.4-1 .4-2.6.6-2.5.6-1.7.3-2.7.1h-1.7c-.6 0-1.1 0-1.7-.1-1.2-.1-2.4-.3-3.4-.6h-.6l-1.6-.5c-.8-.3-1.4-.5-1.6-.6l-1.1-.8c-.8-.6-1.4-1.3-1.8-2.1l-.7-.9c0-.3 0-.5.2-.7l.2-.2.4-.1.3-.4.8-.3 1.3-.2.7.3s0-.1.1-.1v-.2c0-.1.1-.2.1-.3l.3.2.4-.1.2-.1 1-.4H124.4l.8-.3h.5l.4.2.3-.3 1-.4h.3l.4.1.6-.4 1.2-.3.6.1.7-.2.8.1h.4c.2 0 .3-.1.4-.3l.3-.4h.8l.4-.2.1.2.4-.1.4.2 1.2-.4h.6l.7-.4.5-.1.6-.2c.1-.1.2-.2.1-.5v-.5h.2l.1-.6.3-.1.2-.7h.4c0-.1-.1-.2-.3-.3-.2-.1-.2-.3-.2-.4l.3.1.2.1 1.7-.5c.1 0 .1 0 .2.1s.2.2.4.2l.2-.2c.1-.1.1-.2.2-.3l.1-.2-.1-.6-.4-.4-.1-.1.2-.6v-.3h-.2l-.1-.4-.2-.3-.5-.1c-.4-.1-.8-.1-1.4 0l-.5.1h-.3l-.3.2h-.8l-.1.1-.2.3c-.2.1-.6.2-1.1.1l-1-.1-.2.2-.2-.1H134.5l-.2-.1-.2.1-.2.3h-.5l-.5.1-.2.1-2.4.3c-.2 0-.5 0-.9.1s-.8.2-1.1.3l-.9.3-.5.1-.5-.1-.1.2h-.2l-.9.1-.8.1-.9.2-1 .2-.8.4-.8.4h-.5l-.6.3c-.3.2-.5.2-.7.2l-.5.3-.8.1h-.2l.1-.4-.1-.3.5-.7-.1-.5v-.4l.3-.2.6-.6.4-.7.8-1.2.5-.3.4-.8.3-.1h.2l.6-.5.5-.4.8-.3.3.2c.2-.1.4-.3.6-.8.1-.1.2-.3.4-.5 0 0 .1-.1.1-.2.1 0 .2.1.3.3l.1.4.1.2c.1-.1.2-.1.2-.2l.2-.2.3.4c.2.1.4.2.6.1l.7-.2.2-.1.5.1.5.3.5-.3.1.2c0 .1.1.1.2.1l.3-.2.4.3.1-.1c.1.1.2.2.1.5h.1s.1 0 .1-.1.1-.1.2-.1l.1.4c.1.2.3.3.5.3l.1-.5c0-.1.1-.1.2-.2.1 0 .2.2.2.5s.1.5.2.6c.1.1.3.3.5.6l.5.1.5.1.1.4.3.1s.1.1.1.2l-.1.2.1.1.8-.3c.3-.3.5-.5.4-.7l-.1-.1-.1-.2.4-.8-.1-.5c-.1-.2 0-.4.1-.5.1-.1.3-.3.6-.4l.3-.3c.1-.1.2-.3.3-.4l.5.2.2-.2.4.1.2-.2.3.2c.2.1.3.1.3 0 .1-.1 0-.3-.1-.4l-.4-.5-.2-.7-.3-.2-.4-.3-.1-.4-.5-.3-.1-.1-.3.1c-.1 0-.1-.2-.2-.5s-.2-.4-.3-.5l-.8-.3-.1-.1c0-.1-.1-.1-.1-.2l-1.1-.1-.8-.3-.4-.2-.3.3c-.1.1-.2.1-.3.2 0-.1 0-.3-.1-.6l-.2.2-.4.6-.2.5-.1-.1s0-.1-.1-.1c0-.1-.1-.2-.3-.2l-.1.3.2.2-.4.2v.5c-.1 0-.2.1-.3.2l.1.2h.3l.1.4.2.1.1.2v.2l-.3.2-.2-.2-.3.1h-.2l-.3-.1-.3.4c-.2.1-.4.1-.5 0l-.5-.3c-.1 0-.2-.1-.5-.1l-.1.2s-.1.1-.2.1c-.2-.1-.2-.2-.1-.4l.3-.3-.3.1-.1-.2-1.1.3-.1-.1s-.1-.1-.1-.2-.1-.1-.3-.2l-.1.2-.1.2-.2-.1s-.1.1-.3.2l-.3.1c-.1 0-.1 0-.2-.1l-.1-.3c-.1-.1-.3-.2-.7-.2-.3 0-.5 0-.6.1 0 .1.1.1.1.2s.1.1.1.2l.4.2.8.1c0 .1-.1.2-.2.3l-.2-.3-.2-.2-.2.2-.4-.1c0-.1-.1-.1-.1-.2s.2-.1.4-.2h-.3l-.1-.3-.1-.2c-.1.1-.2.2-.1.4l.3.7.3.7-.3.4.3.2-.3.1-.3.1s-.1 0-.1-.1c-.1 0-.1-.1-.1-.1l-.3-.4v-.5l-.1-.1-.2-.2-.2-.4-.3-.2-.3.2-.5-.1-.2.6-.4.1-.1.2h-.4l-.6.4-.2.3-.4.1v.4c0 .1-.2.1-.4.2l-.3.2-.1.5c-.1 0-.2-.1-.3-.1-.1.2-.4.4-.7.6v.5c0 .1-.3.2-.7.4l-.1.6c-.1.1-.2.1-.3.1h-.3c-.1.2-.1.5-.1.8l.1.1v.2c0 .1-.2.1-.5.2-.1.1 0 .3.1.5l.3.3-.9.8.5.7-.2.3-.2.2c0 .2 0 .3.2.6-.1 0-.1.1-.3.1l.1-.6h-.6l.2-.4-.1-.3-.2-.1-.1.3v.6l-.1.4.2.1.1.2-.1.1c-.1 0-.2.1-.4.1-.1 0-.3.2-.4.4l.1.2.2-.1-.1.3.2.4c0 .2-.2.3-.5.2l-.5-.1c-.1 0-.1.1-.1.3l-.1.4c-.1.1-.2.3-.2.5l-.2.5-.4.5.1.5-.3.1.1.4-.2 1 .2.2.2.2-.7.5h-.3l.2.3.4.7c.3.3.4.5.5.7l.1.8-.1.3.4.8.1.4-.3.1.2.6-.3.3.1.4.3.2.3.4c.1.1.2.1.4.2l.1-.2.2-.1c.1.1.2.2.2.5l.2.6.3-.2c.1 0 .1.2.2.5l.2.7.5.1.4.6.7.1V76.8c.1 0 .3 0 .6-.1l.1.3.4.4h.3l.1.3c.1 0 .1 0 .2-.1l.1-.3.2.2.2.2.5-.1.2.2.7.1v.2l-.2.2.7-.1c.2 0 .4.1.4.3l.4.2.4.5c.2 0 .4.1.7 0 .1.2.1.3.1.5.2 0 .3-.1.4-.3.1-.2.2-.3.5-.5.2 0 .4.1.6.2l.1.6.6-.4.4.1.3-.1-.1-.3.2-.2.3-.2c0 .1.1.1.3.2l.3-.1c.2 0 .3 0 .3.1v.4c0 .2 0 .3.2.4.1 0 .2-.1.2-.1l.2-.3c.1 0 .2.1.3.3.1 0 .3.1.7 0v.3l.5.2c.3-.1.4-.2.5-.5l.3-.9c0-.1.1-.2.1-.3l.2.1.1.3.4.1.2.2c.1.2.3.2.6.2l.6-.1.1-.5h.3l.1-.3.2.8c0 .1.1.2.3.3.2-.1.3-.2.3-.3l.1-.3.1.3.7-.2h.6l.1-.3.7-.3.6-.1.3-.3.3-.3h.6l.4.1c.1-.1.2-.2.3-.4V77c.1 0 .2.1.3.1l.4.2h.7l.2.3.4-.2.5-.3.8-.2.4-.2.2-.4c0-.1.1-.2.2-.3h.1c.1.1.1.2.1.3l.2-.1h.2c.1-.1 0-.3-.2-.5-.1-.1-.2-.3-.3-.4.2-.1.4-.1.6.3l.2.1c0-.1 0-.3-.1-.4v-.4c.2-.1.3-.1.5.1s.3.3.5.1l.3-.4.5-.1.6-1.3h.5v-.2h.2l-.1-.4c.1-.1.3-.2.7-.2l.2-.4.4-.1.4-.2.2-.2.2-.5c.1-.1.3-.2.6-.4v-.3l.3-.2V70l.4-.4c-.1-.2 0-.3 0-.6 0 .1 0 .1 0 0M127 49.4c-.1.1-.2.1-.3.2v.3l.2-.2.4-.3-.1-.2c0 .1-.1.1-.2.2m.7.1l-.1.3c.1.1.3 0 .5-.3v-.2c-.1 0-.2 0-.4.2m.5-.4l.1.5v-.4l.1-.3-.2.2zm8.1-3.2c-.1-.1-.3-.2-.3-.3-.1-.1-.2-.2-.4-.3l-.3.4c0 .1-.2.1-.4.2V47l.4.2.1.2.2.2.7.1c.2 0 .3-.1.3-.4v-.8l.2-.1v-.3l-.5-.2zM97.5 78.1l-.7.2.1-.4c.1-.2.3-.2.5-.1l.1.3zM95 76.6c0 .1 0 .1-.2.2l-.4.1-.3-.3h.3l.2-.2c.1 0 .2.1.4.2m23.4 11.9c-.1.1-.2.1-.4.2-.3 0-.4-.1-.6-.2l.2-.1.5-.2.3.1c.1 0 .1.1 0 .2m-1.2-.4c0-.1 0-.1 0 0-.1-.1-.1-.2-.1-.3 0-.1.1-.2.1-.3.3-.1.6-.1.8.2l-.8.4zm2.8-.8l-.2.3c-.1 0-.3 0-.5-.1s-.4-.2-.6-.4l.2-.1c.1-.1.4-.2.7-.3.1 0 .2-.1.4-.3l-.2-.1-.5-.8.2-.1.1-.2-.4-.2-.4-.1-.3-.8-.8-.6-1.1-1.2-1-1.2-1.1-1.4-1.2-1.8-.5-.4-.2-.6-.9-1-.3-.8-.4-.4-.4-.5-.2-.6-.4-.5-.5-.5-.3-.6-.3-.9c-.1-.4-.3-.7-.5-.8l-.5-.1c-.1 0-.2-.1-.3-.2l.3-.5-.4-.5v-.3l-.3-.4c-.1-.1-.2-.3-.5-.4-.3-.1-.5-.3-.6-.5l-.5-1.1-.3-.6-.4-.6c-.1-.2-.1-.4-.1-.6l-.4-.7-.4-.6s-.1 0-.1-.1h-.3c-.2 0-.4-.1-.6-.2l.5-.8-.1-.2-.7-.9-.3-.1.4-.3-.1-.1c0-.1-.1-.1-.2-.2-.1 0-.2-.1-.3-.3l.1-.3.2-.4c0-.2-.1-.2-.3-.2h-.3c-.1-.1-.1-.3-.1-.5l-.5-.1.2-1.1-.2-.2-.1-.3.2-.1v-.2s-.1 0-.1-.1h-.5l-.5-.4-.5.2-.4-.1V56s.1-.1.2-.1.1-.1.2-.2c-.1-.2-.3-.3-.7-.3h-.7c-.1 0-.2-.2-.2-.5-.2-.2-.4-.2-.7-.1v.3c.1 0 .2.2.2.4l-.6.9.1.6-.3.1c-.1 0-.1.1-.2.2l.2.1.2.2c-.3.2-.4.3-.3.5l.3.6-.4.5c-.2.2-.3.4-.3.6 0 .3.1.5.2.6.2.1.4.1.7 0v.3l-.1.3-.5.1-.7.8c-.1.2-.1.4.1.6.1.1.2.2.5.2l.7-.1-.1.2-.3.1c-.1 0-.2.1-.4.3l.3.6-.2.4.2.1v.2l-.1.1.1.2-.2.5.7.3.1.4v.5l-.6.2c-.1.1-.1.3-.1.5v.8l.2.5c0 .2 0 .5.1.8l.1.7.2.6.2.2.1.3.2 1.5-.1.4c0 .1-.1.2-.1.5l.4.1v.2l.2.1.1.5.3.7c.1.2 0 .6-.2 1l.1.3c0 .1 0 .2-.1.3-.4.1-.7.1-.9-.1-.2-.2-.4-.4-.7-.5l-.8.1-.1-.3c0-.1-.1-.3-.3-.4l-.7-.3v-.3h-.4s-.1-.1-.2-.3l-.4.1-.3-.1c-.1-.1-.3-.1-.4-.1l-.4-.1.2-.1-.2-.3-.2-.2-.4-.1c-.1-.1-.2-.1-.4 0l-.4.1-.4-.4c-.1-.1-.2 0-.4.1l-.4-.3h-.5l-.2-.2-.1-.4-.2-.2c0-.1.2-.1.4-.2 0-.1-.1-.2-.2-.4l.1-.3c-.1-.1-.2-.1-.5 0l-.1.1c-.1 0-.1-.2-.2-.3-.1-.1-.3-.2-.6-.1l-.5-.1.1-.7-.8-.2-1.1-1.1-.7-.3v-.3l-.1-.3h-.3l.1.2c-.1.2-.2.2-.4.2l-.6-.3-.4.1c-.1-.2-.2-.4-.1-.6l.2-.3-.5-.2.2-.4-.2-.2c-.2-.1-.4-.1-.5-.1l-.6.3-.4.1h-.2c0-.1 0-.1.1-.3h.5l.1-.5-.3.1c-.1 0-.2-.1-.3-.3l-.1-.6-.5-.4v-.2l-.5.1c-.2 0-.4-.1-.7-.2l-.5-.6c-.1-.1-.2-.3-.4-.6v-.3l-.1-.2c-.3 0-.4.1-.5.3l-.1.5-.4.6.2.4c-.1.2-.4.5-.8.9 0 .1 0 .3.1.6l-.2.4c.1.4.3.5.7.6.1 0 .1.1.1.2l-.4.2.2.3.2.1.1.4h.3l-.3.3-.1.2.2.2-.1.3.3.2v.5l.4.5.1.2-.2.3-.1.2.2.1c.1 0 .1.1.1.2l-.8.5-.3.8-.3.2v.4l-.2.3c-.1.1-.1.2 0 .4l.4-.2c.1-.1.2-.2.3-.4h.2V74l-.1.3c0 .1-.2.1-.5.2-.1 0-.2.1-.4.3l.1.9.3.8v.4l.4.6c.1.1.2.3.4.6l-.1.3.3.8v.1s-.1.1-.1.3c.1.1.2.2.4.3l.3.9.1.8c.1.2.3.4.5.5l-.1-.1c0 .1.2.4.5.7l.6.5.1.3h.2c.1 0 .2-.1.3-.1.1-.1.2-.1.4-.2v.2l-.1.2.1.6.4.2v.8c0 .1.1.1.2.2h.3l.1.2.6.1.2.6.4.2-.7.2.4.1h.3V87.1c0 .1 0 .2.1.4l.7.4.5 1c0 .1.2.1.4.1h.5l.6.4h.3c.1.1.2.1.1.3v.2h.5l.2.2c.1 0 .3-.2.3-.6.1-.3.1-.6.1-.7v-.3h-.3l-.2-.1.3-.1.2-.5-.8-2.2-.5-.6-.3-.6v-.3l-.5-.4-.2-.8-.3-.1c-.1 0-.2-.1-.3-.2l.1-.5c-.1 0-.3-.1-.4-.2l-.3-1-.4-1c-.1-.2-.3-.4-.6-.7l-.4-.4.1-.1-.2-.5-.2-.4h-.1l-.1-.3.2-.1c.1 0 .2-.1.3-.3l-.4-.7-.5-.4.2-.2-.1-.2-.2-.3v-.8l-.4-.3.3-.5-.3-.4v-.4l-.1-.9c.1 0 .4.1.6.4l.5.6s.1 0 .1.1h.5l.2.3.5.2.1.3.2-.1.3.1.3.2v.1l-.3.1.2.2v.3l.5.3.2.5.5.3h.2v.3l.4.4h.3l.1.2.5.2-.1.1c.1.1.3.1.6.1l.1.5.5.1v.5h.3l.4.5.6.5.2-.2.2.1h.2l.1-.2-.1-.4.6-.2v.6l.5.1-.2.9c.3.3.7.4 1.2.3.3-.1.5 0 .6 0l-.1.4v.3s.1 0 .1-.1c.1 0 .1-.1.2-.2.2-.3.3-.4.4-.3l.1.2-.1.3c.1.2.1.4 0 .5l.1.5.8.5.3.4 1.1.3c.2.1.5.3.8.6l1.3.2.3-.1.7.3s.1 0 .2-.1.1-.2.2-.3l.2-.2.1.2c0 .1.1.1.3.1.1-.2.2-.4.1-.6 0-.2 0-.4-.1-.7l.8-.1.2-.3.4-.2.3.1-.2.3h.3l.3.1v-.5c.1-.1.2-.2.4-.2.1 0 .2-.1.4-.2l-.1-.6.5-.6-.1-.5.1-.5h-.2c-.1 0-.1 0-.2-.1.1 0 .2-.1.4-.3v-.2l-.4.1c-.1 0-.2 0-.3-.2l.1-.1s.1-.1.2-.1l.3-.1c.1-.2.2-.4.2-.7v-.8l-.3-.4.1-.3.3-.1.3.7.4.5.4.4.1.4.4.8c.1.2.3.3.5.4l-.1.4.4.1-.1.3.4.7.3.4.6.8.6.7.1.6.5.6.6.6.1.4.4.6c.2.2.3.4.4.6l.6.5.4.7c.2.4.6.8 1.2 1.1l.1.3.2.3c.2 0 .4 0 .5-.1 0 .1 0 .3.1.6l.1.3.4.4.8.5.2.3.8.5h.4s.1 0 .2.1c.1 0 .1.1.2.1l.4-.2.3-.2h.5l-.1-.4c.1-.2.2-.3.4-.2l.1.3.2.1c0 .2-.1.3-.3.4l-.4.3h.4c.4 0 .7-.2 1.1-.5.4-.3.5-.6.4-.9-.1-.2-.3-.2-.5-.1l-.7.2c0-.1.1-.3.3-.4.2-.1.4-.2.5-.3.1-.1.2-.1.2-.2l-.4-.3s.1 0 .2-.1H119.9s-.1 0-.1-.1h-.4c-.2 0-.3-.1-.5-.3-.2-.2-.2-.4-.1-.5.1-.1.2-.2.4-.2l1-.3.2-.1-.4-.3zm-19-31.4c0-.2 0-.3.1-.4l-.4-.2-.2-.2-.2-.2-.2.2-.1.2-.1.1.5.4.5.3-.4.2-.1.4c.2.1.4.1.6-.1.1-.2.2-.4.2-.7h-.2zm-.3-1.9l-.3-.5v-.4l-.2-.2v.3h-.3l-.3.3-.5.1c-.2 0-.4.1-.4.2l.1.4.4.4c.3.2.7.2 1.2.1.1 0 .2-.1.4-.3l-.1-.4zM71.6 83.5c-.3.4-.8.8-1.5 1.2-.7.4-1.4.7-2.1.9-1.1.3-2.4.4-3.7.3-1.3-.1-2.7-.3-4.1-.6-1.9-.5-3.3-1-4.2-1.4-1.5-.7-2.7-1.5-3.6-2.4l-1-1.1c-.2-.2-.3-.4-.3-.6-.1-.4-.1-.6-.1-.7-.1-1.2.3-2.6 1.1-4 .8-1.5 1.7-2.6 2.8-3.3l.6-.5c.7-.5 1.2-.7 1.4-.7l.3.3-.2.5v.5l.8.3.5.4.9.2h.4l.5.5 1 .2 1.1.2.7.4.9.4.3-.2c.1-.1.2-.2.4-.1l1.2.8c0 .2-.1.3-.1.4l.3.4h.2l.3.1.1.3.5.2c.1.1.3.2.4.4l.4.4.5.2c.2.1.4.2.5.5l.3.4.3.1.3.1.7.7.7.7.4.2.1.5.3.2c.1.2.3.5.4.9 0 .6-.2 1.2-.7 1.8m-7.7-12.1l.2.4-.5-.2.3-.2-.1-.3.1-.2v.5zm10.2 16.7l.1.2h.2v-.1s0-.1-.1-.1h-.2zM67 91.5c.1.1.1.2.2.2h.3l-.2-.3c-.1 0-.2 0-.3.1m-2.4-20c-.1 0-.1.1-.2.2l.3-.3-.1.1m.7 20.3l-.6-.1-.1.1.4.2.7.1.2-.2c-.1 0-.3-.1-.6-.1m11.3-10.9l-.4-.4.1-.6-.5-.5-.5-1.1-.5-1-.7-.6-.4-.5c-.1-.2-.3-.3-.5-.3l-.4-.2c-.1 0-.1-.2-.2-.3 0-.1-.1-.2-.2-.3l-.3.1-.1-.3-.9-.5-.4.1c-.1-.1-.3-.3-.5-.6l-1.1-.3c-.1-.1-.4-.2-.7-.5l-.6-.1-.2-.2-.2-.2c-.1 0-.3-.1-.5-.1s-.4 0-.7.1l-.6.1h-.3c-.1-.1-.2-.3-.1-.5 0-.3.1-.5.2-.5l-.4-1 .1-.4v-.5l-.4-.1h-.2l-.5-.2-.4-.2-.6.2-.1-.4-.4-.3-1 .2-.6-.1-.5.7-.9-.6c-.2-.2-.5-.4-.9-.5l-1-.3-.7.4-.7.1-.4.3-.3.1c-.2-.1-.3-.2-.3-.3v-.3l-.3.1.1.5-.3.2-.3.2c-.1.1-.3.2-.6.3l-.6.2-.5.1-.3.4-.4.3-.5.1v.7l-.5.8c-.1 0-.2.1-.4.2l-.1.3-.3.3c-.2.1-.2.3-.2.4v.2L48.8 75c-.1.1-.1.3 0 .6l-.1.5-.4.5.2.7-.2.6.4.6-.2 1.1c-.1.2-.1.5 0 .7l.3.4.1.6.8.7c.1.1.2.3.3.8l.5.6.7.4.2-.2.3-.1.8.3.7.3c.1 0 .2.1.3.3l.2.4.7.2h.4l.3.4.4.4 1.4.6 1.3.7h.4l.6.1c.2 0 .4.2.7.7l.5.8.1.7.5-.4.3-.1.1.3.1.5.1.2.3.2.4.7c.3.2.5.3.6.3l.3-.2c.1-.1.2-.1.4-.2l.4.4.3.3.9-.1.2-.2h.1v.2c.2.1.4.2.7.2l.3.5 1.2.3h.2l.2-.2.5-.1c.1 0 .3-.2.4-.4v-.2l.1-.2.2.1v-.2l.3-.2h.1c0 .1.1.1.1.2l.5-.3c.2-.2.4-.2.6-.2.1.1.1.2.1.4 0 .1.1.2.2.3l.1-.1c0-.1.2-.1.4-.2l.8-.4.2-.3.8-.4.5-.4-.1-.4.3-.2.3-.1c.2-.1.3-.3.4-.6 0-.2-.1-.4-.3-.8-.2-.4-.3-.7-.2-.8.1 0 .1 0 .3.1l.2.2h.6l.2-.2c.1-.1.1-.2.2-.3l.3-.6.4-.1.4-1.3.2-1-.2-.3-.1-.3.2-.6-.1-.8-.4-.5zM65.2 69.8v.2h.2l-.2-.2M27.9 99.7v.3l.3.1.1.2-.5-.1-.1-.8-.3.1-.1-.2.3-.4.1.2.3.2.3.2-.4.2zm0-1.2c-.2-.1-.3-.3-.3-.4.1-.2.2-.2.4-.1l.2.2-.3.3zm13.6-22.6v.3h-.3c-.2-.1-.3-.3-.3-.4l.1-.3h.2c.1 0 .2.1.3.4M24.4 89.8c0-.1-.1-.1-.1-.2l-.1-.1s0 .1-.1.1c0 .1-.1.2-.1.4 0 .1.1.2.2.4l.2-.3-.1-.2h.2s-.1 0-.1-.1m22.3-16.5l-.5.1-.1-.7V72h-1.3v-.3c-.1-.1-.2-.1-.4-.1l-.3-.1-.1-.3-.3.3H43c-.1 0-.1.1-.1.2h.3l.2.1-.2.1-.2.6c0 .2-.2.3-.3.3l-.1.7-.4.2-.4.1.3.2-.1.2c-.2.1-.4.1-.7 0l-.3.2-.1.1-.2-.1-.1.2-.3-.1c-.1-.1-.2-.1-.2.1-.1.1-.1.4 0 .6l-.2.2c-.1 0-.1.1-.2.3l.2.5-.4.1-.1.5-.2 1.5c0 .4 0 .7.2 1.1l.6.8-.1.6c-.1.3-.1.5 0 .7l.3.4-.2.5.2.8.1 1 .4 1v1.2l.2.6.2.7.3.9.3.8v.8l.1.6.2.7.3 1-.1.2.2.7.2.5.1.2v.3l.1 1 .2.7c.1.4 0 .7-.3.7l-.2-.3.3-.3c-.1-.1-.2-.2-.4-.2l-.4-.2v-.7c-.3-.2-.4-.3-.5-.6l-.2-.5-.3.2c-.1-.1-.2-.2-.2-.3 0-.2-.1-.3-.1-.5h-.2c-.1 0-.2-.1-.4-.2l.2-.3c0-.1.1-.2.1-.4-.1-.2-.3-.2-.4-.2l-.5-.6-.4-.6-.1-.5-.2.2h-.1c-.1 0-.1-.1-.3-.2h-.2l-.2-.5v-.6l.2-.2-.2-1.1-.7-.2c-.1 0-.2-.1-.4-.3l-.1-.1-.1.3-.1.1c-.4-.3-.6-.5-.7-.6l.1-.3.1-.2h-.2l-.7-.5-.1-.5h.2l.1-.2-.3.1-.3-.3-.2.1.2-.6c0-.1-.1-.2-.3-.3h-.2c0-.1 0-.3.1-.5l-.3-.1-.3-.1c-.1 0-.2-.2-.4-.6l-.2-.7.1-.4-.4-.3-.2-.1.1-.6-.4-.6-.8-.5-.5.1-.3-.3c-.1-.1 0-.2.1-.4-.3-.2-.5-.4-.6-.7l-.1-.7-.3-.5.2-1.1-.1-.6.2-.9v-.7c-.2-.4-.4-.6-.8-.6H29c-.2 0-.3.2-.4.5l.1.4-1.3.5.1.9-.2.1.2.4-.3-.1-.3.2-.1-.1h-.2c-.3.3-.5.6-.4.8l.2.1-.2.4c.1.1.2.3.2.5l-.2.1.1.5-.3.8-.2.2.4.4.5-.1-.4.3-.3.3.4 1-.3.1.1.1h.2v.2l.4.2.1.5-.1.7c0 .1.1.2.1.3h.3l-.3.3-.1.2c0 .1 0 .3.1.5l.3.2c0 .3 0 .6-.1.9h.4c0 .2 0 .3-.1.4l-.3.5c0 .2 0 .5.1.8v.8l-.3.6.3 1.1.1.5-.2.2.2.2-.1.5.1.1.1.1-.1.1s-.1.1-.2.1-.2.1-.3.3l.4.2c.1 0 .2.1.3.1l-.1 1 .3.6h-.2c-.1-.1-.2-.1-.2.1l.2.4-.2.2.1.4.1.4.3-.1c.2.2.3.4.3.7l-.4.3.4.6-.6-.2c-.1.1-.2.2-.3.4v.5c-.2 0-.3-.1-.3-.3l-.2-.6-.5-.2c-.1-.1-.3-.3-.3-.5l-.6-.1c0-.1 0-.1.1-.3l.3-.1c0-.2-.1-.5-.3-.8V95l.2-.2-.3-.4-.2-.6.2-.4.3-.1-.4-.6-.1-.9-.3-.8-.4-.5v.2l-.5.3c-.2.1-.3.3-.2.4l.4.7-.1.5.2.4c0 .3-.1.7-.2 1.1-.1.1-.1.5.1 1.1l-.1.2-.3-.4-.8-1.5-.5-.5v-.4l-.8-.8c-.2-.2-.5-.5-.6-.8l-.4-.6-.5-.8c-.2-.5-.5-.8-.7-1l-.7-.9c-.4-.6-.7-.7-1-.5l-.3.1.3.3v.2l-.1.2v.7c0 .2-.1.4-.2.7-.1.3-.1.6-.1.7l.6 1 .1.8c.2.2.5.3.7.2h.1c0 .2 0 .3-.1.4v.4l.4.3c.1.1.2.4.3.8l.3.2.1.7.5.1c.1 0 .2.1.3.2-.1.1-.1.2-.2.2l-.3.1.2.6.1.2v.5l.3.7.3.4.4.4-.1.4.3.7c.1.2.2.4.3.7l-.1.3c0 .1-.1.2-.1.4 0 0 .1 0 .1.1 0 0 .1 0 .2.1l-.2.3.4.3v.4l.1.2.2.1.4.5c.1.1.1.3.2.5l-.5.2c0-.1 0-.1.1-.3.1 0 .1-.1.1-.2h-.2l-.2-.1-.4-.3.1.6-.1.4.1.3h.2c.1 0 .2 0 .3.1l-.2.3.1.3-.3.5.3.3.1.1.1.6.1.6.8.9.5 1 .5.7.4.3.4.2.7-.5c.1 0 .1.1.2.2s.1.2.2.4l.6.1c.2 0 .3.2.3.4l.6.4 1.5.1.6-.1-.1-.4c0-.1.1-.2.2-.3l.4.1.2-.2.9-.4c.3-.2.6-.4.7-.5.1-.2.2-.4.2-.6v-.6l.2-1.6c0-.3.1-.5 0-.7 0-.2-.1-.5-.1-.9-.1-.1-.2-.2-.3-.2l.1-.1.2-.3c.1-.6.1-1.1 0-1.7l-.2-1.1-.2-1.6c0-.3-.1-.7-.3-1.3l-.3-1.6-.3-2.2-.2-2.5-.2-2.2-.3-2.4c0-.1 0-.3-.1-.6v-.6h.2l.1.3.1.5.6.8-.2.5.5.8v.5l.3.6s0 .1.1.1.1.1.2.1l.2.4.1.5.7.8v.4l.1.4.4.7.4.5.4.8.4.4c.2.2.3.5.4.8l.3.7.4.3.3.2.4.6.4.7.7.8.8.6c.1 0 .2.2.3.5l.3.5.3.2.1.5 2 1.7 1.1.8c.9.5 1.5.8 1.9.8l.3.2c.1 0 .2.1.4.1l.2-.2.8-.3.2-.5.2-.1-.1-.4-.1-.5c.1.1.2.3.3.6.1.1.3.1.4 0l.4-.2h.5l.2-.1.9.1c.2-.2.3-.3.2-.5l-.1-.3.4-.2c.1 0 .2-.1.4-.3l-.7-.2.1-.3c0-.1.1-.2.1-.4l-.3-.1-.2-.1-.2-.3-.7-.3v-.2l.1-.2s-.1 0-.1-.1h-.2l-.1-.2-.4-.3.1-.6-.1-.1c0-.1-.1-.1-.2-.1s-.2-.1-.3-.3l.2-.3.3-.3-.5-.7.1-.1.1-.2h-.2l-.3-.2-.2-.2.4-.1c0-.1 0-.2-.1-.3l-.3-.2c.1 0 .1-.1.1-.2l-.1-.3v-.3l.3-.1-.1-.1-.3-.1c-.1-.2 0-.4.1-.6l-.5-1.1.1-.1V93h-.2v-.4l-.2-.3c0-.3 0-.5.1-.7h-.4l.1-.3.3-.4c0-.2-.2-.4-.4-.6v-.4l-.2-.2.3-.2.1-.4-.3-.6.2-1.5-.1-.3-.2-.3.1-.5-.6-.4.2-.4-.1-.3.2-.2c.1 0 .1-.2.2-.3h-.3c-.1 0-.2 0-.3-.1 0-.2.1-.3.3-.4l.3-.3-.2-.1-.1-.2.4-1c0-.2-.1-.2-.2-.2l-.3-.1.1-.2.1-.2-.3-.5c-.1-.1-.2-.2-.3-.4l.3-.3.4-.6.1-.2c-.1-.2-.3-.2-.7-.2-.3.1-.5 0-.6-.1l.5-.3-.1-.2.1-.2.2.1.1.1c.3-.4.3-.9.2-1.3l-.2-.1v-.4c.1-.1.2-.2.4-.2l.5-.2-.1-.3.2-.2c0-.2-.1-.3-.3-.2l-.4-.1c0-.1.2-.2.4-.3.2-.1.3-.2.3-.3 0-.1.1-.2.1-.3l.1-.1-.2-.2c0-.4.1-.7.2-.8.1-.1.3-.2.7-.2-.1 0-.1-.1-.2-.2M161.1 20.3l-.1.2-.3-.2.2-.3h.2v.3zM145.6.6c0 .1-.1.1-.1.2 0-.1.1-.2.1-.3.1 0 .1.1 0 .1m7.1 23.8c.1.2.1.3.2.3s.1-.1.2-.1c-.1-.2-.1-.3-.2-.3 0 0-.1 0-.2.1m-.8-9.1v.3c.1.1.2 0 .3-.1.1-.1.1-.2 0-.3s-.2 0-.3.1m15.5-4.3l-.3-.3c-.1-.1-.2-.1-.2-.2l-.3.2-.3-.1-.8.4-.6.4-.1.2-.2.3-.4-.3.1.4c0 .1-.1.3-.3.4-.2.1-.4.3-.6.4l-.4-.1-.5.2-.4.3-.7.7-1.7 1.2-1 1c-.2.2-.5.4-1.1.7l-.3.4c-.1.1-.2.2-.4.3l-.5.3-1.7 1.2h-.7l-.4.1-.1-.2c-.3-.2-.4-.4-.5-.6V18l-.4-.3c-.1-.1-.2-.3-.2-.5h-.2l.2-.5-.2-.5-.3-.1h-.2l-.3-.7-.2-.7v-.5l-.3-.5-.2-.6.2-.7c-.1-.1-.1-.2-.2-.3-.1-.1-.1-.2-.2-.3l-.3-.7-.4-.4v-.2l.2-.2v-.7l-.3-.5v-.6l-.4-.5-.2-.6-.1-.8-.3-.4v-.8l-.2-.2-.2-.2-.3-.8-.4-.2.1-.2.1-.2.1.1.1-.4-.1-.2-.1.2-.1.2c-.1 0-.2 0-.3-.2l-.2.3-.2-.1-.1-.4c0-.1.1-.2.1-.4l.4.1c.3.2.5.2.6.1l-.4-.9-.2.1-.1-1.2-.5.1-.2-.2-.6.3-.1.3-.2.2-.3-.5-.2-.3-.3.7c-.2.3-.4.5-.5.9v.3l-.3.4.1.1-.3.2.2.6-.2.2-.1.6-.1.3h-.6c-.2 0-.3.1-.2.2l.5.1.2 1.4.4.3.8 1.2.2.7.3 1 2.8 5.9.2.8c0 .2 0 .5.1.8l.3.9.6 1.1.1.6.1.7.3.4h.3v.8l.7 2.1c.4.7.7 1.1.9 1.3l.9.4c.3.1.5.3.6.4l.2-.8c.1-.3.2-.3.3-.3l-.1.4.3.8c.1.1.3 0 .5-.3.1-.1.3-.2.6-.4l.2.1.2-.4.4-.1v-.3l.6.1.3-.6.6-.3.7-.5.4-.7.3-.1.3-.4v-.3l.2-.2.3-.3.8-.2.1.2.3-.1c.1-.1 0-.3-.1-.4-.1-.2-.2-.3-.1-.4l.3-.1.2.4c.1 0 .2-.1.3-.3l.1-.6c.1-.1.4-.1.7-.1v-.5c0-.2 0-.3.1-.4.1-.1.2-.1.3 0l.3.2.1-.2.1-.2.3.1.4-.7V18c0-.1.1-.2.2-.3l.4.3c.1.1.3.2.5.2v-1c0-.1.1-.2.2-.3l.5-.3.4-.3-.1-.4c0-.2.1-.3.2-.3l-.2-.5.2-.2v-.4h.2l.2.1.3-.7c.1-.3.3-.6.7-.8l-.1-.3.2-.1v-.3l-.1-.4.2-.5-.2-.5zm-46.7 22.3l-.1-.2.3.1-.2.1zm-.6-.5l-.2.1c-.2-.1-.2-.3-.1-.5l.1-.2c.1 0 .2.3.2.6m.4-.8v.2l-.2.2c-.1-.1-.1-.2 0-.3 0-.1.1-.2.2-.3v.2m11.7 1.5l-.1.1v-.3l.1.2zm5.6-.7l-.1.4c-.1 0-.2-.1-.4-.2 0-.2.1-.3.4-.4h.4l-.3.2zm-17.2-23c-.1.3-.3.4-.5.2l-.1-.3c0-.1.1-.2.1-.3h.2l.1-.2h.2c.1.1.1.3 0 .6m17.5 8.4l-.4.1-.2-.1c.1-.1.1-.2.2-.2l.4-.2.1.2c.1.1.1.2-.1.2m-15-9.8c0 .1-.1.1-.2.2v-.2l.2-.1V8v.4m5.1-.7c0 .1 0 .2-.1.2l-.1.5.1.4c0 .1-.1.1-.2.1l-.1-.4.1-.9v-.4l.1.1.3.1c-.1.1-.1.2-.1.3m6.6-2.1l-.1.3-.5-.4.3-.3.3.4zm1.9.1v.7l.2-.3c.1-.1 0-.2-.1-.3l-.1-.1zm-5.3-2.3h.1v-.1l-.1.1zm-8.5 2.9v.2l.1-.2h-.1zm-.9 2.9c0 .1 0 .1.1.2 0-.1 0-.2-.1-.2m9.2-3.7l.1-.1-.1-.1v.2zm13.3 24.8s0-.1-.1-.1c0 .1 0 .2.1.3v-.2m5.1-5.4v.2h.2l-.1-.2h-.1zm-36.5-7.5v.2l.1-.3-.1.1zm1.9-2.5l.1.2.1-.1v-.2l-.2.1zm6.1-5.2l.2-.1-.1-.3-.1.4zm12.6 25v.2h.2l-.1-.2h-.1zM121.6 8.6v.2l.2-.1c0-.1 0-.1-.1-.2.1 0 0 .1-.1.1m-6.4 19.7c0 .1.1.1.1.3l.2-.1-.1-.3-.2.1zm17.7-23.4l.2.2.2-.1-.4-.1zm-5.8 29.7c0 .1.1.2.1.3.1.1.2 0 .3-.1 0-.1-.1-.2-.1-.3-.1.1-.2.1-.3.1m-14.9-8c0 .1 0 .1.1.2l.2-.1v-.2c-.2 0-.3.1-.3.1M130 4.5c0 .1 0 .1.1.2h.2v-.3c-.2 0-.3 0-.3.1M112.5 22l.2.3.2-.1c0-.2 0-.2-.2-.2h-.2zm16.3 13.4l.1.3.1-.2-.1-.3-.1.2zm-1.1-28.5c0 .1.1.1.2.1.2-.1.2-.2.1-.3l-.2-.1s0 .1-.1.3m1.9 28.5l.1.2.2-.2-.1-.2-.2.2zm-2.4-27l.1.3v-.3l-.2-.4.1.4zm5.6-2.4l.1.3.1-.5-.2.2zm-6.9 29.1c0 .2 0 .3.1.4l.2-.2c0-.1 0-.2-.1-.4-.1 0-.2.1-.2.2m23.4-10.2c-.1 0-.2 0-.4.1l-.4.2-.4.2-.7.7-1 .6-.5.1-.5.5c-.2.1-.4.2-.6.2l-.6.2-1.2.4-1 .4-2.6.6-2.5.6-1.7.3-2.7.1h-1.7c-.6 0-1.1 0-1.7-.1-1.2-.1-2.4-.3-3.4-.6h-.6l-1.6-.5c-.8-.3-1.4-.5-1.6-.6l-1.1-.8c-.8-.6-1.4-1.3-1.8-2.1l-.7-.9c0-.3 0-.5.2-.7l.2-.2.4-.1.3-.4.8-.3 1.3-.2.6.1s0-.1.1-.1v-.2c0-.1.1-.2.1-.3l.3.2.4-.1.2-.1 1-.4H125.5l.8-.3h.5l.4.2.3-.3 1-.4h.3l.4.1.6-.4 1.2-.3.6.1.7-.2.8.1h.4c.2 0 .3-.1.4-.3l.3-.4h.8l.4-.2.1.2.4-.1.4.2 1.2-.4h.6l.7-.4.5-.1.6-.2c.1-.1.2-.2.1-.5v-.5h.2l.1-.6.3-.1.2-.7h.4c0-.1-.1-.2-.3-.3-.2-.1-.2-.3-.2-.4l.3.1.2.1 1.7-.5c.1 0 .1 0 .2.1s.2.2.4.2l.2-.2c.1-.1.1-.2.2-.3l.1-.2-.1-.6-.4-.4-.1-.1.2-.6v-.3h-.2l-.1-.4-.2-.3-.5-.1c-.4-.1-.8-.1-1.4 0l-.5.1h-.3l-.3.2h-.8l-.1.1-.2.3c-.2.1-.6.2-1.1.1l-1-.1-.2.2-.2-.1H135.6l-.2-.1-.2.1-.2.3h-.5l-.5.1-.2.1-2.4.3c-.2 0-.5 0-.9.1s-.7.2-1.1.3l-.9.3-.5.1-.5-.1-.1.2h-.2l-.9.1-.8.1-.9.2-1 .2-.8.4-.8.4h-.5l-.6.3c-.3.2-.5.2-.7.2l-.5.3-.8.1h-.2l.1-.4-.1-.3.5-.7-.1-.5v-.4l.3-.2.6-.6.4-.7.8-1.2.5-.3.5-.8.3-.1h.2l.6-.5.5-.4.8-.3.3.2c.2-.1.4-.3.6-.8.1-.1.2-.3.4-.5 0 0 .1-.1.1-.2.1 0 .2.1.3.3l.1.4.1.2c.1-.1.2-.1.2-.2l.2-.2.3.4c.2.1.4.2.6.1l.7-.2.2-.1.5.1.5.3.5-.3.1.2c0 .1.1.1.2.1l.3-.2.4.3.1-.1c.1.1.2.2.1.5h.1s.1 0 .1-.1.1-.1.2-.1l.1.4c.1.2.3.3.5.3l.1-.5c0-.1.1-.1.2-.2.1 0 .2.2.2.5s.1.5.2.6c.1.1.3.3.5.6l.5.1.5.1.1.4.3.1s.1.1.1.2l-.1.2.1.1.8-.3c.3-.3.5-.5.4-.7l-.1-.1-.1-.2.4-.8-.1-.5c-.1-.2 0-.4.1-.5.1-.1.3-.3.6-.4l.3-.3c.1-.1.2-.3.3-.4l.5.2.2-.2.4.1.2-.2.3.2c.2.1.3.1.3 0 .1-.1 0-.3-.1-.4l-.4-.5-.2-.7.1-.2-.4-.3-.1-.4-.5-.3-.1-.1-.3.1c-.1 0-.1-.2-.2-.5s-.2-.4-.3-.5l-.8-.3-.1-.1c0-.1-.1-.1-.1-.2l-1.1-.1-.8-.3-.4-.2-.3.3c-.1.1-.2.1-.3.2 0-.1 0-.3-.1-.6l-.1.3-.4.6-.2.5-.1-.1s0-.1-.1-.1c0-.1-.1-.2-.3-.2l-.1.3.2.2-.4.2v.5c-.1 0-.2.1-.3.2l.1.2h.3l.1.4.2.1.1.2v.2l-.1.1-.2-.2-.3.1h-.2l-.3-.2-.3.4c-.2.1-.4.1-.5 0l-.5-.3c-.1 0-.2-.1-.5-.1l-.1.2s-.1.1-.2.1c-.2-.1-.2-.2-.1-.4l.3-.3-.3.1-.1-.2-1.1.3-.1-.1s-.1-.1-.1-.2-.1-.1-.3-.2l-.1.2-.1.2-.2-.1s-.1.1-.3.2l-.3.1c-.1 0-.1 0-.2-.1l-.1-.3c-.1-.1-.3-.2-.7-.2-.3 0-.5 0-.6.1 0 .1.1.1.1.2s.1.1.1.2l.4.2.1.5c0 .1-.1.2-.2.3l-.2-.3-.2-.2-.2.2-.4-.1c0-.1-.1-.1-.1-.2s.2-.1.4-.2h-.3l-.1-.3-.1-.2c-.1.1-.2.2-.1.4l.3.7.3.7-.3.4.3.2-.3.1-.3.1s-.1 0-.1-.1c-.1 0-.1-.1-.1-.1l-.1-.5v-.5l-.1-.1-.3-.3-.2-.4-.3-.2-.3.2-.5-.1-.2.5-.4.1-.1.3h-.4l-.6.3-.2.3-.4.1v.4c0 .1-.2.1-.4.2l-.3.2-.1.5c-.1 0-.2-.1-.3-.1-.1.2-.4.4-.7.6v.5c0 .1-.3.2-.7.4l-.1.6c-.1.1-.2.1-.3.1h-.3c-.1.2-.1.5-.1.8l.1.1v.2c0 .1-.2.1-.5.2-.1.1 0 .3.1.5l.3.3-.9.8.5.7-.2.3-.2.2c0 .2 0 .4.2.6-.1 0-.1.1-.3.1l-.2-.5h-.6l.2-.4-.1-.3-.2-.1-.1.3v.6l-.1.4.2.1.1.2-.1.1c-.1 0-.2.1-.4.1-.1 0-.3.2-.4.4l.1.2.2-.1-.1.3.2.4c0 .2-.2.3-.5.2l-.5-.1c-.1 0-.1.1-.1.3l-.1.4c-.1.1-.2.3-.2.5l-.2.5-.4.5.5.4-.4.3.1.4-.2 1 .2.2.2.2-.7.5h-.3l.2.3.4.7c.3.3.4.5.5.7l.1.8-.1.3.4.8.1.4-.3.1.2.6-.3.3.1.4.3.2.3.4c.1.1.2.1.4.2l.1-.2.2-.1c.1.1.2.2.2.5l.2.6.3-.2c.1 0 .1.2.2.5l.2.7.5.1.4.6.7.1V32.7c.1 0 .3 0 .6-.1l.1.3.4.4h.3l.1.3c.1 0 .1-.1.2-.1l.1-.3.2.2.2.2.5-.1.2.2.7.1v.2l-.2.2.7-.1c.2 0 .4.1.4.3l.4.2.4.5c.2 0 .4.1.7 0 .1.2.1.3.1.5.2 0 .3-.1.4-.3.1-.2.2-.3.5-.5.2 0 .4.1.6.2l.1.6.6-.4.4.1.3-.1-.1-.3.2-.2.3-.2c0 .1.1.1.3.2l.3-.1c.2 0 .3 0 .3.1v.4c0 .2 0 .3.2.4.1 0 .2-.1.2-.1l.2-.3c.1 0 .2.1.3.3.1 0 .3.1.7 0v.3l.5.2c.3-.1.4-.2.5-.5l.3-.9c0-.1.1-.2.1-.3l.2.1.1.3.4.1.2.2c.1.2.3.2.6.2l.6-.1.1-.5h.3l.1-.3.2.8c0 .1.1.2.3.3.2-.1.3-.2.3-.3l.1-.3.1.3.7-.2h.6l.1-.3.7-.3.6-.1.3-.3.3-.3h.6l.4.1c.1-.1.2-.2.3-.4v-.3c.1 0 .2.1.3.1l.4.2h.7l.2.3.4-.2.5-.3.8-.2.4-.2.2-.4c0-.1.1-.2.2-.3h.1c.1.1.1.2.1.3l.2-.1h.2c.1-.1 0-.3-.2-.5-.1-.1-.2-.3-.3-.4.2-.1.4-.1.6.3l.2.1c0-.1 0-.3-.1-.4v-.4c.2-.1.3-.1.5.1s.3.3.5.1l.3-.4.5-.1.6-1.3h.5V29h.2l-.1-.4c.1-.1.3-.2.7-.2l.2-.4.3-.4.4-.2.2-.2.2-.2c.1-.1.3-.2.6-.4v-.3l.3-.2v-.2l.4-.4c0-.2.1-.3 0-.6.1.1 0 0 0 0m-21-19.6c-.1.1-.2.1-.3.2v.3l.2-.2.4-.3-.1-.2c0 .1-.1.1-.2.2m.7.1l-.1.3c.1.1.3 0 .5-.3v-.2c-.1 0-.3 0-.4.2m.5-.4l.1.5v-.4l.1-.3-.2.2zm8-3.3c-.1-.1-.3-.2-.3-.3-.1-.1-.2-.2-.4-.3l-.3.4c0 .1-.2.1-.4.2v1.1l.4.2.1.2.2.2.7.1c.2 0 .3-.1.3-.4v-.8l.2-.1v-.3l-.5-.2zm-35.7 39.4v.1l.2-.2-.2.1zm-5.9-20c0-.1-.1-.1-.1-.2l-.2.1.1.2c.1 0 .2 0 .2-.1m-7.3 30v.1c.2 0 .3-.1.3-.2l-.3.1zm1.4-.4l.1.2.2-.1v-.2l-.3.1zm-4.7-26c.1 0 .1 0 .2-.1v-.2c-.1 0-.2 0-.3.1v.2h.1m22.2 8.8l.2-.1c0-.1 0-.1-.1-.2l-.3.2-.1.1h.3zm-19.8-8.8v-.3c-.1-.1-.2 0-.3.1v.3c.1 0 .2-.1.3-.1m20.1 8.6v.2c.2.1.3.1.4 0 0-.1.1-.2 0-.2 0-.2-.2-.1-.4 0m-1.1 2.3l.3-.6s-.1 0-.1-.1h-.2c-.1 0-.1.1-.1.2l.2.2-.1.3zm-21.6-9.4c-.2 0-.3 0-.4.2-.1.2-.1.3 0 .4.2 0 .3-.1.4-.2.1-.2.1-.3 0-.4m1.8-1.6c0-.3 0-.5-.2-.6l-.2.2-.2.1.2.4v.3l.4-.4zm-.9.1l-.2-.4-.2.2.2.1-.1.4.1.3.3.4v.3l.2-.2.2-.3c-.1-.1-.2-.3-.4-.5l-.1-.3zm-1.3-5.3h.6l.6-.3 1.2-.1c.5 0 .8 0 1.1-.1l.7-.3 1.2.1h.7l-.1.2c-.1.2-.3.4-.6.5l-.1.5c-.1.2-.3.3-.6.4l-.5.2-.5.4.1.2h-.2l-.3.3-.2.3c0 .1-.3.2-.6.3l-.2.4-.8.5v.4l-.6.3c-.3.1-.5.2-.6.3l-.4.6v.5l-.2.3.2.1c0 .3-.1.4-.4.4l-.2-.4-.4-.2c-.1 0-.3-.5-.7-1.5l-.9-1.8-.5-.6-.3-.5c0-.3 0-.5.3-.5l.7-.2.3-.2c.7.1 1.3.1 1.9-.2l.3-.3zM83 13.9l-1.1.1-.9.3-1.5.5h-.6l-1.2.4-1 .4-.1.4-.5.6h-.3l-.4-.4-.1.2-.3-.1-.9.2-.6.5c-.3.2-.4.4-.5.6l-.1.9.1.3-.7.6.1.4-.2.2.2.4.1 1 .2.5c.2.2.4.2.6.2l.8-.3.4.1c.2-.1.4-.2.7-.3l.8-.2 1.3-.4.4-.1c.4-.1.7-.1.8 0v.2c0 .1 0 .2-.1.2l.1.4c-.2.4-.4.9-.5 1.6-.1.3-.1.6-.1.8 0 .2 0 .4.1.5l1.4 1.3.4.4.1.4h.4l.4.1-.1.7-.2.7-.3.3-.2.2h.6c.1 0 .2.1.3.2l-.4.4c-.1.2-.1.5 0 1l.3 1h.1l.1-.2-.1-.3c.2 0 .3 0 .4.1l.2.2-.3.4-.5.5.1.3v.5c.1.2.3.4.7.6.2.1.4.2.8.2s.6.1.8.2c.2.1.3.3.4.5l.1.8.3.6c.1.3.1.6.1.8l.3 1.1.4 1 .2 1.1c.3.5.6.8.9 1.1l.8 1 .1.5c.2.3.6.7 1 .9.4.3.7.4 1 .3l.3-.4c.1-.1.3-.2.5-.3l.5-.1c.3 0 .6.1 1 .3l.7.2c.1 0 .2-.1.3-.2l.1-.5.4-.4c.1-.3.1-.6.1-.7-.1-.2-.2-.5-.5-.9L90.9 39c-.1-.2-.2-.5-.3-.8l-.4-.7c-.2-.2-.4-.4-.8-.6l-.1-.7-.4-.9-.5-.9-.2-.2-.3-.2-.2-.3c0-.3 0-.5.1-.6l-.2-.4v-.2l.6-.4c.3-.3.6-.5 1-.6l1.2-.5h.4c.1-.1.1-.2 0-.3 0-.1-.1-.1-.1-.3.2-.1.3-.1.5 0l.5.2.6-.4.8-.2.3.3.6.2.5-.2.8.2 1.4-.4.4.2c.1 0 .2.1.4.1l.8-.3.8-.4c.1 0 .2.1.3.2l.1.2h.3l.7-.3.3.1.3.1.3-.2.3.3c0 .1.1.1.3.1l.7-.1.7-.1.1-.4.1-.2c.3-.1.5 0 .6.2l.2.4h.6c.3.1.5.2.6.4.2.2.3.4.3.6l-.6.9c-.2.5-.6 1.1-1 1.6l-1.1 1.4-3.9 4.7c-.1.1-.3.2-.5.4l-.8 1-1.1.7-3 2.8-.8.5-.8.5-.5.1-.7 1-.2.4-1.1.7c-.4.3-.6.5-.6.7l.2.4-.4.4-.3.4c.2.1.3.2.4.2h.5l.3-.2h.2v.2l.3-.1c.3 0 .5 0 .6.1.1.1.2.1.4 0 .1 0 .3.1.5.2 0 .1 0 .3-.1.4l-.5.3c-.1.1-.2.2-.4.2h-.3l-.6.4-.5-.1c-.4.1-.7.2-.9.4-.1.1 0 .3.2.6l.4.4c0 .2 0 .4.1.7.1.3.3.5.3.5l.3-.1.2.1.2.1c.3-.1.5-.3.8-.7l.6-.6.4-.3-.2-.1-.2-.3.5-.7 1-.3.2.3.3.1v-.2c.4-.2.7-.6.9-.9l.7-.3c.3-.1.4-.2.5-.3l.5-.5c.2-.2.3-.6.2-1.1l.2-.2-.1-.4.2-.6.4-.4c.1-.1.2-.2.4-.3l.1-.3.7-.8h.5l.5-.4v-.3l.6-.3-.1-.3.2-.4.4-.2.5-.1.2-.3.1-.2h-.1v-.2l.6-.2.2-.3c.1-.1.2-.2.4-.2l-.2-.1v-.2l.4-.2-.6-.1.4-.2 1-1 .6-.8v-.4l-.1-.4.4-.6.4-.4.4-.3.1.3h.2v-.4l.3-.1c.1 0 .2-.1.3-.2l-.2-.3c.1 0 .1-.1.2 0l.2.2.1-.1.3-.1V36h.4l.5-.2.4-.3c-.1-.1-.2-.2-.3-.2-.1 0-.1-.1-.2-.3.1-.2.3-.4.6-.5.4-.2.6-.3.7-.4l-.1-.4.2-.4.3-.5.7-.5c.2-.2.4-.5.6-1l-.2-.3.1-.4c0-.2-.2-.4-.4-.6v-.5l.2-.2-.2-.9.1-.7-.4-.4.3-.4-.3-.4-.1-.6-.3-.4c-.1 0-.2-.1-.4-.2l-.4-.1-.3-.1-.2-.2-1.3-.2h-.5l-.4.1c-.8-.2-1.5-.2-2-.2s-1.3.2-2.2.4h-3.2l-2 .4-1.4.3-1.1.2-1 .1-.3-.4h-.3c0-.2.1-.4.5-.7l.4-.4-.3-.3.7-.3c.4-.2.8-.5 1.1-.7l.3-.1c.1-.1 0-.2-.2-.4l.1-.3-.2-.2c.3-.2.4-.2.4-.2.1.1.2.2.4.2v-.5c.1-.2.3-.3.4-.3h.6c.1-.1.2-.1.4-.3.2-.1.3-.2.4-.4.1-.1.1-.4.1-.7l.2-.3.1-.3-.2-.1-.2-.1-.3-.6.1-.4-.3-.2-.2-.2.1-.3v-.4l-.4.2-.3.2-.1-.3-.2-.3c0-.1.1-.1.2-.2h.4v-.2l-.1-.4.3.1c.2 0 .4 0 .6-.2v-.2c-.3-.2-.4-.3-.3-.4l.7-.4.3-.4-.2-.8v-.4l-.3-.1-.3-.3h-.3l-.5.1-.8-.4c-.3-.1-.5-.1-.8 0l-.7.1-2.3-.3-.9.1-.8.2-2.7.1-.6.2-.5.1h-1l-.3.2-1.7.5zm-31.6 38l-.1-.2.3.1-.2.1zm-.6-.5l-.2.1c-.2-.1-.2-.3-.1-.5l.1-.2c.1 0 .2.2.2.6m.4-.9v.2l-.2.3c-.1-.1-.1-.2 0-.3 0-.1.1-.2.2-.3v.1M62.9 52l-.1.1v-.3l.1.2zm5.6-.7l-.1.4c-.1 0-.2-.1-.4-.2 0-.2.1-.3.4-.4h.4l-.3.2zM51.3 28.4c-.1.3-.3.4-.5.2l-.1-.4c0-.1.1-.2.1-.3h.2l.1-.2h.2c.1.2.1.4 0 .7m17.5 8.4l-.4.1-.2-.1c.1-.1.1-.2.2-.2l.4-.2.1.2c.1.1.1.2-.1.2m-15-9.8c0 .1-.1.1-.2.2V27l.2-.1v-.3.4m5.1-.7c0 .1 0 .2-.1.2l-.1.5.1.4c0 .1-.1.1-.2.1l-.1-.4.1-.9v-.4l.1.1.3.1c-.1.1-.1.2-.1.3m6.6-2.1l-.1.3-.4-.4.3-.3.2.4zm1.9 0v.7l.2-.3c.1-.1 0-.2-.1-.3l-.1-.1zM62.1 22h.1v-.1l-.1.1zm-8.5 2.9v.2l.1-.2h-.1zm-.9 2.8c0 .1 0 .1.1.2 0-.1 0-.1-.1-.2m9.2-3.6l.1-.1-.1-.1v.2zm13.3 24.7s0-.1-.1-.1c0 .1 0 .2.1.3v-.2m5.1-5.3v.2h.2l-.1-.2h-.1zm-36.5-7.6v.2l.1-.3-.1.1zm1.9-2.4l.1.2.1-.1v-.2l-.2.1zm6.1-5.2l.2-.1-.1-.3-.1.4zm12.6 25v.2h.2l-.1-.2h-.1zM52.3 27.2v.2l.2-.1c0-.1 0-.1-.1-.2.1 0 0 0-.1.1m-6.4 19.7c0 .1.1.1.1.3l.2-.1-.1-.3-.2.1zm17.7-23.5l.2.2.2-.1-.4-.1zm-5.8 29.8c0 .1.1.2.1.3.1.1.2 0 .3-.1 0-.1-.1-.2-.1-.3-.1 0-.2.1-.3.1m-14.9-8c0 .1 0 .1.1.2l.2-.1v-.2c-.2 0-.3 0-.3.1m17.8-22.1c0 .1 0 .1.1.2h.2V23c-.2 0-.3 0-.3.1M43.2 40.6l.2.3.2-.1c0-.2 0-.2-.2-.2h-.2zM59.5 54l.1.3.1-.2-.1-.3-.1.2zm-1.1-28.5c0 .1.1.1.2.1.2-.1.2-.2.1-.3l-.2-.1s0 .1-.1.3M60.3 54l.1.2.2-.2-.1-.2-.2.2zm-2.4-27.1l.1.3v-.3l-.2-.4.1.4zm5.6-2.3l.1.3.1-.5-.2.2zm-6.9 29c0 .2 0 .3.1.4l.2-.2c0-.1 0-.2-.1-.4l-.2.2M80 43.5c-.1 0-.2 0-.4.1l-.4.2-.4.2-.7.7-1 .6-.5.1-.5.5c-.2.1-.4.2-.6.2l-.6.2-1.2.4-1 .4-2.6.6-2.5.6-1.7.3-2.7.1h-1.7c-.6 0-1.1 0-1.7-.1-1.2-.1-2.4-.3-3.4-.6H56l-1.6-.5c-.8-.3-1.4-.5-1.6-.6l-1.1-.9c-.8-.6-1.4-1.3-1.8-2.1l-.7-.9c0-.3 0-.5.2-.7l.2-.2.4-.1.3-.4.8-.3 1.3-.2.6.1s0-.1.1-.1v-.2c0-.1.1-.2.1-.3l.3.2.5.2.2-.1 1-.4H56.5l.8-.3h.5l.4.2.3-.3 1-.4h.3l.4.1.6-.4 1.2-.3.6.1.7-.2.8.1h.4c.2 0 .3-.1.4-.3l.3-.4h.8l.4-.2.1.2.4-.1.4.2 1.2-.4h.6l.7-.4.5-.1.6-.2c.1-.1.2-.2.1-.5v-.5h.2l.1-.6.3-.1.2-.7h.4c0-.1-.1-.2-.3-.3-.2-.1-.2-.3-.2-.4l.3.1.2.1 1.7-.5c.1 0 .1 0 .2.1s.2.2.4.2l.2-.2c.1-.1.1-.2.2-.3l.1-.2-.1-.6-.4-.4-.1-.1.2-.6v-.3h-.2l-.1-.4-.3-.3-.5-.1c-.4-.1-.8-.1-1.4 0l-.5.1h-.3l-.3.2h-.8l-.2.1-.2.3c-.2.1-.6.2-1.1.1l-1-.1-.2.2-.2-.1H66.4l-.2-.1H66l-.2.3h-.5l-.5.2-.2.1-2.4.3c-.2 0-.5 0-.9.1s-.7.2-1.1.3l-.9.2-.5.1-.6-.1-.1.2h-.2l-.9.1-.8.1-.9.2-1 .2-.8.4-.8.4h-.5l-.6.3c-.3.2-.5.2-.7.2l-.5.3-.8.1h-.2l.1-.4-.1-.3.5-.7-.1-.5v-.4l.3-.2.6-.6.4-.7.8-1.2.5-.3.5-.8.3-.1h.2l.6-.5.5-.4.8-.3.3.2c.2-.1.4-.3.6-.8.1-.1.2-.3.4-.5 0 0 .1-.1.1-.2.1 0 .2.1.3.3l.1.4.1.2c.1-.1.2-.1.2-.2l.2-.2.3.4c.2.1.4.2.6.1l.7-.2.2-.1.5.1.5.3.5-.3.1.2c0 .1.1.1.2.1l.3-.2.4.3.1-.1c.1.1.2.2.1.5h.1s.1 0 .1-.1.1-.1.2-.1l.1.4c.1.2.3.3.5.3l.1-.5c0-.1.1-.1.2-.2.1 0 .2.2.2.5s.1.5.2.6c.1.1.3.3.5.6l.5.1.5.1.1.4.3.1s.1.1.1.2l-.1.2h.3l.8-.3c.3-.3.5-.5.4-.7l-.1-.1-.1-.1.4-.8-.1-.5c-.1-.2 0-.4.1-.5.1-.1.3-.3.6-.4l.3-.3c.1-.1.2-.3.3-.4l.5.2.2-.2.4.1.2-.2.3.2c.2.1.3.1.3 0 .1-.1 0-.3-.1-.4l-.4-.5-.2-.7-.1-.4-.4-.3-.1-.4-.6-.3-.1-.1-.3.1c-.1 0-.1-.2-.2-.5s-.2-.4-.3-.5l-.8-.3-.1-.1c0-.1-.1-.1-.1-.2l-1.1-.1-.8-.3-.4-.2-.3.3c-.1.1-.2.1-.3.2 0-.1 0-.3-.1-.6l-.2.2-.4.6-.2.5-.1-.1s0-.1-.1-.1c0-.1-.1-.2-.3-.2l.2.4.2.2-.4.2v.5c-.1 0-.2.1-.3.2l.1.2h.3l.1.4.2.1.1.2v.2l-.3.2-.2-.2-.3.1h-.2l-.3-.1-.3.4c-.2.1-.4.1-.5 0l-.5-.3c-.1 0-.2-.1-.5-.1l-.1.2s-.1.1-.2.1c-.2-.1-.2-.2-.1-.4l.3-.3-.3.1-.1-.2-1.1.3-.1-.1s-.1-.1-.1-.2-.1-.1-.3-.2l-.1.2-.1.2-.2-.1s-.1.1-.3.2l-.3.1c-.1 0-.1 0-.2-.1l-.1-.3c-.1-.1-.3-.2-.7-.2-.3 0-.5 0-.6.1 0 .1.1.1.1.2s.1.1.1.2l.4.2.1.5c0 .1-.1.2-.2.3l-.2-.3-.2-.2-.2.2-.4-.1c0-.1-.1-.1-.1-.2s.2-.1.4-.2h-.3l-.1-.3-.1-.2c-.1.1-.2.2-.1.4l.3.7.3.7-.3.4.3.2-.3-.1-.3.1s-.1 0-.1-.1c-.1 0-.1-.1-.1-.1l-.1-.5v-.5l-.1-.1-.2-.2-.2-.4-.4-.2-.3.2-.4-.2-.2.6-.4.1-.1.2h-.4l-.6.4-.2.3-.4.1v.4c0 .1-.2.1-.4.2l-.3.2-.1.5c-.1 0-.2-.1-.3-.1-.1.2-.4.4-.7.6v.5c0 .1-.3.2-.7.4l-.1.6h-.6c-.1.2-.1.5-.1.8l.1.1v.2c0 .1-.2.1-.5.2-.1.1 0 .3.1.5l.3.3-.8 1 .5.7-.2.2-.2.2c0 .2 0 .4.2.6-.1 0-.1.1-.3.1l-.2-.5h-.6l.2-.4-.1-.3-.2-.1v1l-.1.4.2.1.1.2-.1.1c-.1 0-.2.1-.4.1-.1 0-.3.2-.4.4l.1.2.2-.1-.1.3.2.4c0 .2-.2.3-.5.2l-.5-.1c-.1 0-.1.1-.1.3l-.1.4c-.1.1-.2.3-.2.5l-.4.6-.5.4.5.4-.3.1.1.4-.2 1 .2.2.2.2-.7.5H42l.2.3.4.7c.3.3.4.5.5.7l.1.8-.2.3.4.8.1.4-.3.2.2.6-.3.3.1.4.3.2.3.4c.1.1.2.1.4.2l.1-.2.2-.1c.1.1.2.2.2.5l.2.6.3-.2c.1 0 .1.2.2.5l.2.7.5.1.4.6.7.1V51.3c.1 0 .3 0 .6-.1l.1.3.4.4h.3l.1.3c.1 0 .1-.1.2-.1l.1-.3.2.2.2.2.5-.1.2.2.7.1v.2l-.2.2.7-.1c.2 0 .4.1.4.3l.4.2.4.5c.2 0 .4.1.7 0 .1.2.1.3.1.5.2 0 .3-.1.4-.3.1-.2.2-.3.5-.5.2 0 .4.1.6.2l.1.6.6-.4.4.1.3-.1-.1-.3.2-.2.3-.2c0 .1.1.1.3.2l.3-.1c.2 0 .3 0 .3.1v.4c0 .2 0 .3.2.4.1 0 .2-.1.2-.1l.2-.3c.1 0 .2.1.3.3.1 0 .3.1.7 0v.3l.5.2c.3-.1.4-.2.5-.5l.3-.9c0-.1.1-.2.1-.3l.2.1.1.3.4.1.2.2c.1.2.3.2.6.2l.6-.1.1-.5h.3l.1-.3.2.8c0 .1.1.2.3.3.2-.1.3-.2.3-.3l.1-.3.1.3.7-.2h.6l.1-.3.7-.3.6-.1.3-.3.3-.3h.6l.4.1c.1-.1.2-.2.3-.4v-.3c.1 0 .2.1.3.1l.4.2h.7l.2.3.4-.2.5-.3.8-.2.4-.2.2-.4c0-.1.1-.2.2-.3h.1c.1.1.1.2.1.3l.2-.1h.2c.1-.1 0-.3-.2-.5-.1-.1-.2-.3-.3-.4.2-.1.4-.1.6.3l.2.1c0-.1 0-.3-.1-.4v-.4c.2-.1.3-.1.5.1s.3.3.5.1l.3-.4.5-.1.6-1.3h.5v-.2h.2l-.1-.4c.1-.1.3-.2.7-.2l.2-.4.3-.4.4-.2.2-.2.2-.5c.1-.1.3-.2.6-.4v-.3l.3-.2v-.2l.4-.4c.1.1.2-.1.1-.3.1 0 0 0 0 0M59 23.8c-.1.1-.2.1-.3.2v.3l.2-.2.4-.3-.1-.2c0 .1-.1.2-.2.2m.7.1l-.1.3c.1.1.3 0 .5-.3v-.2c-.1 0-.3.1-.4.2m.5-.3l.1.5v-.4l.1-.3-.2.2zm8-3.3c-.1-.1-.3-.2-.3-.3-.1-.1-.2-.2-.4-.3l-.3.4c0 .1-.2.1-.4.2v1.1l.4.2.1.2.2.2.7.1c.2 0 .3-.1.3-.4v-.8l.2-.1v-.3l-.5-.2zM17.7 54.8l.1.6-.1.2-.4-.3c-.2-.2-.2-.4-.1-.5l.1-.3.2-.1c.1-.1.2.1.2.4m6.2-9.5l-.2.1-.4-.2v-.3l.1-.1.6.4-.1.1zM41 50.4c0 .1 0 .2-.1.4l-.2.2c-.1 0-.2-.1-.3-.3v-.3c.1-.1.2-.1.3-.1l.3.1zm-23 4.2l.1.2h.2l-.1-.2H18zM.6 41.9c0 .1.1.1.1.2.1-.1 0-.1-.1-.2m20.5 23.5l.2-.1v-.2l-.2.3zm1.8-20.3c-.1 0-.1.1-.2.1v.3c.1-.1.2-.1.3-.2V45c0 .1 0 .1-.1.1m27 4.8l.1.3c0-.1.1-.2.1-.4-.1 0-.1 0-.2.1M19 59.6l.1.2.1-.1c0-.3-.1-.4-.2-.4v.3zm-8.2-12.1c0 .1.1.2.3.3.1 0 .2-.1.2-.2 0-.2-.1-.3-.2-.3-.2 0-.3.1-.3.2m16-4.8c0 .1 0 .2.1.3l.2-.2c0-.1 0-.2-.1-.3-.1 0-.2.1-.2.2M0 40c0 .2 0 .3.2.4l-.1-.5-.1.1zm.7-.6s-.1 0 0 0c-.1.2-.1.3-.2.5 0 .3 0 .5.1.5l.1-.2V39.4zm51.6 7.5c0 .1-.1.1-.3.2l.1-.4-.3-.2-.8-.3c-.4-.1-.9-.2-1.3-.3-.5-.1-.9-.1-1.4-.1l-2.8-.3-2.9-.3c-.9-.1-1.8-.1-2.5-.1H38l-1.1.1-1.3.1c-.4-.1-.7-.1-.9-.1-.3 0-.5 0-.8-.1l-1 .1-.9.1-1.5-.3-.7.2H25c-.4-.1-.6-.1-.8-.2-.1-.1-.1-.3-.1-.5.1-.2.1-.3.2-.4l.1-.1 1.2-.5.4-.1c.1-.2.2-.5.1-.7l-.2-.8.4-.3.5-.2.1.1.2.1.3-.5.7-.4c.5-.1.9-.3 1-.5l.4-.5c.1-.2.2-.4.2-.7h.4c.1-.1.1-.3.1-.5l-.1-.6.5-.5c.1-.2.1-.4.1-.6v-.6l.2-.2-.2-.3c-.1-.3-.1-.6-.1-.8l.6-.6.1-.7.5-1.2.3-.8-.3-.3c-.1 0-.2-.2-.3-.3l.1-.4-.4-.3-.1-.4-.5.1-.3-.2-.2-.2-.6.6c-.3.2-.5.3-.6.2l-.1-.2c-.1-.1-.2-.1-.5-.1l-.3.1-.5.2-1-.3c-.3-.1-.5-.2-.6-.2-.1 0-.2 0-.3-.1l-.5.2-.1-.2-.1-.2c-.2.1-.2.2-.2.3l-.2.3c-.2 0-.4 0-.7-.1l-.5.2-.6-.3c-.1 0-.2.1-.3.3l-.3.3-.4-.2c-.1-.2-.3-.3-.4-.2-.1.1-.2.2-.2.3h-.6l-.5.1h-.2l-.8-.1-.6-.1-.2-.2-.5.2h-1.8l-1.7.3-.9-.2-.6.1c-.2 0-.4.1-.6 0l-2.6.7-.5.6c-.1.1-.2.2-.4.3l-.2-.4-.6.2s-.1.1-.1.2c-.1.1-.1.1-.1.2l-.3.5-.5-.1h-.5l-1 .5-.5.4-.2.3c0 .1-.2.2-.3.3l-.5-.1c-.3.1-.5.3-.6.5l-.2.4c0 .1-.1.2-.2.3h-.2l-.3-.1c-.1 0-.1.1-.1.3v.3c0 .1-.2.2-.5.3-.1.2-.2.3-.2.5l-.2.8-.3.3c-.1 0-.1.2-.1.4v.7l-.1.4.2.2v.4l.4.4.2.3-.5.7.1.2h.2l.1.2.1.2.4-.1.2.2.3.1.2-.2c0-.1 0-.2.1-.3.1 0 .1 0 .2.1s.2.2.3.4l.2-.2h.4l.4-.5.7-.3.6-.3.5-.4.5-.4 1.8-.4.8-.5.6-.1.6-.1.5-.4h.4l.4.1.4-.2h.6l.6-.3.8-.3h.9l.9-.3 1 .2.9-.1.6-.2.1.1h.2l.6-.3.2.1.6-.1c.2-.1.4-.1.5-.2h1.1l.2.2c.2 0 .4-.2.5-.5.1.1.2.3.2.5l.4.1.5-.3.4.2.3.1.8-.6.6.3.7-.1c.4 0 .6.1.6.3.1.3 0 .5-.1.6l-.4.4c0 .1-.1.2-.3.3l-.6.2-.3.3-1.3.8-.7.6c-.4.3-.7.5-.7.6-.1.1-.1.3-.1.6l-.4-.3c-.3 0-.7.2-1 .4l-.6.6-.7.3-.7.4c-.1.1-.2.2-.3.4l-.2.4c-.1 0-.1.1-.2.2l-.5-.2-.5.3-.2-.1h-.2l-.5.5c-.3.2-.6.3-.8.4l-.5-.7c-.1 0-.2.1-.3.1h-.3V44h-.1c-.3-.1-.5-.3-.7-.6l.1.6c-.1 0-.1.1-.2.1l-.2-.3.1.6c0 .1-.1.1-.2.2l-.1-.3c-.2-.2-.3-.3-.4-.3-.1-.3-.2-.5-.3-.6-.1-.1-.3 0-.5.2l-.1.7-.2.3-.2-.1-.1.5c0 .2.1.4.2.4l.1-.3c0-.1.1-.1.2-.1l.1.3c.1.1.1.3.2.5.2.6.1 1.1-.2 1.7l-.3.1c-.1 0-.2 0-.3-.1l.1-.4-.5-.6v-.4c-.1 0-.2.1-.1.3l.1.4-.3.1-.5.9c0 .2.2.4.6.6.3.2.5.4.4.5l-.6 2.2v1c.2.2.3.3.6.4l.5.1.1.3.3.2h.3l.6.4.6.4.2.9.2.8.2.7.2.9v.5l.9 2.1-.2 1c.1.3.3.7.4 1.2v.5l.2.1c.1 0 .1.1.2.2.1.4.1.7 0 1l.2.6.2.7.1.7-.1.5c0 .3.2.7.5 1.1l.7.9.4.6.3.4.2-.1.3.2.1-.1V69l-.2-.5.6.2c.1 0 .2-.1.2-.3l.1-.5.2-.2-.2-.7.1-.5V66c0-.4.1-.6.3-.7l.1.2.3-.1h.3c.1-.1.2-.3.3-.4l.4-.1.1-.4c0-.1.1-.1.2-.2.2 0 .3.1.3.1l.1.2v-.3l-.3-.5.1-.6-.4-1-.3-.4-.1-.4-.3-.1v-.4l-.2-.6v-.2l.1-.1v-.2l-.3-.2v-.7l-.6-.5-.3-.4-.5-.3c0-.2.1-.4.3-.4.2-.2.3-.3.3-.4-.1-.3-.2-.6-.5-.9l-.1-.6-.4-.3.1-.6-.2-.7c.1-.2.3-.3.6-.4l1.2-.1h.8l1.4-.4h.8l1.3.1.6-.2 1 .1.5-.3.5-.1.3.1.6-.2.2.1h.8l.4.2.2-.3.3-.1V52l.4.1.3.1.8.1 1-.1c.1-.1.2-.2.2-.4l.3.1c.1 0 .2-.1.3-.2.1-.1.1-.3 0-.6l.2.1.3.2c.2 0 .3 0 .4-.1l.3-.2 1.5.2 1.6.1 1.7-.2.3.2.7-.2.2.4c.1.1.3.2.5.2h.6l-.2-.7v-.6c.2 0 .4.1.7.3l.6.3c.1 0 .4 0 .8-.1s.7-.1.8 0l.8.3.6.2.3.3 1.6.4.6-.1.8.2.2-.4c.1-.1.2-.2.2-.3.1 0 .1-.1.2-.1l.1.3.2.1c.2 0 .2-.1.2-.2s-.1-.2-.2-.4c-.1-.1-.3-.3-.4-.5l.1-.3v-.9l.2.1h.2v-.3l.4-.4c.1 0 .1 0 .2.1l.2.1c.2-.1.2-.4.3-.7l.4.1.4.1v-.2l.4-.3.1-.9.3-.3.1-.2c-.2 0-.3 0-.4.1"/></g></svg>