<svg xmlns="http://www.w3.org/2000/svg" viewBox="0 0 262.7 67.7"><g fill="#FFF"><path opacity=".7" d="M0 1.6h12.1v24.2h27.7V1.6H52v64.5H39.8V37H12.1v29.1H0V1.6zM115.7 46.3c0 13.1-10.4 21.5-26 21.5s-26-8.3-26-21.5V1.6h12.1v41.5C75.9 51 79.2 56 89.7 56s13.9-5 13.9-12.9V1.6h12.1v44.7zM131.9 46.7c4.5 6.7 11.6 9.8 19.5 9.8 5.9 0 13.7-2 13.7-8.2 0-5.1-4.7-6.5-13.3-8.5l-7.2-1.6c-10.3-2.4-19.4-6.2-19.4-18 0-13.6 12.9-20.1 25-20.1 11.1 0 20.2 4.1 26.9 12.9L167 20.6c-3.1-5.9-9.1-9.3-16.9-9.3-7 0-12.2 2.6-12.2 7.2 0 5.3 6.1 6.6 13.3 8.2l7.9 1.7c9.6 2.1 18.7 6 18.7 18.2 0 15.8-14.8 21.2-28.2 21.2-10.7 0-21.7-4.6-27.9-13.6l10.2-7.5zM186.2 1.6h12.1v24.2H226V1.6h12.1v64.5H226V37h-27.7v29.1h-12.1V1.6z"/><path d="M250.5 53.6h12.1v12.5h-12.1V53.6zM0 25.2h262.7v12.5H0z"/></g></svg>