<svg xmlns="http://www.w3.org/2000/svg" viewBox="0 0 392.2 392.2"><path fill="#FFF" d="M278.8 18.4C224.9-6.8 165.3-5.2 115 17.6c.4.6.6 1.2.6 1.9v122.6l65.4 30.4V66.4c0-8.3 6.7-15 15-15s15 6.7 15 15v97.8l72.6-61.1c3-2.6 7-3.8 11-3.5 4 .3 7.6 2.3 10.2 5.3 17.1 20.4 28.1 45.1 31.8 71.5 3.8 27.1-.3 54.6-11.9 79.5-11.6 25-30.1 45.8-53.3 60.4-22.6 14.1-48.7 21.6-75.3 21.6-8.3 0-15-6.7-15-15v-94.2l-70.6 59.5c-2.5 2.1-5.7 3.5-9.3 3.6H100c-3.2-.2-6.2-1.3-8.6-3.2-.7-.6-1.4-1.2-2-1.9-2.3-2.6-3.7-6-3.7-9.8V34.1c-28.2 19.2-51.8 46-67.2 79.2-45.7 98.1-3.2 214.8 95 260.5 98.1 45.7 214.8 3.2 260.5-95 45.5-98.1 3-214.7-95.2-260.4z"/><path fill="#FFF" d="M297.4 243.3c16.1-34.6 13.2-75.1-6.8-106.9l-79.7 67v103.5c37.4-5.1 70.4-28.9 86.5-63.6zM115.6 244.5l53-44.7-53-24.7"/></svg>