<svg xmlns="http://www.w3.org/2000/svg" viewBox="0 0 139.7 228.2"><path fill="#FFF" d="M50 0c-1.1 4.3-2.1 8.4-3.1 12.4-.6 2.6-1.4 5.3-1.9 8-.7 3.9-1.1 7.8-2 11.6-1.3 5.9-2.8 11.7-4.1 17.5-.7 2.9-1.1 6-1.6 8.9-.6 3.8-.9 7.6-1.9 11.3-.8 3-2.4 5.8-3.6 8.7-1.9 4.4-3.9 8.8-5.5 13.3-1.7 5.1-3 10.4-4.4 15.6-.3 1.2-.2 2.5-.5 3.6-.8 3.4-1.8 6.8-2.7 10.2-.6 2.3-1.5 4.6-1.6 6.9-.1 5-2.5 9-4.5 13.3-1.9 4.1-3.3 8.5-5 12.7-1.4 3.5-3.1 7-4.3 10.6-1.4 4.3-2.8 8.6-3.3 13-.6 4.6 1.6 7.2 5.3 8 2.1.4 5.5-2.2 6.9-5.3 2-4.7 3.7-9.6 6-14.2 2.6-5 5.6-9.8 8.5-14.7.7-1.1 1.5-2.2 2.5-3.1 1.5-1.5 3.1-1.2 3.2.8.1 3.3-.1 6.6-.4 9.8-.2 2.3-1.1 4.6-1.2 6.9-.6 12.5-1.1 25-1.3 37.5-.1 2.7.9 5.5 1.9 8.1 1 2.5 3.8 3 6.1 3.4 1.9.4 4.9-3.3 5.9-5.6 1.7-4.1 1.6-8.4 1.5-12.6-.2-7.3 1.2-14.3 2.8-21.3.6-2.6.4-5.4.6-8.1l1.1-.1c.5 2.9 1.3 5.8 1.4 8.8.3 6.9.2 13.8.4 20.6.1 1.9.2 21.3 1.8 27.3.7 2.8 3.2 4.3 6.6 3.9 3.4-.5 6.4-2 7-4.8.7-3.4 1.5-6.8 1.6-10.2.3-11.4.1-22.8.4-34.2.2-6.9 1.1-13.7 1.6-20.7.5 0 1.3.1 2.1.1.1.4.2.7.3 1 1.4 4.6 2.8 9.3 4.3 13.9 1.2 4 2.5 7.9 3.7 11.9l1.5 5.1c1.6 6 3.1 11.9 4.8 17.9 1.5 5.3 7.3 7.6 11 4.2 1.3-1.2 2.4-3.2 2.6-5 .9-7.4-.1-14.7-2.5-21.9-1-3.1-1.3-6.5-1.9-9.8-.7-3.9-1.1-7.8-2-11.7-1.2-5.2-3.1-10.3-3.9-15.6-.6-3.7-.5-7.8.4-11.4 1.2-4.6 3.5-8.9 5.2-13.5.9-2.5 2.5-3.2 4.6-1.5 3.7 2.9 7.1 6.2 11 9 6.2 4.5 12.6 8.9 21.1 7.2 3.5-.7 6.7-3.2 7-6.2.2-2.1-.3-3.8-2.2-5.2-8.2-6.1-16.8-11.7-23.2-19.8-4.8-6.1-9.2-12.5-13.6-18.9C98 83.9 95.6 80 93.7 76c-.7-1.5-.4-3.6-.1-5.4.5-2.7 1.5-5.2 2.1-7.9 1.2-5.1 2.1-10.2 3.4-15.3 1.2-5 2.8-9.9 4.1-14.9.8-3.1 1.2-6.3 2-9.4.8-3.4 2.1-6.7 2.8-10.1.9-4.2 1.6-8.6 2.4-13.1L50 0z"/></svg>